<?xml version="1.0" encoding="UTF-8"?>
<svg xmlns="http://www.w3.org/2000/svg" xmlns:xlink="http://www.w3.org/1999/xlink" version="1.1" >
<font id="Langfair-Head60" horiz-adv-x="546">
<font-face  font-family="Langfair" units-per-em="1000" ascent="1333" descent="-251" font-style="normal" font-weight="400" font-stretch="normal" cap-height="708" x-height="514" underline-position="-90" underline-thickness="21" />
<missing-glyph horiz-adv-x="562" d="M60 0 L60 772 L502 772 L502 0 L60 0 Z M97 31 L465 31 L465 741 L97 741 L97 31 Z " />
<glyph glyph-name="nonmarkingreturn" unicode="&#xd;" horiz-adv-x="0" />
<glyph glyph-name="space" unicode="&#x20;" horiz-adv-x="249" />
<glyph glyph-name="A" unicode="A" horiz-adv-x="630" d="M567 85 C583 43.6667 606 22.3333 636 21 L636 0 C609.333 2 573.667 3 529 3 C473.667 3 432.333 2 405 0 L405 21 C458.333 23.6667 477 35.3333 477 58 C477 70 470.667 87.6667 464 105 L401 267 L157 267 L117 163 C103.667 130.333 97 103.333 97 82 C97 42 123 22.3333 183 21 L183 0 C145 2 106.667 3 68 3 C38 3 13 2 -7 0 L-7 21 C21 26.3333 50.6667 53.3333 72 108 L306 713 L324 713 L567 85 Z M166 289 L393 289 L279 584 L166 289 Z " />
<glyph glyph-name="Aacute" unicode="&#xc1;" horiz-adv-x="630" >
<path fill="black" d="M567 85 C583 43.6667 606 22.3333 636 21 L636 0 C609.333 2 573.667 3 529 3 C473.667 3 432.333 2 405 0 L405 21 C458.333 23.6667 477 35.3333 477 58 C477 70 470.667 87.6667 464 105 L401 267 L157 267 L117 163 C103.667 130.333 97 103.333 97 82 C97 42 123 22.3333 183 21 L183 0 C145 2 106.667 3 68 3 C38 3 13 2 -7 0 L-7 21 C21 26.3333 50.6667 53.3333 72 108 L306 713 L324 713 L567 85 Z M166 289 L393 289 L279 584 L166 289 Z " /><g transform="translate(522,0)" ><path fill="black" d="M-265 785 C-231 811 -194.667 841.667 -156 877 C-133.333 898.333 -113 916.667 -97 926 C-86.3333 932.667 -76.3333 936 -67 936 C-54.3333 936 -44 930.333 -36 919 C-32 913 -30 906.667 -30 900 C-30 885.333 -39 872 -57 860 C-69.6667 852.667 -92 842.667 -124 830 C-160 816.667 -210 797.333 -258 772 L-265 785 Z " /></g></glyph>
<glyph glyph-name="Abreve" unicode="&#x102;" horiz-adv-x="630" >
<path fill="black" d="M567 85 C583 43.6667 606 22.3333 636 21 L636 0 C609.333 2 573.667 3 529 3 C473.667 3 432.333 2 405 0 L405 21 C458.333 23.6667 477 35.3333 477 58 C477 70 470.667 87.6667 464 105 L401 267 L157 267 L117 163 C103.667 130.333 97 103.333 97 82 C97 42 123 22.3333 183 21 L183 0 C145 2 106.667 3 68 3 C38 3 13 2 -7 0 L-7 21 C21 26.3333 50.6667 53.3333 72 108 L306 713 L324 713 L567 85 Z M166 289 L393 289 L279 584 L166 289 Z " /><g transform="translate(566,0)" ><path fill="black" d="M-252 782 C-337.333 782 -411.333 832.333 -450 915 L-438 924 C-394 870.667 -332.333 844 -253 844 C-175.667 844 -107.667 873.333 -65 924 L-51 915 C-89.6667 832.333 -165.333 782 -252 782 Z " /></g></glyph>
<glyph glyph-name="uni1EAE" unicode="&#x1eae;" horiz-adv-x="630" >
<path fill="black" d="M567 85 C583 43.6667 606 22.3333 636 21 L636 0 C609.333 2 573.667 3 529 3 C473.667 3 432.333 2 405 0 L405 21 C458.333 23.6667 477 35.3333 477 58 C477 70 470.667 87.6667 464 105 L401 267 L157 267 L117 163 C103.667 130.333 97 103.333 97 82 C97 42 123 22.3333 183 21 L183 0 C145 2 106.667 3 68 3 C38 3 13 2 -7 0 L-7 21 C21 26.3333 50.6667 53.3333 72 108 L306 713 L324 713 L567 85 Z M166 289 L393 289 L279 584 L166 289 Z " /><g transform="translate(546,0)" ><path fill="black" d="M-232 771 C-308 771 -379 815 -411 887 L-398 897 C-367.333 857 -305 834 -233 834 C-159.667 834 -95.3333 857 -66 897 L-52 887 C-85.3333 815 -156 771 -232 771 Z " /></g><g transform="translate(438,98)" ><path fill="black" d="M-156 808 C-136 845.333 -117.333 886.333 -112 897 C-100 923.667 -91 941.333 -85 950 C-73.6667 965.333 -61 973 -47 973 C-39 973 -31.6667 970.333 -25 965 C-15.6667 959 -11 949.333 -11 936 C-11 925.333 -15.6667 914.333 -25 903 C-35 892.333 -49.3333 879.667 -68 865 C-95.3333 843.667 -121 821.667 -145 799 L-156 808 Z " /></g></glyph>
<glyph glyph-name="uni1EB6" unicode="&#x1eb6;" horiz-adv-x="630" >
<path fill="black" d="M567 85 C583 43.6667 606 22.3333 636 21 L636 0 C609.333 2 573.667 3 529 3 C473.667 3 432.333 2 405 0 L405 21 C458.333 23.6667 477 35.3333 477 58 C477 70 470.667 87.6667 464 105 L401 267 L157 267 L117 163 C103.667 130.333 97 103.333 97 82 C97 42 123 22.3333 183 21 L183 0 C145 2 106.667 3 68 3 C38 3 13 2 -7 0 L-7 21 C21 26.3333 50.6667 53.3333 72 108 L306 713 L324 713 L567 85 Z M166 289 L393 289 L279 584 L166 289 Z " /><g transform="translate(566,0)" ><path fill="black" d="M-252 782 C-337.333 782 -411.333 832.333 -450 915 L-438 924 C-394 870.667 -332.333 844 -253 844 C-175.667 844 -107.667 873.333 -65 924 L-51 915 C-89.6667 832.333 -165.333 782 -252 782 Z " /></g><g transform="translate(435,0)" ><path fill="black" d="M-120 -193 C-152 -193 -178 -167 -178 -135 C-178 -103 -152 -77 -120 -77 C-88 -77 -61 -103 -61 -135 C-61 -167 -88 -193 -120 -193 Z " /></g></glyph>
<glyph glyph-name="uni1EB0" unicode="&#x1eb0;" horiz-adv-x="630" >
<path fill="black" d="M567 85 C583 43.6667 606 22.3333 636 21 L636 0 C609.333 2 573.667 3 529 3 C473.667 3 432.333 2 405 0 L405 21 C458.333 23.6667 477 35.3333 477 58 C477 70 470.667 87.6667 464 105 L401 267 L157 267 L117 163 C103.667 130.333 97 103.333 97 82 C97 42 123 22.3333 183 21 L183 0 C145 2 106.667 3 68 3 C38 3 13 2 -7 0 L-7 21 C21 26.3333 50.6667 53.3333 72 108 L306 713 L324 713 L567 85 Z M166 289 L393 289 L279 584 L166 289 Z " /><g transform="translate(546,0)" ><path fill="black" d="M-232 771 C-308 771 -379 815 -411 887 L-398 897 C-367.333 857 -305 834 -233 834 C-159.667 834 -95.3333 857 -66 897 L-52 887 C-85.3333 815 -156 771 -232 771 Z " /></g><g transform="translate(396,98)" ><path fill="black" d="M-62 799 C-86 821.667 -111.667 843.667 -139 865 C-157.667 879.667 -172 892.333 -182 903 C-191.333 913 -196 924 -196 936 C-196 947.333 -191.333 957 -182 965 C-175.333 970.333 -168 973 -160 973 C-145.333 973 -132.333 965.333 -121 950 C-115 941.333 -106 923.667 -94 897 C-88.6667 886.333 -70 845.333 -50 808 L-62 799 Z " /></g></glyph>
<glyph glyph-name="uni1EB2" unicode="&#x1eb2;" horiz-adv-x="630" >
<path fill="black" d="M567 85 C583 43.6667 606 22.3333 636 21 L636 0 C609.333 2 573.667 3 529 3 C473.667 3 432.333 2 405 0 L405 21 C458.333 23.6667 477 35.3333 477 58 C477 70 470.667 87.6667 464 105 L401 267 L157 267 L117 163 C103.667 130.333 97 103.333 97 82 C97 42 123 22.3333 183 21 L183 0 C145 2 106.667 3 68 3 C38 3 13 2 -7 0 L-7 21 C21 26.3333 50.6667 53.3333 72 108 L306 713 L324 713 L567 85 Z M166 289 L393 289 L279 584 L166 289 Z " /><g transform="translate(546,0)" ><path fill="black" d="M-232 771 C-308 771 -379 815 -411 887 L-398 897 C-367.333 857 -305 834 -233 834 C-159.667 834 -95.3333 857 -66 897 L-52 887 C-85.3333 815 -156 771 -232 771 Z " /></g><g transform="translate(474,100)" ><path fill="black" d="M-169 819 C-134.333 837.667 -117 863.333 -117 896 C-117 930.667 -136.333 951 -171 951 C-197.667 951 -220 940.333 -220 927 C-220 919 -200 896.333 -200 883 C-200 868.333 -212.667 857 -230 857 C-251.333 857 -265 871.333 -265 894 C-265 938 -213 972 -149 972 C-90.3333 972 -48 942.333 -48 901 C-48 859.667 -86.3333 825 -149 809 L-149 774 L-169 774 L-169 819 Z " /></g></glyph>
<glyph glyph-name="uni1EB4" unicode="&#x1eb4;" horiz-adv-x="630" >
<path fill="black" d="M567 85 C583 43.6667 606 22.3333 636 21 L636 0 C609.333 2 573.667 3 529 3 C473.667 3 432.333 2 405 0 L405 21 C458.333 23.6667 477 35.3333 477 58 C477 70 470.667 87.6667 464 105 L401 267 L157 267 L117 163 C103.667 130.333 97 103.333 97 82 C97 42 123 22.3333 183 21 L183 0 C145 2 106.667 3 68 3 C38 3 13 2 -7 0 L-7 21 C21 26.3333 50.6667 53.3333 72 108 L306 713 L324 713 L567 85 Z M166 289 L393 289 L279 584 L166 289 Z " /><g transform="translate(546,0)" ><path fill="black" d="M-232 771 C-308 771 -379 815 -411 887 L-398 897 C-367.333 857 -305 834 -233 834 C-159.667 834 -95.3333 857 -66 897 L-52 887 C-85.3333 815 -156 771 -232 771 Z " /></g><g transform="translate(519,190)" ><path fill="black" d="M-384 773 C-378.667 842.333 -341.333 882 -284 882 C-250.667 882 -225 871 -181 851 C-147.667 833.667 -126.667 825 -104 825 C-72.6667 825 -51.6667 844.667 -41 884 L-25 880 C-31.6667 812 -67.6667 771 -125 771 C-158.333 771 -185.667 782 -227 802 C-261.667 819.333 -283.333 828 -306 828 C-338 828 -357.333 811.333 -368 770 L-384 773 Z " /></g></glyph>
<glyph glyph-name="uni01CD" unicode="&#x1cd;" horiz-adv-x="630" >
<path fill="black" d="M567 85 C583 43.6667 606 22.3333 636 21 L636 0 C609.333 2 573.667 3 529 3 C473.667 3 432.333 2 405 0 L405 21 C458.333 23.6667 477 35.3333 477 58 C477 70 470.667 87.6667 464 105 L401 267 L157 267 L117 163 C103.667 130.333 97 103.333 97 82 C97 42 123 22.3333 183 21 L183 0 C145 2 106.667 3 68 3 C38 3 13 2 -7 0 L-7 21 C21 26.3333 50.6667 53.3333 72 108 L306 713 L324 713 L567 85 Z M166 289 L393 289 L279 584 L166 289 Z " /><g transform="translate(552,0)" ><path fill="black" d="M-248 773 C-305.333 828.333 -362 873.667 -418 909 L-411 924 C-352.333 905.333 -271.333 874.333 -218 849 C-160.667 881 -109.667 906 -65 924 L-59 909 C-112.333 876.333 -169 831 -229 773 L-248 773 Z " /></g></glyph>
<glyph glyph-name="Acircumflex" unicode="&#xc2;" horiz-adv-x="630" >
<path fill="black" d="M567 85 C583 43.6667 606 22.3333 636 21 L636 0 C609.333 2 573.667 3 529 3 C473.667 3 432.333 2 405 0 L405 21 C458.333 23.6667 477 35.3333 477 58 C477 70 470.667 87.6667 464 105 L401 267 L157 267 L117 163 C103.667 130.333 97 103.333 97 82 C97 42 123 22.3333 183 21 L183 0 C145 2 106.667 3 68 3 C38 3 13 2 -7 0 L-7 21 C21 26.3333 50.6667 53.3333 72 108 L306 713 L324 713 L567 85 Z M166 289 L393 289 L279 584 L166 289 Z " /><g transform="translate(553,0)" ><path fill="black" d="M-419 788 C-365.667 820.667 -309 866 -249 924 L-230 924 C-175.333 870 -118.667 824.667 -60 788 L-66 773 C-124.667 791.667 -205.667 822.667 -259 848 C-316.333 816 -367.333 791 -412 773 L-419 788 Z " /></g></glyph>
<glyph glyph-name="uni1EA4" unicode="&#x1ea4;" horiz-adv-x="630" >
<path fill="black" d="M567 85 C583 43.6667 606 22.3333 636 21 L636 0 C609.333 2 573.667 3 529 3 C473.667 3 432.333 2 405 0 L405 21 C458.333 23.6667 477 35.3333 477 58 C477 70 470.667 87.6667 464 105 L401 267 L157 267 L117 163 C103.667 130.333 97 103.333 97 82 C97 42 123 22.3333 183 21 L183 0 C145 2 106.667 3 68 3 C38 3 13 2 -7 0 L-7 21 C21 26.3333 50.6667 53.3333 72 108 L306 713 L324 713 L567 85 Z M166 289 L393 289 L279 584 L166 289 Z " /><g transform="translate(553,0)" ><path fill="black" d="M-419 772 C-367.667 800 -311 841.333 -249 896 L-230 896 C-172 845.333 -115.333 804.667 -60 774 L-66 759 C-124.667 773.667 -205.667 800 -259 820 C-321 791.333 -372 770.667 -412 758 L-419 772 Z " /></g><g transform="translate(577,98)" ><path fill="black" d="M-156 808 C-136 845.333 -117.333 886.333 -112 897 C-100 923.667 -91 941.333 -85 950 C-73.6667 965.333 -61 973 -47 973 C-39 973 -31.6667 970.333 -25 965 C-15.6667 959 -11 949.333 -11 936 C-11 925.333 -15.6667 914.333 -25 903 C-35 892.333 -49.3333 879.667 -68 865 C-95.3333 843.667 -121 821.667 -145 799 L-156 808 Z " /></g></glyph>
<glyph glyph-name="uni1EAC" unicode="&#x1eac;" horiz-adv-x="630" >
<path fill="black" d="M567 85 C583 43.6667 606 22.3333 636 21 L636 0 C609.333 2 573.667 3 529 3 C473.667 3 432.333 2 405 0 L405 21 C458.333 23.6667 477 35.3333 477 58 C477 70 470.667 87.6667 464 105 L401 267 L157 267 L117 163 C103.667 130.333 97 103.333 97 82 C97 42 123 22.3333 183 21 L183 0 C145 2 106.667 3 68 3 C38 3 13 2 -7 0 L-7 21 C21 26.3333 50.6667 53.3333 72 108 L306 713 L324 713 L567 85 Z M166 289 L393 289 L279 584 L166 289 Z " /><g transform="translate(553,0)" ><path fill="black" d="M-419 788 C-365.667 820.667 -309 866 -249 924 L-230 924 C-175.333 870 -118.667 824.667 -60 788 L-66 773 C-124.667 791.667 -205.667 822.667 -259 848 C-316.333 816 -367.333 791 -412 773 L-419 788 Z " /></g><g transform="translate(435,0)" ><path fill="black" d="M-120 -193 C-152 -193 -178 -167 -178 -135 C-178 -103 -152 -77 -120 -77 C-88 -77 -61 -103 -61 -135 C-61 -167 -88 -193 -120 -193 Z " /></g></glyph>
<glyph glyph-name="uni1EA6" unicode="&#x1ea6;" horiz-adv-x="630" >
<path fill="black" d="M567 85 C583 43.6667 606 22.3333 636 21 L636 0 C609.333 2 573.667 3 529 3 C473.667 3 432.333 2 405 0 L405 21 C458.333 23.6667 477 35.3333 477 58 C477 70 470.667 87.6667 464 105 L401 267 L157 267 L117 163 C103.667 130.333 97 103.333 97 82 C97 42 123 22.3333 183 21 L183 0 C145 2 106.667 3 68 3 C38 3 13 2 -7 0 L-7 21 C21 26.3333 50.6667 53.3333 72 108 L306 713 L324 713 L567 85 Z M166 289 L393 289 L279 584 L166 289 Z " /><g transform="translate(553,0)" ><path fill="black" d="M-419 772 C-367.667 800 -311 841.333 -249 896 L-230 896 C-172 845.333 -115.333 804.667 -60 774 L-66 759 C-124.667 773.667 -205.667 800 -259 820 C-321 791.333 -372 770.667 -412 758 L-419 772 Z " /></g><g transform="translate(258,98)" ><path fill="black" d="M-62 799 C-86 821.667 -111.667 843.667 -139 865 C-157.667 879.667 -172 892.333 -182 903 C-191.333 913 -196 924 -196 936 C-196 947.333 -191.333 957 -182 965 C-175.333 970.333 -168 973 -160 973 C-145.333 973 -132.333 965.333 -121 950 C-115 941.333 -106 923.667 -94 897 C-88.6667 886.333 -70 845.333 -50 808 L-62 799 Z " /></g></glyph>
<glyph glyph-name="uni1EA8" unicode="&#x1ea8;" horiz-adv-x="630" >
<path fill="black" d="M567 85 C583 43.6667 606 22.3333 636 21 L636 0 C609.333 2 573.667 3 529 3 C473.667 3 432.333 2 405 0 L405 21 C458.333 23.6667 477 35.3333 477 58 C477 70 470.667 87.6667 464 105 L401 267 L157 267 L117 163 C103.667 130.333 97 103.333 97 82 C97 42 123 22.3333 183 21 L183 0 C145 2 106.667 3 68 3 C38 3 13 2 -7 0 L-7 21 C21 26.3333 50.6667 53.3333 72 108 L306 713 L324 713 L567 85 Z M166 289 L393 289 L279 584 L166 289 Z " /><g transform="translate(553,0)" ><path fill="black" d="M-419 772 C-367.667 800 -311 841.333 -249 896 L-230 896 C-172 845.333 -115.333 804.667 -60 774 L-66 759 C-124.667 773.667 -205.667 800 -259 820 C-321 791.333 -372 770.667 -412 758 L-419 772 Z " /></g><g transform="translate(609,99)" ><path fill="black" d="M-169 819 C-134.333 837.667 -117 863.333 -117 896 C-117 930.667 -136.333 951 -171 951 C-197.667 951 -220 940.333 -220 927 C-220 919 -200 896.333 -200 883 C-200 868.333 -212.667 857 -230 857 C-251.333 857 -265 871.333 -265 894 C-265 938 -213 972 -149 972 C-90.3333 972 -48 942.333 -48 901 C-48 859.667 -86.3333 825 -149 809 L-149 774 L-169 774 L-169 819 Z " /></g></glyph>
<glyph glyph-name="uni1EAA" unicode="&#x1eaa;" horiz-adv-x="630" >
<path fill="black" d="M567 85 C583 43.6667 606 22.3333 636 21 L636 0 C609.333 2 573.667 3 529 3 C473.667 3 432.333 2 405 0 L405 21 C458.333 23.6667 477 35.3333 477 58 C477 70 470.667 87.6667 464 105 L401 267 L157 267 L117 163 C103.667 130.333 97 103.333 97 82 C97 42 123 22.3333 183 21 L183 0 C145 2 106.667 3 68 3 C38 3 13 2 -7 0 L-7 21 C21 26.3333 50.6667 53.3333 72 108 L306 713 L324 713 L567 85 Z M166 289 L393 289 L279 584 L166 289 Z " /><g transform="translate(553,0)" ><path fill="black" d="M-419 772 C-367.667 800 -311 841.333 -249 896 L-230 896 C-172 845.333 -115.333 804.667 -60 774 L-66 759 C-124.667 773.667 -205.667 800 -259 820 C-321 791.333 -372 770.667 -412 758 L-419 772 Z " /></g><g transform="translate(519,190)" ><path fill="black" d="M-384 773 C-378.667 842.333 -341.333 882 -284 882 C-250.667 882 -225 871 -181 851 C-147.667 833.667 -126.667 825 -104 825 C-72.6667 825 -51.6667 844.667 -41 884 L-25 880 C-31.6667 812 -67.6667 771 -125 771 C-158.333 771 -185.667 782 -227 802 C-261.667 819.333 -283.333 828 -306 828 C-338 828 -357.333 811.333 -368 770 L-384 773 Z " /></g></glyph>
<glyph glyph-name="Adieresis" unicode="&#xc4;" horiz-adv-x="630" >
<path fill="black" d="M567 85 C583 43.6667 606 22.3333 636 21 L636 0 C609.333 2 573.667 3 529 3 C473.667 3 432.333 2 405 0 L405 21 C458.333 23.6667 477 35.3333 477 58 C477 70 470.667 87.6667 464 105 L401 267 L157 267 L117 163 C103.667 130.333 97 103.333 97 82 C97 42 123 22.3333 183 21 L183 0 C145 2 106.667 3 68 3 C38 3 13 2 -7 0 L-7 21 C21 26.3333 50.6667 53.3333 72 108 L306 713 L324 713 L567 85 Z M166 289 L393 289 L279 584 L166 289 Z " /><g transform="translate(540,0)" ><path fill="black" d="M-332 772 C-364 772 -390 798 -390 830 C-390 860.667 -364 888 -332 888 C-301.333 888 -274 860.667 -274 830 C-274 798 -301.333 772 -332 772 Z M-120 772 C-152 772 -178 798 -178 830 C-178 860.667 -152 888 -120 888 C-89.3333 888 -62 860.667 -62 830 C-62 798 -89.3333 772 -120 772 Z " /></g></glyph>
<glyph glyph-name="uni1EA0" unicode="&#x1ea0;" horiz-adv-x="630" >
<path fill="black" d="M567 85 C583 43.6667 606 22.3333 636 21 L636 0 C609.333 2 573.667 3 529 3 C473.667 3 432.333 2 405 0 L405 21 C458.333 23.6667 477 35.3333 477 58 C477 70 470.667 87.6667 464 105 L401 267 L157 267 L117 163 C103.667 130.333 97 103.333 97 82 C97 42 123 22.3333 183 21 L183 0 C145 2 106.667 3 68 3 C38 3 13 2 -7 0 L-7 21 C21 26.3333 50.6667 53.3333 72 108 L306 713 L324 713 L567 85 Z M166 289 L393 289 L279 584 L166 289 Z " /><g transform="translate(435,0)" ><path fill="black" d="M-120 -193 C-152 -193 -178 -167 -178 -135 C-178 -103 -152 -77 -120 -77 C-88 -77 -61 -103 -61 -135 C-61 -167 -88 -193 -120 -193 Z " /></g></glyph>
<glyph glyph-name="Agrave" unicode="&#xc0;" horiz-adv-x="630" >
<path fill="black" d="M567 85 C583 43.6667 606 22.3333 636 21 L636 0 C609.333 2 573.667 3 529 3 C473.667 3 432.333 2 405 0 L405 21 C458.333 23.6667 477 35.3333 477 58 C477 70 470.667 87.6667 464 105 L401 267 L157 267 L117 163 C103.667 130.333 97 103.333 97 82 C97 42 123 22.3333 183 21 L183 0 C145 2 106.667 3 68 3 C38 3 13 2 -7 0 L-7 21 C21 26.3333 50.6667 53.3333 72 108 L306 713 L324 713 L567 85 Z M166 289 L393 289 L279 584 L166 289 Z " /><g transform="translate(401,0)" ><path fill="black" d="M-37 772 C-85 797.333 -135 816.667 -171 830 C-203 842.667 -225.333 852.667 -238 860 C-256 872 -265 885.333 -265 900 C-265 906.667 -263 913 -259 919 C-251 930.333 -240.333 936 -227 936 C-217.667 936 -207.667 932.667 -197 926 C-177 914 -145 885 -137 877 C-103.667 845 -68 814.333 -30 785 L-37 772 Z " /></g></glyph>
<glyph glyph-name="uni1EA2" unicode="&#x1ea2;" horiz-adv-x="630" >
<path fill="black" d="M567 85 C583 43.6667 606 22.3333 636 21 L636 0 C609.333 2 573.667 3 529 3 C473.667 3 432.333 2 405 0 L405 21 C458.333 23.6667 477 35.3333 477 58 C477 70 470.667 87.6667 464 105 L401 267 L157 267 L117 163 C103.667 130.333 97 103.333 97 82 C97 42 123 22.3333 183 21 L183 0 C145 2 106.667 3 68 3 C38 3 13 2 -7 0 L-7 21 C21 26.3333 50.6667 53.3333 72 108 L306 713 L324 713 L567 85 Z M166 289 L393 289 L279 584 L166 289 Z " /><g transform="translate(474,0)" ><path fill="black" d="M-169 819 C-134.333 837.667 -117 863.333 -117 896 C-117 930.667 -136.333 951 -171 951 C-197.667 951 -220 940.333 -220 927 C-220 919 -200 896.333 -200 883 C-200 868.333 -212.667 857 -230 857 C-251.333 857 -265 871.333 -265 894 C-265 938 -213 972 -149 972 C-90.3333 972 -48 942.333 -48 901 C-48 859.667 -86.3333 825 -149 809 L-149 774 L-169 774 L-169 819 Z " /></g></glyph>
<glyph glyph-name="Amacron" unicode="&#x100;" horiz-adv-x="630" >
<path fill="black" d="M567 85 C583 43.6667 606 22.3333 636 21 L636 0 C609.333 2 573.667 3 529 3 C473.667 3 432.333 2 405 0 L405 21 C458.333 23.6667 477 35.3333 477 58 C477 70 470.667 87.6667 464 105 L401 267 L157 267 L117 163 C103.667 130.333 97 103.333 97 82 C97 42 123 22.3333 183 21 L183 0 C145 2 106.667 3 68 3 C38 3 13 2 -7 0 L-7 21 C21 26.3333 50.6667 53.3333 72 108 L306 713 L324 713 L567 85 Z M166 289 L393 289 L279 584 L166 289 Z " /><g transform="translate(515,0)" ><path fill="black" d="M-377 818 L-377 845 L-25 845 L-25 818 L-377 818 Z " /></g></glyph>
<glyph glyph-name="Aogonek" unicode="&#x104;" horiz-adv-x="630" d="M567 85 C582.333 44.3333 605.333 23 636 21 L636 0 L625 0 C535.917 2.58333 437.833 -78.8333 441 -152 C441 -180 455.333 -196 482 -196 C504.667 -196 527.667 -185 545 -165 L560 -178 C530 -222.667 492.333 -245 447 -245 C397.667 -245 367 -220.333 367 -179 C367 -162.333 371.833 -146.667 381.5 -132 C391.167 -117.333 411.333 -95.3333 442 -66 C478 -31.3333 489 -15.6667 489 7 C489 24.3333 482.333 43.6667 465 89 L399 267 L157 267 L117 163 C103.667 128.333 97 101.667 97 83 C97 44.3333 121.333 22.3333 184 21 L184 0 C150 2 111.667 3 69 3 C40.3333 3 15 2 -7 0 L-7 21 C21 26.3333 53.3333 60 72 108 L306 713 L324 713 L567 85 Z M166 289 L390 289 L280 585 L166 289 Z " />
<glyph glyph-name="Aring" unicode="&#xc5;" horiz-adv-x="630" >
<path fill="black" d="M567 85 C583 43.6667 606 22.3333 636 21 L636 0 C609.333 2 573.667 3 529 3 C473.667 3 432.333 2 405 0 L405 21 C458.333 23.6667 477 35.3333 477 58 C477 70 470.667 87.6667 464 105 L401 267 L157 267 L117 163 C103.667 130.333 97 103.333 97 82 C97 42 123 22.3333 183 21 L183 0 C145 2 106.667 3 68 3 C38 3 13 2 -7 0 L-7 21 C21 26.3333 50.6667 53.3333 72 108 L306 713 L324 713 L567 85 Z M166 289 L393 289 L279 584 L166 289 Z " /><g transform="translate(452,0)" ><path fill="black" d="M-138 742 C-198 742 -242 780.667 -242 834 C-242 887.333 -196.667 926 -138 926 C-79.3333 926 -34 887.333 -34 834 C-34 780.667 -79.3333 742 -138 742 Z M-138 763 C-92.6667 763 -63 791.667 -63 833 C-63 875.667 -94 905 -138 905 C-182 905 -213 875.667 -213 833 C-213 791.667 -183.333 763 -138 763 Z " /></g></glyph>
<glyph glyph-name="Atilde" unicode="&#xc3;" horiz-adv-x="630" >
<path fill="black" d="M567 85 C583 43.6667 606 22.3333 636 21 L636 0 C609.333 2 573.667 3 529 3 C473.667 3 432.333 2 405 0 L405 21 C458.333 23.6667 477 35.3333 477 58 C477 70 470.667 87.6667 464 105 L401 267 L157 267 L117 163 C103.667 130.333 97 103.333 97 82 C97 42 123 22.3333 183 21 L183 0 C145 2 106.667 3 68 3 C38 3 13 2 -7 0 L-7 21 C21 26.3333 50.6667 53.3333 72 108 L306 713 L324 713 L567 85 Z M166 289 L393 289 L279 584 L166 289 Z " /><g transform="translate(530,0)" ><path fill="black" d="M-135 782 C-169.667 782 -197 793.333 -237 812 C-282.333 832 -299.667 839 -329 839 C-361 839 -380.333 820.667 -391 778 L-407 781 C-401.667 846.333 -355.667 892 -297 892 C-262.333 892 -236.667 882 -194 862 C-158 844.667 -132.333 835 -103 835 C-72.3333 835 -51.6667 855.333 -41 896 L-25 893 C-30.3333 827.667 -76.3333 782 -135 782 Z " /></g></glyph>
<glyph glyph-name="AE" unicode="&#xc6;" horiz-adv-x="854" d="M822 230 C813.333 158.667 809 93.3333 809 34 L809 0 C756.333 2 685.667 3 597 3 C492.333 3 412.333 2 357 0 L357 21 C410.776 24.8412 418 32.1937 418 107 L418 345 L243 345 L159 206 C127.667 154.667 112 113.333 112 82 C112 43.3333 137 22.3333 185 21 L185 0 C151 2 112.667 3 70 3 C44.6667 3 18 2 -10 0 L-10 21 C19.3333 39.6667 64 93 100 153 L409 663 C398.333 680.333 379.667 684.333 337 687 L337 708 C378.333 706.667 411 706 435 706 L475 772 L501 772 L461 706 C497 705.333 542.333 705 597 705 C676.333 705 733.667 706 769 708 C767 656 771.333 596 782 528 L758 528 C722.431 652.491 691.539 684 615 684 L592 684 C521.8 684 511 675.683 511 601 L511 367 L602 367 C681.833 364.25 668.667 466.5 675 478 L699 478 C697 453.333 696 426.333 696 397 L696 356 C696 327.333 698 286.667 702 234 L678 234 C677.333 238 675.833 251.5 673.5 274.5 C668.833 320.5 644.667 345 602 345 L511 345 L511 107 C511 32.3167 521.8 24 592 24 L595 24 C713.734 24 756.311 67.2152 798 230 L822 230 Z M418 367 L418 601 C418 616.333 417.667 627 417 633 L256 367 L418 367 Z " />
<glyph glyph-name="B" unicode="B" horiz-adv-x="623" d="M375 374 C507 355.333 578 294 578 194 C578 77.2667 483.15 0 338 0 C320 0 304.667 0.333333 292 1 C249.333 2.33333 207.333 3 166 3 C108 3 66.6667 2 42 0 L42 21 C113.145 24.8457 123 34.4401 123 107 L123 601 C123 673.56 113.145 683.154 42 687 L42 708 C67.3333 706 108 705 164 705 L272 706 C284.667 706.667 299 707 315 707 C447 707 526 648.667 526 550 C526 467.333 472.333 406.667 375 376 L375 374 Z M290 687 C228.967 687 216 671.833 216 601 L216 377 L283 377 C381 377 430 431 430 539 C430 640.333 386 687 290 687 Z M291 22 C415.667 22 478 80.6667 478 198 C478 306 420 358 300 358 L216 358 L216 105 C216 34.8167 226.15 22 291 22 Z " />
<glyph glyph-name="C" unicode="C" horiz-adv-x="688" d="M367 -14 C176.117 -14 53 127.267 53 345 C53 567.983 182.4 722 371 722 C444.333 722 487.333 699.667 542 665 C558 653.667 568.667 648 574 648 C586.667 648 595 670.333 599 715 L623 715 C619.667 655 618 601.667 618 555 L619 477 L595 477 C573.667 618.333 490 703 374 703 C235.333 703 153 574.333 153 357 C153 135.667 238 5 382 5 C499.333 5 577.667 89.6667 595 231 L619 231 L618 155 C618 107 619.667 53 623 -7 L599 -7 C595 39.6667 588.333 59 575 59 C567 59 553.667 50.3333 539 41 C487 7.66667 443 -14 367 -14 Z " />
<glyph glyph-name="Cacute" unicode="&#x106;" horiz-adv-x="688" >
<path fill="black" d="M367 -14 C176.117 -14 53 127.267 53 345 C53 567.983 182.4 722 371 722 C444.333 722 487.333 699.667 542 665 C558 653.667 568.667 648 574 648 C586.667 648 595 670.333 599 715 L623 715 C619.667 655 618 601.667 618 555 L619 477 L595 477 C573.667 618.333 490 703 374 703 C235.333 703 153 574.333 153 357 C153 135.667 238 5 382 5 C499.333 5 577.667 89.6667 595 231 L619 231 L618 155 C618 107 619.667 53 623 -7 L599 -7 C595 39.6667 588.333 59 575 59 C567 59 553.667 50.3333 539 41 C487 7.66667 443 -14 367 -14 Z " /><g transform="translate(572,0)" ><path fill="black" d="M-265 785 C-231 811 -194.667 841.667 -156 877 C-133.333 898.333 -113 916.667 -97 926 C-86.3333 932.667 -76.3333 936 -67 936 C-54.3333 936 -44 930.333 -36 919 C-32 913 -30 906.667 -30 900 C-30 885.333 -39 872 -57 860 C-69.6667 852.667 -92 842.667 -124 830 C-160 816.667 -210 797.333 -258 772 L-265 785 Z " /></g></glyph>
<glyph glyph-name="Ccaron" unicode="&#x10c;" horiz-adv-x="688" >
<path fill="black" d="M367 -14 C176.117 -14 53 127.267 53 345 C53 567.983 182.4 722 371 722 C444.333 722 487.333 699.667 542 665 C558 653.667 568.667 648 574 648 C586.667 648 595 670.333 599 715 L623 715 C619.667 655 618 601.667 618 555 L619 477 L595 477 C573.667 618.333 490 703 374 703 C235.333 703 153 574.333 153 357 C153 135.667 238 5 382 5 C499.333 5 577.667 89.6667 595 231 L619 231 L618 155 C618 107 619.667 53 623 -7 L599 -7 C595 39.6667 588.333 59 575 59 C567 59 553.667 50.3333 539 41 C487 7.66667 443 -14 367 -14 Z " /><g transform="translate(602,0)" ><path fill="black" d="M-248 773 C-305.333 828.333 -362 873.667 -418 909 L-411 924 C-352.333 905.333 -271.333 874.333 -218 849 C-160.667 881 -109.667 906 -65 924 L-59 909 C-112.333 876.333 -169 831 -229 773 L-248 773 Z " /></g></glyph>
<glyph glyph-name="Ccedilla" unicode="&#xc7;" horiz-adv-x="688" d="M618 155 C618 107 619.667 53 623 -7 L599 -7 C595 39.6667 588.333 59 575 59 C567 59 553.667 50.3333 539 41 C487 7.66667 443 -14 367 -14 L365 -14 L339 -80 C349 -77.3333 360.667 -76 374 -76 C430 -76 465 -105 465 -153 C465 -209 414.667 -245 336 -245 C305.333 -245 279.667 -241.333 259 -234 L263 -215 C279 -217.667 291.667 -219 301 -219 C357 -219 391 -194 391 -154 C391 -118 374.333 -100 341 -100 C326.333 -100 312.667 -102.333 300 -107 L337 -13 C163.455 1.12579 53 139.133 53 345 C53 567.983 182.4 722 371 722 C444.333 722 487.333 699.667 542 665 C558 653.667 568.667 648 574 648 C586.667 648 595 670.333 599 715 L623 715 C619.667 655 618 601.667 618 555 L619 477 L595 477 C573.667 618.333 490 703 374 703 C235.333 703 153 574.333 153 357 C153 135.667 238 5 382 5 C499.333 5 577.667 89.6667 595 231 L619 231 L618 155 Z " />
<glyph glyph-name="Ccircumflex" unicode="&#x108;" horiz-adv-x="688" >
<path fill="black" d="M367 -14 C176.117 -14 53 127.267 53 345 C53 567.983 182.4 722 371 722 C444.333 722 487.333 699.667 542 665 C558 653.667 568.667 648 574 648 C586.667 648 595 670.333 599 715 L623 715 C619.667 655 618 601.667 618 555 L619 477 L595 477 C573.667 618.333 490 703 374 703 C235.333 703 153 574.333 153 357 C153 135.667 238 5 382 5 C499.333 5 577.667 89.6667 595 231 L619 231 L618 155 C618 107 619.667 53 623 -7 L599 -7 C595 39.6667 588.333 59 575 59 C567 59 553.667 50.3333 539 41 C487 7.66667 443 -14 367 -14 Z " /><g transform="translate(603,0)" ><path fill="black" d="M-419 788 C-365.667 820.667 -309 866 -249 924 L-230 924 C-175.333 870 -118.667 824.667 -60 788 L-66 773 C-124.667 791.667 -205.667 822.667 -259 848 C-316.333 816 -367.333 791 -412 773 L-419 788 Z " /></g></glyph>
<glyph glyph-name="Cdotaccent" unicode="&#x10a;" horiz-adv-x="688" >
<path fill="black" d="M367 -14 C176.117 -14 53 127.267 53 345 C53 567.983 182.4 722 371 722 C444.333 722 487.333 699.667 542 665 C558 653.667 568.667 648 574 648 C586.667 648 595 670.333 599 715 L623 715 C619.667 655 618 601.667 618 555 L619 477 L595 477 C573.667 618.333 490 703 374 703 C235.333 703 153 574.333 153 357 C153 135.667 238 5 382 5 C499.333 5 577.667 89.6667 595 231 L619 231 L618 155 C618 107 619.667 53 623 -7 L599 -7 C595 39.6667 588.333 59 575 59 C567 59 553.667 50.3333 539 41 C487 7.66667 443 -14 367 -14 Z " /><g transform="translate(484,0)" ><path fill="black" d="M-120 778 C-152 778 -178 804 -178 836 C-178 868 -152 894 -120 894 C-88 894 -61 868 -61 836 C-61 804 -88 778 -120 778 Z " /></g></glyph>
<glyph glyph-name="D" unicode="D" horiz-adv-x="721" d="M42 21 C113.145 24.8457 123 34.4401 123 107 L123 601 C123 673.56 113.145 683.154 42 687 L42 708 C68 706 97.3333 705 130 705 L164 705 L208 706 L310 708 C546 708 668 589 668 369 C668 136.05 530.683 0 306 0 L254 1 C216.667 2.33333 183.667 3 155 3 C104.333 3 66.6667 2 42 0 L42 21 Z M295 19 C488.333 19 568 119.333 568 354 C568 591.283 488.133 689 296 689 C228.717 689 216 678.333 216 603 L216 105 C216 29.6667 227.033 19 295 19 Z " />
<glyph glyph-name="Eth" unicode="&#xd0;" horiz-adv-x="721" d="M310 708 C546 708 668 589 668 369 C668 136.05 530.683 0 306 0 L254 1 C216.667 2.33333 183.667 3 155 3 C104.333 3 66.6667 2 42 0 L42 21 C113.145 24.8457 123 34.4401 123 107 L123 345 L0 345 L0 367 L123 367 L123 601 C123 673.56 113.145 683.154 42 687 L42 708 C68 706 97.3333 705 130 705 L164 705 L208 706 L310 708 Z M295 19 C488.333 19 568 119.333 568 354 C568 591.283 488.133 689 296 689 C228.717 689 216 678.333 216 603 L216 367 L419 367 L419 345 L216 345 L216 105 C216 29.6667 227.033 19 295 19 Z " />
<glyph glyph-name="Dcaron" unicode="&#x10e;" horiz-adv-x="721" >
<path fill="black" d="M42 21 C113.145 24.8457 123 34.4401 123 107 L123 601 C123 673.56 113.145 683.154 42 687 L42 708 C68 706 97.3333 705 130 705 L164 705 L208 706 L310 708 C546 708 668 589 668 369 C668 136.05 530.683 0 306 0 L254 1 C216.667 2.33333 183.667 3 155 3 C104.333 3 66.6667 2 42 0 L42 21 Z M295 19 C488.333 19 568 119.333 568 354 C568 591.283 488.133 689 296 689 C228.717 689 216 678.333 216 603 L216 105 C216 29.6667 227.033 19 295 19 Z " /><g transform="translate(596,0)" ><path fill="black" d="M-248 773 C-305.333 828.333 -362 873.667 -418 909 L-411 924 C-352.333 905.333 -271.333 874.333 -218 849 C-160.667 881 -109.667 906 -65 924 L-59 909 C-112.333 876.333 -169 831 -229 773 L-248 773 Z " /></g></glyph>
<glyph glyph-name="Dcroat" unicode="&#x110;" horiz-adv-x="721" >
<path fill="black" d="M310 708 C546 708 668 589 668 369 C668 136.05 530.683 0 306 0 L254 1 C216.667 2.33333 183.667 3 155 3 C104.333 3 66.6667 2 42 0 L42 21 C113.145 24.8457 123 34.4401 123 107 L123 345 L0 345 L0 367 L123 367 L123 601 C123 673.56 113.145 683.154 42 687 L42 708 C68 706 97.3333 705 130 705 L164 705 L208 706 L310 708 Z M295 19 C488.333 19 568 119.333 568 354 C568 591.283 488.133 689 296 689 C228.717 689 216 678.333 216 603 L216 367 L419 367 L419 345 L216 345 L216 105 C216 29.6667 227.033 19 295 19 Z " /></glyph>
<glyph glyph-name="E" unicode="E" horiz-adv-x="609" d="M577 230 C568.333 158.667 564 93.3333 564 34 L564 0 C506 2 428.667 3 332 3 C202 3 105.333 2 42 0 L42 21 C113.145 24.8457 123 34.4401 123 107 L123 601 C123 673.56 113.145 683.154 42 687 L42 708 C105.333 706 202 705 332 705 C420.667 705 484.667 706 524 708 C522 656 526.333 596 537 528 L513 528 C477.443 652.45 446.196 684 369 684 L297 684 C226.8 684 216 673.433 216 601 L216 367 L311 367 C344.333 367 366.667 376.833 378 396.5 C400.667 435.833 401.333 484.667 404 498 L428 498 C426 470 425 438.667 425 404 L425 356 C425 326.667 427 279.333 431 214 L407 214 C406.333 218.667 404.5 234.667 401.5 262 C395.5 316.667 364.333 345 311 345 L216 345 L216 107 C216 34.5667 226.8 24 297 24 L330 24 C462.833 26.6667 504.167 65.3333 553 230 L577 230 Z " />
<glyph glyph-name="Eacute" unicode="&#xc9;" horiz-adv-x="609" >
<path fill="black" d="M577 230 C568.333 158.667 564 93.3333 564 34 L564 0 C506 2 428.667 3 332 3 C202 3 105.333 2 42 0 L42 21 C113.145 24.8457 123 34.4401 123 107 L123 601 C123 673.56 113.145 683.154 42 687 L42 708 C105.333 706 202 705 332 705 C420.667 705 484.667 706 524 708 C522 656 526.333 596 537 528 L513 528 C477.443 652.45 446.196 684 369 684 L297 684 C226.8 684 216 673.433 216 601 L216 367 L311 367 C344.333 367 366.667 376.833 378 396.5 C400.667 435.833 401.333 484.667 404 498 L428 498 C426 470 425 438.667 425 404 L425 356 C425 326.667 427 279.333 431 214 L407 214 C406.333 218.667 404.5 234.667 401.5 262 C395.5 316.667 364.333 345 311 345 L216 345 L216 107 C216 34.5667 226.8 24 297 24 L330 24 C462.833 26.6667 504.167 65.3333 553 230 L577 230 Z " /><g transform="translate(514,0)" ><path fill="black" d="M-265 785 C-231 811 -194.667 841.667 -156 877 C-133.333 898.333 -113 916.667 -97 926 C-86.3333 932.667 -76.3333 936 -67 936 C-54.3333 936 -44 930.333 -36 919 C-32 913 -30 906.667 -30 900 C-30 885.333 -39 872 -57 860 C-69.6667 852.667 -92 842.667 -124 830 C-160 816.667 -210 797.333 -258 772 L-265 785 Z " /></g></glyph>
<glyph glyph-name="Ebreve" unicode="&#x114;" horiz-adv-x="609" >
<path fill="black" d="M577 230 C568.333 158.667 564 93.3333 564 34 L564 0 C506 2 428.667 3 332 3 C202 3 105.333 2 42 0 L42 21 C113.145 24.8457 123 34.4401 123 107 L123 601 C123 673.56 113.145 683.154 42 687 L42 708 C105.333 706 202 705 332 705 C420.667 705 484.667 706 524 708 C522 656 526.333 596 537 528 L513 528 C477.443 652.45 446.196 684 369 684 L297 684 C226.8 684 216 673.433 216 601 L216 367 L311 367 C344.333 367 366.667 376.833 378 396.5 C400.667 435.833 401.333 484.667 404 498 L428 498 C426 470 425 438.667 425 404 L425 356 C425 326.667 427 279.333 431 214 L407 214 C406.333 218.667 404.5 234.667 401.5 262 C395.5 316.667 364.333 345 311 345 L216 345 L216 107 C216 34.5667 226.8 24 297 24 L330 24 C462.833 26.6667 504.167 65.3333 553 230 L577 230 Z " /><g transform="translate(558,0)" ><path fill="black" d="M-252 782 C-337.333 782 -411.333 832.333 -450 915 L-438 924 C-394 870.667 -332.333 844 -253 844 C-175.667 844 -107.667 873.333 -65 924 L-51 915 C-89.6667 832.333 -165.333 782 -252 782 Z " /></g></glyph>
<glyph glyph-name="Ecaron" unicode="&#x11a;" horiz-adv-x="609" >
<path fill="black" d="M577 230 C568.333 158.667 564 93.3333 564 34 L564 0 C506 2 428.667 3 332 3 C202 3 105.333 2 42 0 L42 21 C113.145 24.8457 123 34.4401 123 107 L123 601 C123 673.56 113.145 683.154 42 687 L42 708 C105.333 706 202 705 332 705 C420.667 705 484.667 706 524 708 C522 656 526.333 596 537 528 L513 528 C477.443 652.45 446.196 684 369 684 L297 684 C226.8 684 216 673.433 216 601 L216 367 L311 367 C344.333 367 366.667 376.833 378 396.5 C400.667 435.833 401.333 484.667 404 498 L428 498 C426 470 425 438.667 425 404 L425 356 C425 326.667 427 279.333 431 214 L407 214 C406.333 218.667 404.5 234.667 401.5 262 C395.5 316.667 364.333 345 311 345 L216 345 L216 107 C216 34.5667 226.8 24 297 24 L330 24 C462.833 26.6667 504.167 65.3333 553 230 L577 230 Z " /><g transform="translate(544,0)" ><path fill="black" d="M-248 773 C-305.333 828.333 -362 873.667 -418 909 L-411 924 C-352.333 905.333 -271.333 874.333 -218 849 C-160.667 881 -109.667 906 -65 924 L-59 909 C-112.333 876.333 -169 831 -229 773 L-248 773 Z " /></g></glyph>
<glyph glyph-name="Ecircumflex" unicode="&#xca;" horiz-adv-x="609" >
<path fill="black" d="M577 230 C568.333 158.667 564 93.3333 564 34 L564 0 C506 2 428.667 3 332 3 C202 3 105.333 2 42 0 L42 21 C113.145 24.8457 123 34.4401 123 107 L123 601 C123 673.56 113.145 683.154 42 687 L42 708 C105.333 706 202 705 332 705 C420.667 705 484.667 706 524 708 C522 656 526.333 596 537 528 L513 528 C477.443 652.45 446.196 684 369 684 L297 684 C226.8 684 216 673.433 216 601 L216 367 L311 367 C344.333 367 366.667 376.833 378 396.5 C400.667 435.833 401.333 484.667 404 498 L428 498 C426 470 425 438.667 425 404 L425 356 C425 326.667 427 279.333 431 214 L407 214 C406.333 218.667 404.5 234.667 401.5 262 C395.5 316.667 364.333 345 311 345 L216 345 L216 107 C216 34.5667 226.8 24 297 24 L330 24 C462.833 26.6667 504.167 65.3333 553 230 L577 230 Z " /><g transform="translate(545,0)" ><path fill="black" d="M-419 788 C-365.667 820.667 -309 866 -249 924 L-230 924 C-175.333 870 -118.667 824.667 -60 788 L-66 773 C-124.667 791.667 -205.667 822.667 -259 848 C-316.333 816 -367.333 791 -412 773 L-419 788 Z " /></g></glyph>
<glyph glyph-name="uni1EBE" unicode="&#x1ebe;" horiz-adv-x="609" >
<path fill="black" d="M577 230 C568.333 158.667 564 93.3333 564 34 L564 0 C506 2 428.667 3 332 3 C202 3 105.333 2 42 0 L42 21 C113.145 24.8457 123 34.4401 123 107 L123 601 C123 673.56 113.145 683.154 42 687 L42 708 C105.333 706 202 705 332 705 C420.667 705 484.667 706 524 708 C522 656 526.333 596 537 528 L513 528 C477.443 652.45 446.196 684 369 684 L297 684 C226.8 684 216 673.433 216 601 L216 367 L311 367 C344.333 367 366.667 376.833 378 396.5 C400.667 435.833 401.333 484.667 404 498 L428 498 C426 470 425 438.667 425 404 L425 356 C425 326.667 427 279.333 431 214 L407 214 C406.333 218.667 404.5 234.667 401.5 262 C395.5 316.667 364.333 345 311 345 L216 345 L216 107 C216 34.5667 226.8 24 297 24 L330 24 C462.833 26.6667 504.167 65.3333 553 230 L577 230 Z " /><g transform="translate(545,0)" ><path fill="black" d="M-419 772 C-367.667 800 -311 841.333 -249 896 L-230 896 C-172 845.333 -115.333 804.667 -60 774 L-66 759 C-124.667 773.667 -205.667 800 -259 820 C-321 791.333 -372 770.667 -412 758 L-419 772 Z " /></g><g transform="translate(569,98)" ><path fill="black" d="M-156 808 C-136 845.333 -117.333 886.333 -112 897 C-100 923.667 -91 941.333 -85 950 C-73.6667 965.333 -61 973 -47 973 C-39 973 -31.6667 970.333 -25 965 C-15.6667 959 -11 949.333 -11 936 C-11 925.333 -15.6667 914.333 -25 903 C-35 892.333 -49.3333 879.667 -68 865 C-95.3333 843.667 -121 821.667 -145 799 L-156 808 Z " /></g></glyph>
<glyph glyph-name="uni1EC6" unicode="&#x1ec6;" horiz-adv-x="609" >
<path fill="black" d="M577 230 C568.333 158.667 564 93.3333 564 34 L564 0 C506 2 428.667 3 332 3 C202 3 105.333 2 42 0 L42 21 C113.145 24.8457 123 34.4401 123 107 L123 601 C123 673.56 113.145 683.154 42 687 L42 708 C105.333 706 202 705 332 705 C420.667 705 484.667 706 524 708 C522 656 526.333 596 537 528 L513 528 C477.443 652.45 446.196 684 369 684 L297 684 C226.8 684 216 673.433 216 601 L216 367 L311 367 C344.333 367 366.667 376.833 378 396.5 C400.667 435.833 401.333 484.667 404 498 L428 498 C426 470 425 438.667 425 404 L425 356 C425 326.667 427 279.333 431 214 L407 214 C406.333 218.667 404.5 234.667 401.5 262 C395.5 316.667 364.333 345 311 345 L216 345 L216 107 C216 34.5667 226.8 24 297 24 L330 24 C462.833 26.6667 504.167 65.3333 553 230 L577 230 Z " /><g transform="translate(545,0)" ><path fill="black" d="M-419 788 C-365.667 820.667 -309 866 -249 924 L-230 924 C-175.333 870 -118.667 824.667 -60 788 L-66 773 C-124.667 791.667 -205.667 822.667 -259 848 C-316.333 816 -367.333 791 -412 773 L-419 788 Z " /></g><g transform="translate(445,0)" ><path fill="black" d="M-120 -193 C-152 -193 -178 -167 -178 -135 C-178 -103 -152 -77 -120 -77 C-88 -77 -61 -103 -61 -135 C-61 -167 -88 -193 -120 -193 Z " /></g></glyph>
<glyph glyph-name="uni1EC0" unicode="&#x1ec0;" horiz-adv-x="609" >
<path fill="black" d="M577 230 C568.333 158.667 564 93.3333 564 34 L564 0 C506 2 428.667 3 332 3 C202 3 105.333 2 42 0 L42 21 C113.145 24.8457 123 34.4401 123 107 L123 601 C123 673.56 113.145 683.154 42 687 L42 708 C105.333 706 202 705 332 705 C420.667 705 484.667 706 524 708 C522 656 526.333 596 537 528 L513 528 C477.443 652.45 446.196 684 369 684 L297 684 C226.8 684 216 673.433 216 601 L216 367 L311 367 C344.333 367 366.667 376.833 378 396.5 C400.667 435.833 401.333 484.667 404 498 L428 498 C426 470 425 438.667 425 404 L425 356 C425 326.667 427 279.333 431 214 L407 214 C406.333 218.667 404.5 234.667 401.5 262 C395.5 316.667 364.333 345 311 345 L216 345 L216 107 C216 34.5667 226.8 24 297 24 L330 24 C462.833 26.6667 504.167 65.3333 553 230 L577 230 Z " /><g transform="translate(545,0)" ><path fill="black" d="M-419 772 C-367.667 800 -311 841.333 -249 896 L-230 896 C-172 845.333 -115.333 804.667 -60 774 L-66 759 C-124.667 773.667 -205.667 800 -259 820 C-321 791.333 -372 770.667 -412 758 L-419 772 Z " /></g><g transform="translate(250,98)" ><path fill="black" d="M-62 799 C-86 821.667 -111.667 843.667 -139 865 C-157.667 879.667 -172 892.333 -182 903 C-191.333 913 -196 924 -196 936 C-196 947.333 -191.333 957 -182 965 C-175.333 970.333 -168 973 -160 973 C-145.333 973 -132.333 965.333 -121 950 C-115 941.333 -106 923.667 -94 897 C-88.6667 886.333 -70 845.333 -50 808 L-62 799 Z " /></g></glyph>
<glyph glyph-name="uni1EC2" unicode="&#x1ec2;" horiz-adv-x="609" >
<path fill="black" d="M577 230 C568.333 158.667 564 93.3333 564 34 L564 0 C506 2 428.667 3 332 3 C202 3 105.333 2 42 0 L42 21 C113.145 24.8457 123 34.4401 123 107 L123 601 C123 673.56 113.145 683.154 42 687 L42 708 C105.333 706 202 705 332 705 C420.667 705 484.667 706 524 708 C522 656 526.333 596 537 528 L513 528 C477.443 652.45 446.196 684 369 684 L297 684 C226.8 684 216 673.433 216 601 L216 367 L311 367 C344.333 367 366.667 376.833 378 396.5 C400.667 435.833 401.333 484.667 404 498 L428 498 C426 470 425 438.667 425 404 L425 356 C425 326.667 427 279.333 431 214 L407 214 C406.333 218.667 404.5 234.667 401.5 262 C395.5 316.667 364.333 345 311 345 L216 345 L216 107 C216 34.5667 226.8 24 297 24 L330 24 C462.833 26.6667 504.167 65.3333 553 230 L577 230 Z " /><g transform="translate(545,0)" ><path fill="black" d="M-419 772 C-367.667 800 -311 841.333 -249 896 L-230 896 C-172 845.333 -115.333 804.667 -60 774 L-66 759 C-124.667 773.667 -205.667 800 -259 820 C-321 791.333 -372 770.667 -412 758 L-419 772 Z " /></g><g transform="translate(601,99)" ><path fill="black" d="M-169 819 C-134.333 837.667 -117 863.333 -117 896 C-117 930.667 -136.333 951 -171 951 C-197.667 951 -220 940.333 -220 927 C-220 919 -200 896.333 -200 883 C-200 868.333 -212.667 857 -230 857 C-251.333 857 -265 871.333 -265 894 C-265 938 -213 972 -149 972 C-90.3333 972 -48 942.333 -48 901 C-48 859.667 -86.3333 825 -149 809 L-149 774 L-169 774 L-169 819 Z " /></g></glyph>
<glyph glyph-name="uni1EC4" unicode="&#x1ec4;" horiz-adv-x="609" >
<path fill="black" d="M577 230 C568.333 158.667 564 93.3333 564 34 L564 0 C506 2 428.667 3 332 3 C202 3 105.333 2 42 0 L42 21 C113.145 24.8457 123 34.4401 123 107 L123 601 C123 673.56 113.145 683.154 42 687 L42 708 C105.333 706 202 705 332 705 C420.667 705 484.667 706 524 708 C522 656 526.333 596 537 528 L513 528 C477.443 652.45 446.196 684 369 684 L297 684 C226.8 684 216 673.433 216 601 L216 367 L311 367 C344.333 367 366.667 376.833 378 396.5 C400.667 435.833 401.333 484.667 404 498 L428 498 C426 470 425 438.667 425 404 L425 356 C425 326.667 427 279.333 431 214 L407 214 C406.333 218.667 404.5 234.667 401.5 262 C395.5 316.667 364.333 345 311 345 L216 345 L216 107 C216 34.5667 226.8 24 297 24 L330 24 C462.833 26.6667 504.167 65.3333 553 230 L577 230 Z " /><g transform="translate(545,0)" ><path fill="black" d="M-419 772 C-367.667 800 -311 841.333 -249 896 L-230 896 C-172 845.333 -115.333 804.667 -60 774 L-66 759 C-124.667 773.667 -205.667 800 -259 820 C-321 791.333 -372 770.667 -412 758 L-419 772 Z " /></g><g transform="translate(511,190)" ><path fill="black" d="M-384 773 C-378.667 842.333 -341.333 882 -284 882 C-250.667 882 -225 871 -181 851 C-147.667 833.667 -126.667 825 -104 825 C-72.6667 825 -51.6667 844.667 -41 884 L-25 880 C-31.6667 812 -67.6667 771 -125 771 C-158.333 771 -185.667 782 -227 802 C-261.667 819.333 -283.333 828 -306 828 C-338 828 -357.333 811.333 -368 770 L-384 773 Z " /></g></glyph>
<glyph glyph-name="Edieresis" unicode="&#xcb;" horiz-adv-x="609" >
<path fill="black" d="M577 230 C568.333 158.667 564 93.3333 564 34 L564 0 C506 2 428.667 3 332 3 C202 3 105.333 2 42 0 L42 21 C113.145 24.8457 123 34.4401 123 107 L123 601 C123 673.56 113.145 683.154 42 687 L42 708 C105.333 706 202 705 332 705 C420.667 705 484.667 706 524 708 C522 656 526.333 596 537 528 L513 528 C477.443 652.45 446.196 684 369 684 L297 684 C226.8 684 216 673.433 216 601 L216 367 L311 367 C344.333 367 366.667 376.833 378 396.5 C400.667 435.833 401.333 484.667 404 498 L428 498 C426 470 425 438.667 425 404 L425 356 C425 326.667 427 279.333 431 214 L407 214 C406.333 218.667 404.5 234.667 401.5 262 C395.5 316.667 364.333 345 311 345 L216 345 L216 107 C216 34.5667 226.8 24 297 24 L330 24 C462.833 26.6667 504.167 65.3333 553 230 L577 230 Z " /><g transform="translate(532,0)" ><path fill="black" d="M-332 772 C-364 772 -390 798 -390 830 C-390 860.667 -364 888 -332 888 C-301.333 888 -274 860.667 -274 830 C-274 798 -301.333 772 -332 772 Z M-120 772 C-152 772 -178 798 -178 830 C-178 860.667 -152 888 -120 888 C-89.3333 888 -62 860.667 -62 830 C-62 798 -89.3333 772 -120 772 Z " /></g></glyph>
<glyph glyph-name="Edotaccent" unicode="&#x116;" horiz-adv-x="609" >
<path fill="black" d="M577 230 C568.333 158.667 564 93.3333 564 34 L564 0 C506 2 428.667 3 332 3 C202 3 105.333 2 42 0 L42 21 C113.145 24.8457 123 34.4401 123 107 L123 601 C123 673.56 113.145 683.154 42 687 L42 708 C105.333 706 202 705 332 705 C420.667 705 484.667 706 524 708 C522 656 526.333 596 537 528 L513 528 C477.443 652.45 446.196 684 369 684 L297 684 C226.8 684 216 673.433 216 601 L216 367 L311 367 C344.333 367 366.667 376.833 378 396.5 C400.667 435.833 401.333 484.667 404 498 L428 498 C426 470 425 438.667 425 404 L425 356 C425 326.667 427 279.333 431 214 L407 214 C406.333 218.667 404.5 234.667 401.5 262 C395.5 316.667 364.333 345 311 345 L216 345 L216 107 C216 34.5667 226.8 24 297 24 L330 24 C462.833 26.6667 504.167 65.3333 553 230 L577 230 Z " /><g transform="translate(426,0)" ><path fill="black" d="M-120 778 C-152 778 -178 804 -178 836 C-178 868 -152 894 -120 894 C-88 894 -61 868 -61 836 C-61 804 -88 778 -120 778 Z " /></g></glyph>
<glyph glyph-name="uni1EB8" unicode="&#x1eb8;" horiz-adv-x="609" >
<path fill="black" d="M577 230 C568.333 158.667 564 93.3333 564 34 L564 0 C506 2 428.667 3 332 3 C202 3 105.333 2 42 0 L42 21 C113.145 24.8457 123 34.4401 123 107 L123 601 C123 673.56 113.145 683.154 42 687 L42 708 C105.333 706 202 705 332 705 C420.667 705 484.667 706 524 708 C522 656 526.333 596 537 528 L513 528 C477.443 652.45 446.196 684 369 684 L297 684 C226.8 684 216 673.433 216 601 L216 367 L311 367 C344.333 367 366.667 376.833 378 396.5 C400.667 435.833 401.333 484.667 404 498 L428 498 C426 470 425 438.667 425 404 L425 356 C425 326.667 427 279.333 431 214 L407 214 C406.333 218.667 404.5 234.667 401.5 262 C395.5 316.667 364.333 345 311 345 L216 345 L216 107 C216 34.5667 226.8 24 297 24 L330 24 C462.833 26.6667 504.167 65.3333 553 230 L577 230 Z " /><g transform="translate(445,0)" ><path fill="black" d="M-120 -193 C-152 -193 -178 -167 -178 -135 C-178 -103 -152 -77 -120 -77 C-88 -77 -61 -103 -61 -135 C-61 -167 -88 -193 -120 -193 Z " /></g></glyph>
<glyph glyph-name="Egrave" unicode="&#xc8;" horiz-adv-x="609" >
<path fill="black" d="M577 230 C568.333 158.667 564 93.3333 564 34 L564 0 C506 2 428.667 3 332 3 C202 3 105.333 2 42 0 L42 21 C113.145 24.8457 123 34.4401 123 107 L123 601 C123 673.56 113.145 683.154 42 687 L42 708 C105.333 706 202 705 332 705 C420.667 705 484.667 706 524 708 C522 656 526.333 596 537 528 L513 528 C477.443 652.45 446.196 684 369 684 L297 684 C226.8 684 216 673.433 216 601 L216 367 L311 367 C344.333 367 366.667 376.833 378 396.5 C400.667 435.833 401.333 484.667 404 498 L428 498 C426 470 425 438.667 425 404 L425 356 C425 326.667 427 279.333 431 214 L407 214 C406.333 218.667 404.5 234.667 401.5 262 C395.5 316.667 364.333 345 311 345 L216 345 L216 107 C216 34.5667 226.8 24 297 24 L330 24 C462.833 26.6667 504.167 65.3333 553 230 L577 230 Z " /><g transform="translate(393,0)" ><path fill="black" d="M-37 772 C-85 797.333 -135 816.667 -171 830 C-203 842.667 -225.333 852.667 -238 860 C-256 872 -265 885.333 -265 900 C-265 906.667 -263 913 -259 919 C-251 930.333 -240.333 936 -227 936 C-217.667 936 -207.667 932.667 -197 926 C-177 914 -145 885 -137 877 C-103.667 845 -68 814.333 -30 785 L-37 772 Z " /></g></glyph>
<glyph glyph-name="uni1EBA" unicode="&#x1eba;" horiz-adv-x="609" >
<path fill="black" d="M577 230 C568.333 158.667 564 93.3333 564 34 L564 0 C506 2 428.667 3 332 3 C202 3 105.333 2 42 0 L42 21 C113.145 24.8457 123 34.4401 123 107 L123 601 C123 673.56 113.145 683.154 42 687 L42 708 C105.333 706 202 705 332 705 C420.667 705 484.667 706 524 708 C522 656 526.333 596 537 528 L513 528 C477.443 652.45 446.196 684 369 684 L297 684 C226.8 684 216 673.433 216 601 L216 367 L311 367 C344.333 367 366.667 376.833 378 396.5 C400.667 435.833 401.333 484.667 404 498 L428 498 C426 470 425 438.667 425 404 L425 356 C425 326.667 427 279.333 431 214 L407 214 C406.333 218.667 404.5 234.667 401.5 262 C395.5 316.667 364.333 345 311 345 L216 345 L216 107 C216 34.5667 226.8 24 297 24 L330 24 C462.833 26.6667 504.167 65.3333 553 230 L577 230 Z " /><g transform="translate(466,0)" ><path fill="black" d="M-169 819 C-134.333 837.667 -117 863.333 -117 896 C-117 930.667 -136.333 951 -171 951 C-197.667 951 -220 940.333 -220 927 C-220 919 -200 896.333 -200 883 C-200 868.333 -212.667 857 -230 857 C-251.333 857 -265 871.333 -265 894 C-265 938 -213 972 -149 972 C-90.3333 972 -48 942.333 -48 901 C-48 859.667 -86.3333 825 -149 809 L-149 774 L-169 774 L-169 819 Z " /></g></glyph>
<glyph glyph-name="Emacron" unicode="&#x112;" horiz-adv-x="609" >
<path fill="black" d="M577 230 C568.333 158.667 564 93.3333 564 34 L564 0 C506 2 428.667 3 332 3 C202 3 105.333 2 42 0 L42 21 C113.145 24.8457 123 34.4401 123 107 L123 601 C123 673.56 113.145 683.154 42 687 L42 708 C105.333 706 202 705 332 705 C420.667 705 484.667 706 524 708 C522 656 526.333 596 537 528 L513 528 C477.443 652.45 446.196 684 369 684 L297 684 C226.8 684 216 673.433 216 601 L216 367 L311 367 C344.333 367 366.667 376.833 378 396.5 C400.667 435.833 401.333 484.667 404 498 L428 498 C426 470 425 438.667 425 404 L425 356 C425 326.667 427 279.333 431 214 L407 214 C406.333 218.667 404.5 234.667 401.5 262 C395.5 316.667 364.333 345 311 345 L216 345 L216 107 C216 34.5667 226.8 24 297 24 L330 24 C462.833 26.6667 504.167 65.3333 553 230 L577 230 Z " /><g transform="translate(507,0)" ><path fill="black" d="M-377 818 L-377 845 L-25 845 L-25 818 L-377 818 Z " /></g></glyph>
<glyph glyph-name="Eogonek" unicode="&#x118;" horiz-adv-x="609" d="M510 -6 C462 -50 432 -101.333 432 -140 C432 -173.333 449.333 -196 476 -196 C497.333 -196 522 -184 538 -164 L551 -178 C521 -222.667 483.333 -245 438 -245 C391.333 -245 359 -213.667 359 -167 C359 -113.667 408 -55.3333 500 2 C470 2.66667 414 3 332 3 C202 3 105.333 2 42 0 L42 21 C113.145 24.8457 123 34.4401 123 107 L123 601 C123 673.56 113.145 683.154 42 687 L42 708 C105.333 706 202 705 332 705 C420.667 705 484.667 706 524 708 C522 656 526.333 596 537 528 L513 528 C477.443 652.45 446.196 684 369 684 L297 684 C226.8 684 216 673.433 216 601 L216 367 L311 367 C344.333 367 366.667 376.833 378 396.5 C400.667 435.833 401.333 484.667 404 498 L428 498 C426 470 425 438.667 425 404 L425 356 C425 326.667 427 279.333 431 214 L407 214 C406.333 218.667 404.5 234.667 401.5 262 C395.5 316.667 364.333 345 311 345 L216 345 L216 107 C216 34.5667 226.8 24 297 24 L330 24 C462.833 26.6667 504.167 65.3333 553 230 L577 230 C568.333 158.667 564 93.3333 564 34 L564 0 L518 1 C515.333 -0.333333 514 -3.33333 510 -6 Z " />
<glyph glyph-name="uni1EBC" unicode="&#x1ebc;" horiz-adv-x="609" >
<path fill="black" d="M577 230 C568.333 158.667 564 93.3333 564 34 L564 0 C506 2 428.667 3 332 3 C202 3 105.333 2 42 0 L42 21 C113.145 24.8457 123 34.4401 123 107 L123 601 C123 673.56 113.145 683.154 42 687 L42 708 C105.333 706 202 705 332 705 C420.667 705 484.667 706 524 708 C522 656 526.333 596 537 528 L513 528 C477.443 652.45 446.196 684 369 684 L297 684 C226.8 684 216 673.433 216 601 L216 367 L311 367 C344.333 367 366.667 376.833 378 396.5 C400.667 435.833 401.333 484.667 404 498 L428 498 C426 470 425 438.667 425 404 L425 356 C425 326.667 427 279.333 431 214 L407 214 C406.333 218.667 404.5 234.667 401.5 262 C395.5 316.667 364.333 345 311 345 L216 345 L216 107 C216 34.5667 226.8 24 297 24 L330 24 C462.833 26.6667 504.167 65.3333 553 230 L577 230 Z " /><g transform="translate(522,0)" ><path fill="black" d="M-135 782 C-169.667 782 -197 793.333 -237 812 C-282.333 832 -299.667 839 -329 839 C-361 839 -380.333 820.667 -391 778 L-407 781 C-401.667 846.333 -355.667 892 -297 892 C-262.333 892 -236.667 882 -194 862 C-158 844.667 -132.333 835 -103 835 C-72.3333 835 -51.6667 855.333 -41 896 L-25 893 C-30.3333 827.667 -76.3333 782 -135 782 Z " /></g></glyph>
<glyph glyph-name="uni01B7" unicode="&#x1b7;" horiz-adv-x="584" d="M371 391 C487 360.333 551 291 551 195 C551 74.5667 444.617 -14 298 -14 C231.333 -14 189 1.33333 141 24 C135.667 26.6667 112.667 37 102 37 C88.6667 37 82 23.6667 78 -7 L54 -7 C57.3333 47.6667 59 99 59 147 C59 183 58.6667 210.667 58 230 L82 230 C96.6667 91.3333 172.667 5 286 5 C387.333 5 451 77.6667 451 195 C451 305.667 395.333 371.667 286 389 L286 410 L442 684 L233 684 C155.804 684 124.557 652.45 89 528 L65 528 C75.6667 596 80 656 78 708 C126 706 197.333 705 292 705 C380.667 705 463.333 706 540 708 L540 687 L371 391 Z " />
<glyph glyph-name="uni01EE" unicode="&#x1ee;" horiz-adv-x="584" >
<path fill="black" d="M371 391 C487 360.333 551 291 551 195 C551 74.5667 444.617 -14 298 -14 C231.333 -14 189 1.33333 141 24 C135.667 26.6667 112.667 37 102 37 C88.6667 37 82 23.6667 78 -7 L54 -7 C57.3333 47.6667 59 99 59 147 C59 183 58.6667 210.667 58 230 L82 230 C96.6667 91.3333 172.667 5 286 5 C387.333 5 451 77.6667 451 195 C451 305.667 395.333 371.667 286 389 L286 410 L442 684 L233 684 C155.804 684 124.557 652.45 89 528 L65 528 C75.6667 596 80 656 78 708 C126 706 197.333 705 292 705 C380.667 705 463.333 706 540 708 L540 687 L371 391 Z " /><g transform="translate(533,0)" ><path fill="black" d="M-248 773 C-305.333 828.333 -362 873.667 -418 909 L-411 924 C-352.333 905.333 -271.333 874.333 -218 849 C-160.667 881 -109.667 906 -65 924 L-59 909 C-112.333 876.333 -169 831 -229 773 L-248 773 Z " /></g></glyph>
<glyph glyph-name="F" unicode="F" horiz-adv-x="569" d="M524 677 C524 624.333 528.333 568 537 508 L513 508 C477.614 647.576 446.058 684 369 684 L297 684 C226.8 684 216 673.433 216 601 L216 357 L318 357 C351.333 357 373.667 366.833 385 386.5 C407.667 425.833 408.333 474.667 411 488 L435 488 C433 460 432 428.667 432 394 L432 346 C432 307.333 434 260 438 204 L414 204 C413.333 208.667 411.5 224.667 408.5 252 C402.5 306.667 371.333 335 318 335 L216 335 L216 107 C216 34.4013 229.38 24.8942 317 21 L317 0 C289 2 240 3 170 3 C109.333 3 66.6667 2 42 0 L42 21 C113.145 24.8457 123 34.4401 123 107 L123 601 C123 673.56 113.145 683.154 42 687 L42 708 C102.667 706 199.333 705 332 705 C420.667 705 484.667 706 524 708 L524 677 Z " />
<glyph glyph-name="G" unicode="G" horiz-adv-x="702" d="M357 -14 C188.167 -16.75 50.0833 121.5 53 340 C50.4167 570.083 185.833 725.167 367 722 C445.667 722 494.667 697.667 544 663 C549.333 660.333 566 647 574 647 C586.667 647 595 669.667 599 715 L623 715 C619.667 650.333 618 595.667 618 551 L619 477 L595 477 C572.333 626.333 486.667 703 372 703 C230.667 703 153 572.333 153 339 C153 142.867 237.817 7 371 7 C412.333 7 448.167 15.3333 478.5 32 C508.833 48.6667 524 72.6667 524 104 L524 188 C524 268.795 511.897 279.172 443 283 L443 304 C473 302 513.333 301 564 301 C609.333 301 644 302 668 304 L668 283 C622.68 279.059 617 271.886 617 197 L617 -7 L596 -7 C594.667 23.6667 584.333 57 567 57 C559 57 547.333 49 534 41 C484.667 9 438.333 -14 357 -14 Z " />
<glyph glyph-name="uni01F4" unicode="&#x1f4;" horiz-adv-x="702" >
<path fill="black" d="M357 -14 C188.167 -16.75 50.0833 121.5 53 340 C50.4167 570.083 185.833 725.167 367 722 C445.667 722 494.667 697.667 544 663 C549.333 660.333 566 647 574 647 C586.667 647 595 669.667 599 715 L623 715 C619.667 650.333 618 595.667 618 551 L619 477 L595 477 C572.333 626.333 486.667 703 372 703 C230.667 703 153 572.333 153 339 C153 142.867 237.817 7 371 7 C412.333 7 448.167 15.3333 478.5 32 C508.833 48.6667 524 72.6667 524 104 L524 188 C524 268.795 511.897 279.172 443 283 L443 304 C473 302 513.333 301 564 301 C609.333 301 644 302 668 304 L668 283 C622.68 279.059 617 271.886 617 197 L617 -7 L596 -7 C594.667 23.6667 584.333 57 567 57 C559 57 547.333 49 534 41 C484.667 9 438.333 -14 357 -14 Z " /><g transform="translate(567,0)" ><path fill="black" d="M-265 785 C-231 811 -194.667 841.667 -156 877 C-133.333 898.333 -113 916.667 -97 926 C-86.3333 932.667 -76.3333 936 -67 936 C-54.3333 936 -44 930.333 -36 919 C-32 913 -30 906.667 -30 900 C-30 885.333 -39 872 -57 860 C-69.6667 852.667 -92 842.667 -124 830 C-160 816.667 -210 797.333 -258 772 L-265 785 Z " /></g></glyph>
<glyph glyph-name="Gbreve" unicode="&#x11e;" horiz-adv-x="702" >
<path fill="black" d="M357 -14 C188.167 -16.75 50.0833 121.5 53 340 C50.4167 570.083 185.833 725.167 367 722 C445.667 722 494.667 697.667 544 663 C549.333 660.333 566 647 574 647 C586.667 647 595 669.667 599 715 L623 715 C619.667 650.333 618 595.667 618 551 L619 477 L595 477 C572.333 626.333 486.667 703 372 703 C230.667 703 153 572.333 153 339 C153 142.867 237.817 7 371 7 C412.333 7 448.167 15.3333 478.5 32 C508.833 48.6667 524 72.6667 524 104 L524 188 C524 268.795 511.897 279.172 443 283 L443 304 C473 302 513.333 301 564 301 C609.333 301 644 302 668 304 L668 283 C622.68 279.059 617 271.886 617 197 L617 -7 L596 -7 C594.667 23.6667 584.333 57 567 57 C559 57 547.333 49 534 41 C484.667 9 438.333 -14 357 -14 Z " /><g transform="translate(612,0)" ><path fill="black" d="M-252 782 C-337.333 782 -411.333 832.333 -450 915 L-438 924 C-394 870.667 -332.333 844 -253 844 C-175.667 844 -107.667 873.333 -65 924 L-51 915 C-89.6667 832.333 -165.333 782 -252 782 Z " /></g></glyph>
<glyph glyph-name="Gcaron" unicode="&#x1e6;" horiz-adv-x="702" >
<path fill="black" d="M357 -14 C188.167 -16.75 50.0833 121.5 53 340 C50.4167 570.083 185.833 725.167 367 722 C445.667 722 494.667 697.667 544 663 C549.333 660.333 566 647 574 647 C586.667 647 595 669.667 599 715 L623 715 C619.667 650.333 618 595.667 618 551 L619 477 L595 477 C572.333 626.333 486.667 703 372 703 C230.667 703 153 572.333 153 339 C153 142.867 237.817 7 371 7 C412.333 7 448.167 15.3333 478.5 32 C508.833 48.6667 524 72.6667 524 104 L524 188 C524 268.795 511.897 279.172 443 283 L443 304 C473 302 513.333 301 564 301 C609.333 301 644 302 668 304 L668 283 C622.68 279.059 617 271.886 617 197 L617 -7 L596 -7 C594.667 23.6667 584.333 57 567 57 C559 57 547.333 49 534 41 C484.667 9 438.333 -14 357 -14 Z " /><g transform="translate(598,0)" ><path fill="black" d="M-248 773 C-305.333 828.333 -362 873.667 -418 909 L-411 924 C-352.333 905.333 -271.333 874.333 -218 849 C-160.667 881 -109.667 906 -65 924 L-59 909 C-112.333 876.333 -169 831 -229 773 L-248 773 Z " /></g></glyph>
<glyph glyph-name="Gcircumflex" unicode="&#x11c;" horiz-adv-x="702" >
<path fill="black" d="M357 -14 C188.167 -16.75 50.0833 121.5 53 340 C50.4167 570.083 185.833 725.167 367 722 C445.667 722 494.667 697.667 544 663 C549.333 660.333 566 647 574 647 C586.667 647 595 669.667 599 715 L623 715 C619.667 650.333 618 595.667 618 551 L619 477 L595 477 C572.333 626.333 486.667 703 372 703 C230.667 703 153 572.333 153 339 C153 142.867 237.817 7 371 7 C412.333 7 448.167 15.3333 478.5 32 C508.833 48.6667 524 72.6667 524 104 L524 188 C524 268.795 511.897 279.172 443 283 L443 304 C473 302 513.333 301 564 301 C609.333 301 644 302 668 304 L668 283 C622.68 279.059 617 271.886 617 197 L617 -7 L596 -7 C594.667 23.6667 584.333 57 567 57 C559 57 547.333 49 534 41 C484.667 9 438.333 -14 357 -14 Z " /><g transform="translate(599,0)" ><path fill="black" d="M-419 788 C-365.667 820.667 -309 866 -249 924 L-230 924 C-175.333 870 -118.667 824.667 -60 788 L-66 773 C-124.667 791.667 -205.667 822.667 -259 848 C-316.333 816 -367.333 791 -412 773 L-419 788 Z " /></g></glyph>
<glyph glyph-name="uni0122" unicode="&#x122;" horiz-adv-x="702" >
<path fill="black" d="M357 -14 C188.167 -16.75 50.0833 121.5 53 340 C50.4167 570.083 185.833 725.167 367 722 C445.667 722 494.667 697.667 544 663 C549.333 660.333 566 647 574 647 C586.667 647 595 669.667 599 715 L623 715 C619.667 650.333 618 595.667 618 551 L619 477 L595 477 C572.333 626.333 486.667 703 372 703 C230.667 703 153 572.333 153 339 C153 142.867 237.817 7 371 7 C412.333 7 448.167 15.3333 478.5 32 C508.833 48.6667 524 72.6667 524 104 L524 188 C524 268.795 511.897 279.172 443 283 L443 304 C473 302 513.333 301 564 301 C609.333 301 644 302 668 304 L668 283 C622.68 279.059 617 271.886 617 197 L617 -7 L596 -7 C594.667 23.6667 584.333 57 567 57 C559 57 547.333 49 534 41 C484.667 9 438.333 -14 357 -14 Z " /><g transform="translate(506,0)" ><path fill="black" d="M-177 -230 C-129.667 -218.667 -106 -203.333 -106 -184 C-106 -177.333 -109.333 -174 -116 -174 C-121.333 -174 -139.333 -184 -154 -184 C-179.333 -184 -198 -165 -198 -137 C-198 -102.333 -170.333 -77 -133 -77 C-91.6667 -77 -62 -107.333 -62 -150 C-62 -198.667 -97.6667 -231.667 -169 -249 L-177 -230 Z " /></g></glyph>
<glyph glyph-name="Gdotaccent" unicode="&#x120;" horiz-adv-x="702" >
<path fill="black" d="M357 -14 C188.167 -16.75 50.0833 121.5 53 340 C50.4167 570.083 185.833 725.167 367 722 C445.667 722 494.667 697.667 544 663 C549.333 660.333 566 647 574 647 C586.667 647 595 669.667 599 715 L623 715 C619.667 650.333 618 595.667 618 551 L619 477 L595 477 C572.333 626.333 486.667 703 372 703 C230.667 703 153 572.333 153 339 C153 142.867 237.817 7 371 7 C412.333 7 448.167 15.3333 478.5 32 C508.833 48.6667 524 72.6667 524 104 L524 188 C524 268.795 511.897 279.172 443 283 L443 304 C473 302 513.333 301 564 301 C609.333 301 644 302 668 304 L668 283 C622.68 279.059 617 271.886 617 197 L617 -7 L596 -7 C594.667 23.6667 584.333 57 567 57 C559 57 547.333 49 534 41 C484.667 9 438.333 -14 357 -14 Z " /><g transform="translate(480,0)" ><path fill="black" d="M-120 778 C-152 778 -178 804 -178 836 C-178 868 -152 894 -120 894 C-88 894 -61 868 -61 836 C-61 804 -88 778 -120 778 Z " /></g></glyph>
<glyph glyph-name="uni01E4" unicode="&#x1e4;" horiz-adv-x="702" d="M702 168 L617 168 L617 -7 L596 -7 C594.667 23.6667 585 57 569 57 C561 57 549.333 49.3333 536 40 C492 8 450.667 -14 380 -14 C175.5 -14 53 119.517 53 342 C50.5 569.917 191.25 725.083 374 722 C452.667 722 500.333 696.667 547 662 C560.333 652 569.333 647 574 647 C586.667 647 595 669.667 599 715 L623 715 C620.333 670.333 619 591.333 619 478 L595 478 C581.667 626 489.333 703 372 703 C239.5 703 153 565.633 153 353 C153 114.333 227.333 7 390 7 C462 7 524 41.6667 524 103 L524 168 L407 168 L407 189 L524 189 L524 209 C524 289.838 508.371 300.12 423 304 L423 325 C458.333 323 505.333 322 564 322 C609.333 322 644 323 668 325 L668 304 C622.68 300.059 617 292.886 617 218 L617 189 L702 189 L702 168 Z " />
<glyph glyph-name="H" unicode="H" horiz-adv-x="757" d="M715 687 C644.755 683.097 634 675.855 634 601 L634 107 C634 32.1447 644.755 24.9025 715 21 L715 0 C687 2 644.333 3 587 3 C533 3 490.667 2 460 0 L460 21 C530.245 24.9025 541 32.1447 541 107 L541 345 L216 345 L216 107 C216 32.1447 226.755 24.9025 297 21 L297 0 C266.333 2 224 3 170 3 C112.667 3 70 2 42 0 L42 21 C112.245 24.9025 123 32.1447 123 107 L123 601 C123 675.855 112.245 683.097 42 687 L42 708 C70 706 112.667 705 170 705 C223.333 705 265.667 706 297 708 L297 687 C226.755 683.097 216 675.855 216 601 L216 367 L541 367 L541 601 C541 675.855 530.245 683.097 460 687 L460 708 C490.667 706 533 705 587 705 C644.333 705 687 706 715 708 L715 687 Z " />
<glyph glyph-name="Hbar" unicode="&#x126;" horiz-adv-x="757" d="M634 503 L634 107 C634 32.1447 644.755 24.9025 715 21 L715 0 C687 2 644.333 3 587 3 C533 3 490.667 2 460 0 L460 21 C530.245 24.9025 541 32.1447 541 107 L541 345 L216 345 L216 107 C216 32.1447 226.755 24.9025 297 21 L297 0 C266.333 2 224 3 170 3 C112.667 3 70 2 42 0 L42 21 C112.245 24.9025 123 32.1447 123 107 L123 503 L32 503 L32 525 L123 525 L123 601 C123 675.855 112.245 683.097 42 687 L42 708 C70 706 112.667 705 170 705 C223.333 705 265.667 706 297 708 L297 687 C226.755 683.097 216 675.855 216 601 L216 525 L541 525 L541 601 C541 675.855 530.245 683.097 460 687 L460 708 C490.667 706 533 705 587 705 C644.333 705 687 706 715 708 L715 687 C644.755 683.097 634 675.855 634 601 L634 525 L725 525 L725 503 L634 503 Z M541 367 L541 503 L216 503 L216 367 L541 367 Z " />
<glyph glyph-name="uni021E" unicode="&#x21e;" horiz-adv-x="757" >
<path fill="black" d="M715 687 C644.755 683.097 634 675.855 634 601 L634 107 C634 32.1447 644.755 24.9025 715 21 L715 0 C687 2 644.333 3 587 3 C533 3 490.667 2 460 0 L460 21 C530.245 24.9025 541 32.1447 541 107 L541 345 L216 345 L216 107 C216 32.1447 226.755 24.9025 297 21 L297 0 C266.333 2 224 3 170 3 C112.667 3 70 2 42 0 L42 21 C112.245 24.9025 123 32.1447 123 107 L123 601 C123 675.855 112.245 683.097 42 687 L42 708 C70 706 112.667 705 170 705 C223.333 705 265.667 706 297 708 L297 687 C226.755 683.097 216 675.855 216 601 L216 367 L541 367 L541 601 C541 675.855 530.245 683.097 460 687 L460 708 C490.667 706 533 705 587 705 C644.333 705 687 706 715 708 L715 687 Z " /><g transform="translate(619,0)" ><path fill="black" d="M-248 773 C-305.333 828.333 -362 873.667 -418 909 L-411 924 C-352.333 905.333 -271.333 874.333 -218 849 C-160.667 881 -109.667 906 -65 924 L-59 909 C-112.333 876.333 -169 831 -229 773 L-248 773 Z " /></g></glyph>
<glyph glyph-name="Hcircumflex" unicode="&#x124;" horiz-adv-x="757" >
<path fill="black" d="M715 687 C644.755 683.097 634 675.855 634 601 L634 107 C634 32.1447 644.755 24.9025 715 21 L715 0 C687 2 644.333 3 587 3 C533 3 490.667 2 460 0 L460 21 C530.245 24.9025 541 32.1447 541 107 L541 345 L216 345 L216 107 C216 32.1447 226.755 24.9025 297 21 L297 0 C266.333 2 224 3 170 3 C112.667 3 70 2 42 0 L42 21 C112.245 24.9025 123 32.1447 123 107 L123 601 C123 675.855 112.245 683.097 42 687 L42 708 C70 706 112.667 705 170 705 C223.333 705 265.667 706 297 708 L297 687 C226.755 683.097 216 675.855 216 601 L216 367 L541 367 L541 601 C541 675.855 530.245 683.097 460 687 L460 708 C490.667 706 533 705 587 705 C644.333 705 687 706 715 708 L715 687 Z " /><g transform="translate(620,0)" ><path fill="black" d="M-419 788 C-365.667 820.667 -309 866 -249 924 L-230 924 C-175.333 870 -118.667 824.667 -60 788 L-66 773 C-124.667 791.667 -205.667 822.667 -259 848 C-316.333 816 -367.333 791 -412 773 L-419 788 Z " /></g></glyph>
<glyph glyph-name="I" unicode="I" horiz-adv-x="339" d="M42 21 C112.245 24.9025 123 32.1447 123 107 L123 601 C123 675.855 112.245 683.097 42 687 L42 708 C70 706 112.667 705 170 705 C223.333 705 265.667 706 297 708 L297 687 C226.755 683.097 216 675.855 216 601 L216 107 C216 32.1447 226.755 24.9025 297 21 L297 0 C266.333 2 224 3 170 3 C112.667 3 70 2 42 0 L42 21 Z " />
<glyph glyph-name="IJ" unicode="&#x132;" horiz-adv-x="647" >
<path fill="black" d="M42 21 C112.245 24.9025 123 32.1447 123 107 L123 601 C123 675.855 112.245 683.097 42 687 L42 708 C70 706 112.667 705 170 705 C223.333 705 265.667 706 297 708 L297 687 C226.755 683.097 216 675.855 216 601 L216 107 C216 32.1447 226.755 24.9025 297 21 L297 0 C266.333 2 224 3 170 3 C112.667 3 70 2 42 0 L42 21 Z " /><g transform="translate(321,0)" ><path fill="black" d="M-40 -219 C82.7363 -211.082 117 -152.768 117 23 L117 601 C117 673.607 106.056 683.095 26 687 L26 708 C52 706 97.3333 705 162 705 C220.667 705 263.667 706 291 708 L291 687 C219.855 683.154 210 673.56 210 601 L210 66 C210 -143.633 145.567 -239 -40 -239 L-40 -219 Z " /></g></glyph>
<glyph glyph-name="Iacute" unicode="&#xcd;" horiz-adv-x="339" >
<path fill="black" d="M42 21 C112.245 24.9025 123 32.1447 123 107 L123 601 C123 675.855 112.245 683.097 42 687 L42 708 C70 706 112.667 705 170 705 C223.333 705 265.667 706 297 708 L297 687 C226.755 683.097 216 675.855 216 601 L216 107 C216 32.1447 226.755 24.9025 297 21 L297 0 C266.333 2 224 3 170 3 C112.667 3 70 2 42 0 L42 21 Z " /><g transform="translate(378,0)" ><path fill="black" d="M-265 785 C-231 811 -194.667 841.667 -156 877 C-133.333 898.333 -113 916.667 -97 926 C-86.3333 932.667 -76.3333 936 -67 936 C-54.3333 936 -44 930.333 -36 919 C-32 913 -30 906.667 -30 900 C-30 885.333 -39 872 -57 860 C-69.6667 852.667 -92 842.667 -124 830 C-160 816.667 -210 797.333 -258 772 L-265 785 Z " /></g></glyph>
<glyph glyph-name="Ibreve" unicode="&#x12c;" horiz-adv-x="339" >
<path fill="black" d="M42 21 C112.245 24.9025 123 32.1447 123 107 L123 601 C123 675.855 112.245 683.097 42 687 L42 708 C70 706 112.667 705 170 705 C223.333 705 265.667 706 297 708 L297 687 C226.755 683.097 216 675.855 216 601 L216 107 C216 32.1447 226.755 24.9025 297 21 L297 0 C266.333 2 224 3 170 3 C112.667 3 70 2 42 0 L42 21 Z " /><g transform="translate(422,0)" ><path fill="black" d="M-252 782 C-337.333 782 -411.333 832.333 -450 915 L-438 924 C-394 870.667 -332.333 844 -253 844 C-175.667 844 -107.667 873.333 -65 924 L-51 915 C-89.6667 832.333 -165.333 782 -252 782 Z " /></g></glyph>
<glyph glyph-name="Icircumflex" unicode="&#xce;" horiz-adv-x="339" >
<path fill="black" d="M42 21 C112.245 24.9025 123 32.1447 123 107 L123 601 C123 675.855 112.245 683.097 42 687 L42 708 C70 706 112.667 705 170 705 C223.333 705 265.667 706 297 708 L297 687 C226.755 683.097 216 675.855 216 601 L216 107 C216 32.1447 226.755 24.9025 297 21 L297 0 C266.333 2 224 3 170 3 C112.667 3 70 2 42 0 L42 21 Z " /><g transform="translate(409,0)" ><path fill="black" d="M-419 788 C-365.667 820.667 -309 866 -249 924 L-230 924 C-175.333 870 -118.667 824.667 -60 788 L-66 773 C-124.667 791.667 -205.667 822.667 -259 848 C-316.333 816 -367.333 791 -412 773 L-419 788 Z " /></g></glyph>
<glyph glyph-name="Idieresis" unicode="&#xcf;" horiz-adv-x="339" >
<path fill="black" d="M42 21 C112.245 24.9025 123 32.1447 123 107 L123 601 C123 675.855 112.245 683.097 42 687 L42 708 C70 706 112.667 705 170 705 C223.333 705 265.667 706 297 708 L297 687 C226.755 683.097 216 675.855 216 601 L216 107 C216 32.1447 226.755 24.9025 297 21 L297 0 C266.333 2 224 3 170 3 C112.667 3 70 2 42 0 L42 21 Z " /><g transform="translate(396,0)" ><path fill="black" d="M-332 772 C-364 772 -390 798 -390 830 C-390 860.667 -364 888 -332 888 C-301.333 888 -274 860.667 -274 830 C-274 798 -301.333 772 -332 772 Z M-120 772 C-152 772 -178 798 -178 830 C-178 860.667 -152 888 -120 888 C-89.3333 888 -62 860.667 -62 830 C-62 798 -89.3333 772 -120 772 Z " /></g></glyph>
<glyph glyph-name="Idotaccent" unicode="&#x130;" horiz-adv-x="339" >
<path fill="black" d="M42 21 C112.245 24.9025 123 32.1447 123 107 L123 601 C123 675.855 112.245 683.097 42 687 L42 708 C70 706 112.667 705 170 705 C223.333 705 265.667 706 297 708 L297 687 C226.755 683.097 216 675.855 216 601 L216 107 C216 32.1447 226.755 24.9025 297 21 L297 0 C266.333 2 224 3 170 3 C112.667 3 70 2 42 0 L42 21 Z " /><g transform="translate(290,0)" ><path fill="black" d="M-120 778 C-152 778 -178 804 -178 836 C-178 868 -152 894 -120 894 C-88 894 -61 868 -61 836 C-61 804 -88 778 -120 778 Z " /></g></glyph>
<glyph glyph-name="uni1ECA" unicode="&#x1eca;" horiz-adv-x="339" >
<path fill="black" d="M42 21 C112.245 24.9025 123 32.1447 123 107 L123 601 C123 675.855 112.245 683.097 42 687 L42 708 C70 706 112.667 705 170 705 C223.333 705 265.667 706 297 708 L297 687 C226.755 683.097 216 675.855 216 601 L216 107 C216 32.1447 226.755 24.9025 297 21 L297 0 C266.333 2 224 3 170 3 C112.667 3 70 2 42 0 L42 21 Z " /><g transform="translate(290,0)" ><path fill="black" d="M-120 -193 C-152 -193 -178 -167 -178 -135 C-178 -103 -152 -77 -120 -77 C-88 -77 -61 -103 -61 -135 C-61 -167 -88 -193 -120 -193 Z " /></g></glyph>
<glyph glyph-name="Igrave" unicode="&#xcc;" horiz-adv-x="339" >
<path fill="black" d="M42 21 C112.245 24.9025 123 32.1447 123 107 L123 601 C123 675.855 112.245 683.097 42 687 L42 708 C70 706 112.667 705 170 705 C223.333 705 265.667 706 297 708 L297 687 C226.755 683.097 216 675.855 216 601 L216 107 C216 32.1447 226.755 24.9025 297 21 L297 0 C266.333 2 224 3 170 3 C112.667 3 70 2 42 0 L42 21 Z " /><g transform="translate(257,0)" ><path fill="black" d="M-37 772 C-85 797.333 -135 816.667 -171 830 C-203 842.667 -225.333 852.667 -238 860 C-256 872 -265 885.333 -265 900 C-265 906.667 -263 913 -259 919 C-251 930.333 -240.333 936 -227 936 C-217.667 936 -207.667 932.667 -197 926 C-177 914 -145 885 -137 877 C-103.667 845 -68 814.333 -30 785 L-37 772 Z " /></g></glyph>
<glyph glyph-name="uni1EC8" unicode="&#x1ec8;" horiz-adv-x="339" >
<path fill="black" d="M42 21 C112.245 24.9025 123 32.1447 123 107 L123 601 C123 675.855 112.245 683.097 42 687 L42 708 C70 706 112.667 705 170 705 C223.333 705 265.667 706 297 708 L297 687 C226.755 683.097 216 675.855 216 601 L216 107 C216 32.1447 226.755 24.9025 297 21 L297 0 C266.333 2 224 3 170 3 C112.667 3 70 2 42 0 L42 21 Z " /><g transform="translate(330,0)" ><path fill="black" d="M-169 819 C-134.333 837.667 -117 863.333 -117 896 C-117 930.667 -136.333 951 -171 951 C-197.667 951 -220 940.333 -220 927 C-220 919 -200 896.333 -200 883 C-200 868.333 -212.667 857 -230 857 C-251.333 857 -265 871.333 -265 894 C-265 938 -213 972 -149 972 C-90.3333 972 -48 942.333 -48 901 C-48 859.667 -86.3333 825 -149 809 L-149 774 L-169 774 L-169 819 Z " /></g></glyph>
<glyph glyph-name="Imacron" unicode="&#x12a;" horiz-adv-x="339" >
<path fill="black" d="M42 21 C112.245 24.9025 123 32.1447 123 107 L123 601 C123 675.855 112.245 683.097 42 687 L42 708 C70 706 112.667 705 170 705 C223.333 705 265.667 706 297 708 L297 687 C226.755 683.097 216 675.855 216 601 L216 107 C216 32.1447 226.755 24.9025 297 21 L297 0 C266.333 2 224 3 170 3 C112.667 3 70 2 42 0 L42 21 Z " /><g transform="translate(371,0)" ><path fill="black" d="M-377 818 L-377 845 L-25 845 L-25 818 L-377 818 Z " /></g></glyph>
<glyph glyph-name="Iogonek" unicode="&#x12e;" horiz-adv-x="339" d="M297 687 C226.755 683.097 216 675.855 216 601 L216 107 C216 32.1447 226.755 24.9025 297 21 L297 0 L265 2 L256 -6 C208 -50 178 -101.333 178 -140 C178 -173.333 195.333 -196 222 -196 C243.333 -196 268 -184 284 -164 L297 -178 C267 -222.667 229.333 -245 184 -245 C137.333 -245 105 -213.667 105 -167 C105 -112.333 153.667 -54 247 2 C231 2.66667 205.333 3 170 3 C112.667 3 70 2 42 0 L42 21 C112.245 24.9025 123 32.1447 123 107 L123 601 C123 675.855 112.245 683.097 42 687 L42 708 C70 706 112.667 705 170 705 C223.333 705 265.667 706 297 708 L297 687 Z " />
<glyph glyph-name="Itilde" unicode="&#x128;" horiz-adv-x="339" >
<path fill="black" d="M42 21 C112.245 24.9025 123 32.1447 123 107 L123 601 C123 675.855 112.245 683.097 42 687 L42 708 C70 706 112.667 705 170 705 C223.333 705 265.667 706 297 708 L297 687 C226.755 683.097 216 675.855 216 601 L216 107 C216 32.1447 226.755 24.9025 297 21 L297 0 C266.333 2 224 3 170 3 C112.667 3 70 2 42 0 L42 21 Z " /><g transform="translate(386,0)" ><path fill="black" d="M-135 782 C-169.667 782 -197 793.333 -237 812 C-282.333 832 -299.667 839 -329 839 C-361 839 -380.333 820.667 -391 778 L-407 781 C-401.667 846.333 -355.667 892 -297 892 C-262.333 892 -236.667 882 -194 862 C-158 844.667 -132.333 835 -103 835 C-72.3333 835 -51.6667 855.333 -41 896 L-25 893 C-30.3333 827.667 -76.3333 782 -135 782 Z " /></g></glyph>
<glyph glyph-name="J" unicode="J" horiz-adv-x="326" d="M-40 -219 C82.7363 -211.082 117 -152.768 117 23 L117 601 C117 673.607 106.056 683.095 26 687 L26 708 C52 706 97.3333 705 162 705 C220.667 705 263.667 706 291 708 L291 687 C219.855 683.154 210 673.56 210 601 L210 66 C210 -143.633 145.567 -239 -40 -239 L-40 -219 Z " />
<glyph glyph-name="Jcircumflex" unicode="&#x134;" horiz-adv-x="326" >
<path fill="black" d="M-40 -219 C82.7363 -211.082 117 -152.768 117 23 L117 601 C117 673.607 106.056 683.095 26 687 L26 708 C52 706 97.3333 705 162 705 C220.667 705 263.667 706 291 708 L291 687 C219.855 683.154 210 673.56 210 601 L210 66 C210 -143.633 145.567 -239 -40 -239 L-40 -219 Z " /><g transform="translate(403,0)" ><path fill="black" d="M-419 788 C-365.667 820.667 -309 866 -249 924 L-230 924 C-175.333 870 -118.667 824.667 -60 788 L-66 773 C-124.667 791.667 -205.667 822.667 -259 848 C-316.333 816 -367.333 791 -412 773 L-419 788 Z " /></g></glyph>
<glyph glyph-name="K" unicode="K" horiz-adv-x="655" d="M567 98 C583 52.6667 606.333 31.6667 657 21 L657 0 C634.333 2 597.667 3 547 3 C513 3 480.333 2 449 0 L449 21 C474.333 22.3333 487 28 487 44 C487 48.6667 485.333 56 482 66 L438 187 C394 304.333 334.667 354.333 216 345 L216 107 C216 32.1447 226.755 24.9025 297 21 L297 0 C266.333 2 224 3 170 3 C112.667 3 70 2 42 0 L42 21 C112.245 24.9025 123 32.1447 123 107 L123 601 C123 675.855 112.245 683.097 42 687 L42 708 C70 706 112.667 705 170 705 C223.333 705 265.667 706 297 708 L297 687 C226.755 683.097 216 675.855 216 601 L216 366 C247.333 367.333 271.167 372.667 287.5 382 C303.833 391.333 323.333 410.667 346 440 L426 544 C463.333 593.333 484 622.333 484 649 C484 673.667 461 686.333 415 687 L415 708 C453 706 491.333 705 530 705 C566.667 705 595 706 615 708 L615 687 C567 676.333 533 647.333 497 602 L333 392 C387.667 380.667 429.167 359.833 457.5 329.5 C485.833 299.167 510 256 530 200 L567 98 Z " />
<glyph glyph-name="uni01E8" unicode="&#x1e8;" horiz-adv-x="655" >
<path fill="black" d="M567 98 C583 52.6667 606.333 31.6667 657 21 L657 0 C634.333 2 597.667 3 547 3 C513 3 480.333 2 449 0 L449 21 C474.333 22.3333 487 28 487 44 C487 48.6667 485.333 56 482 66 L438 187 C394 304.333 334.667 354.333 216 345 L216 107 C216 32.1447 226.755 24.9025 297 21 L297 0 C266.333 2 224 3 170 3 C112.667 3 70 2 42 0 L42 21 C112.245 24.9025 123 32.1447 123 107 L123 601 C123 675.855 112.245 683.097 42 687 L42 708 C70 706 112.667 705 170 705 C223.333 705 265.667 706 297 708 L297 687 C226.755 683.097 216 675.855 216 601 L216 366 C247.333 367.333 271.167 372.667 287.5 382 C303.833 391.333 323.333 410.667 346 440 L426 544 C463.333 593.333 484 622.333 484 649 C484 673.667 461 686.333 415 687 L415 708 C453 706 491.333 705 530 705 C566.667 705 595 706 615 708 L615 687 C567 676.333 533 647.333 497 602 L333 392 C387.667 380.667 429.167 359.833 457.5 329.5 C485.833 299.167 510 256 530 200 L567 98 Z " /><g transform="translate(573,0)" ><path fill="black" d="M-248 773 C-305.333 828.333 -362 873.667 -418 909 L-411 924 C-352.333 905.333 -271.333 874.333 -218 849 C-160.667 881 -109.667 906 -65 924 L-59 909 C-112.333 876.333 -169 831 -229 773 L-248 773 Z " /></g></glyph>
<glyph glyph-name="uni0136" unicode="&#x136;" horiz-adv-x="655" >
<path fill="black" d="M567 98 C583 52.6667 606.333 31.6667 657 21 L657 0 C634.333 2 597.667 3 547 3 C513 3 480.333 2 449 0 L449 21 C474.333 22.3333 487 28 487 44 C487 48.6667 485.333 56 482 66 L438 187 C394 304.333 334.667 354.333 216 345 L216 107 C216 32.1447 226.755 24.9025 297 21 L297 0 C266.333 2 224 3 170 3 C112.667 3 70 2 42 0 L42 21 C112.245 24.9025 123 32.1447 123 107 L123 601 C123 675.855 112.245 683.097 42 687 L42 708 C70 706 112.667 705 170 705 C223.333 705 265.667 706 297 708 L297 687 C226.755 683.097 216 675.855 216 601 L216 366 C247.333 367.333 271.167 372.667 287.5 382 C303.833 391.333 323.333 410.667 346 440 L426 544 C463.333 593.333 484 622.333 484 649 C484 673.667 461 686.333 415 687 L415 708 C453 706 491.333 705 530 705 C566.667 705 595 706 615 708 L615 687 C567 676.333 533 647.333 497 602 L333 392 C387.667 380.667 429.167 359.833 457.5 329.5 C485.833 299.167 510 256 530 200 L567 98 Z " /><g transform="translate(482,0)" ><path fill="black" d="M-177 -230 C-129.667 -218.667 -106 -203.333 -106 -184 C-106 -177.333 -109.333 -174 -116 -174 C-121.333 -174 -139.333 -184 -154 -184 C-179.333 -184 -198 -165 -198 -137 C-198 -102.333 -170.333 -77 -133 -77 C-91.6667 -77 -62 -107.333 -62 -150 C-62 -198.667 -97.6667 -231.667 -169 -249 L-177 -230 Z " /></g></glyph>
<glyph glyph-name="L" unicode="L" horiz-adv-x="588" d="M42 21 C113.145 24.8457 123 34.4401 123 107 L123 601 C123 673.56 113.145 683.154 42 687 L42 708 C68 706 110.667 705 170 705 C226.667 705 269 706 297 708 L297 687 C225.855 683.154 216 673.56 216 601 L216 107 C216 34.5667 226.8 24 297 24 L330 24 C462.833 26.6667 504.167 65.3333 553 230 L577 230 C568.333 158.667 564 93.3333 564 34 L564 0 C506 2 428.667 3 332 3 C202 3 105.333 2 42 0 L42 21 Z " />
<glyph glyph-name="Lacute" unicode="&#x139;" horiz-adv-x="588" >
<path fill="black" d="M42 21 C113.145 24.8457 123 34.4401 123 107 L123 601 C123 673.56 113.145 683.154 42 687 L42 708 C68 706 110.667 705 170 705 C226.667 705 269 706 297 708 L297 687 C225.855 683.154 216 673.56 216 601 L216 107 C216 34.5667 226.8 24 297 24 L330 24 C462.833 26.6667 504.167 65.3333 553 230 L577 230 C568.333 158.667 564 93.3333 564 34 L564 0 C506 2 428.667 3 332 3 C202 3 105.333 2 42 0 L42 21 Z " /><g transform="translate(378,0)" ><path fill="black" d="M-265 785 C-231 811 -194.667 841.667 -156 877 C-133.333 898.333 -113 916.667 -97 926 C-86.3333 932.667 -76.3333 936 -67 936 C-54.3333 936 -44 930.333 -36 919 C-32 913 -30 906.667 -30 900 C-30 885.333 -39 872 -57 860 C-69.6667 852.667 -92 842.667 -124 830 C-160 816.667 -210 797.333 -258 772 L-265 785 Z " /></g></glyph>
<glyph glyph-name="Lcaron" unicode="&#x13d;" horiz-adv-x="588" d="M375 482 C388.333 566 395 620.667 395 646 C395 674 388.667 686 366 686 L366 708 C376.667 706.667 390.333 706 407 706 C430.333 706 452 708.667 472 714 C475.333 706 477 694 477 678 C477 658.667 470.667 635.167 458 607.5 C445.333 579.833 422.667 536.667 390 478 L375 482 Z M42 21 C113.145 24.8457 123 34.4401 123 107 L123 601 C123 673.56 113.145 683.154 42 687 L42 708 C68 706 110.667 705 170 705 C226.667 705 269 706 297 708 L297 687 C225.855 683.154 216 673.56 216 601 L216 107 C216 34.5667 226.8 24 297 24 L330 24 C462.833 26.6667 504.167 65.3333 553 230 L577 230 C568.333 158.667 564 93.3333 564 34 L564 0 C506 2 428.667 3 332 3 C202 3 105.333 2 42 0 L42 21 Z " />
<glyph glyph-name="uni013B" unicode="&#x13b;" horiz-adv-x="588" >
<path fill="black" d="M42 21 C113.145 24.8457 123 34.4401 123 107 L123 601 C123 673.56 113.145 683.154 42 687 L42 708 C68 706 110.667 705 170 705 C226.667 705 269 706 297 708 L297 687 C225.855 683.154 216 673.56 216 601 L216 107 C216 34.5667 226.8 24 297 24 L330 24 C462.833 26.6667 504.167 65.3333 553 230 L577 230 C568.333 158.667 564 93.3333 564 34 L564 0 C506 2 428.667 3 332 3 C202 3 105.333 2 42 0 L42 21 Z " /><g transform="translate(448,0)" ><path fill="black" d="M-177 -230 C-129.667 -218.667 -106 -203.333 -106 -184 C-106 -177.333 -109.333 -174 -116 -174 C-121.333 -174 -139.333 -184 -154 -184 C-179.333 -184 -198 -165 -198 -137 C-198 -102.333 -170.333 -77 -133 -77 C-91.6667 -77 -62 -107.333 -62 -150 C-62 -198.667 -97.6667 -231.667 -169 -249 L-177 -230 Z " /></g></glyph>
<glyph glyph-name="Ldot" unicode="&#x13f;" horiz-adv-x="588" >
<path fill="black" d="M42 21 C113.145 24.8457 123 34.4401 123 107 L123 601 C123 673.56 113.145 683.154 42 687 L42 708 C68 706 110.667 705 170 705 C226.667 705 269 706 297 708 L297 687 C225.855 683.154 216 673.56 216 601 L216 107 C216 34.5667 226.8 24 297 24 L330 24 C462.833 26.6667 504.167 65.3333 553 230 L577 230 C568.333 158.667 564 93.3333 564 34 L564 0 C506 2 428.667 3 332 3 C202 3 105.333 2 42 0 L42 21 Z " /><g transform="translate(337,384)" ><path fill="black" d="M126 -14 C91.3333 -14 62 15.3333 62 50 C62 84.6667 91.3333 115 126 115 C160.667 115 190 84.6667 190 50 C190 15.3333 160.667 -14 126 -14 Z " /></g></glyph>
<glyph glyph-name="Lslash" unicode="&#x141;" horiz-adv-x="588" d="M577 230 C568.333 158.667 564 93.3333 564 34 L564 0 C506 2 428.667 3 332 3 C202 3 105.333 2 42 0 L42 21 C113.145 24.8457 123 34.4401 123 107 L123 267 L22 209 L22 234 L123 292 L123 601 C123 673.56 113.145 683.154 42 687 L42 708 C68 706 110.667 705 170 705 C226.667 705 269 706 297 708 L297 687 C225.855 683.154 216 673.56 216 601 L216 336 L453 474 L453 449 L216 311 L216 107 C216 34.5667 226.8 24 297 24 L330 24 C462.833 26.6667 504.167 65.3333 553 230 L577 230 Z " />
<glyph glyph-name="M" unicode="M" horiz-adv-x="871" d="M829 687 C758.755 683.097 748 675.855 748 601 L748 107 C748 32.1447 758.755 24.9025 829 21 L829 0 C798.333 2 756 3 702 3 C644.667 3 602 2 574 0 L574 21 C644.245 24.9025 655 32.1447 655 107 L655 640 L415 -5 L398 -5 L147 643 L147 117 C147 41.2835 158.838 24.9581 238 21 L238 0 C214 2 180 3 136 3 C95.3333 3 64 2 42 0 L42 21 C111.337 24.9621 123 42.1803 123 117 L123 601 C123 675.855 112.245 683.097 42 687 L42 708 C64 706 95 705 135 705 C168.333 705 195.667 706 217 708 L440 129 L655 707 C676.333 705.667 698.667 705 722 705 C767.333 705 803 706 829 708 L829 687 Z " />
<glyph glyph-name="N" unicode="N" horiz-adv-x="706" d="M147 642 L147 117 C147 41.2835 158.838 24.9581 238 21 L238 0 C214 2 180 3 136 3 C95.3333 3 64 2 42 0 L42 21 C111.337 24.9621 123 42.1803 123 117 L123 601 C123 675.855 112.245 683.097 42 687 L42 708 C64 706 95 705 135 705 C167.667 705 196 706 220 708 L565 174 L565 591 C565 666.716 553.162 683.042 474 687 L474 708 C498 706 532 705 576 705 C616.667 705 648 706 670 708 L670 687 C600.663 683.038 589 665.82 589 591 L589 -5 L565 -5 L147 642 Z " />
<glyph glyph-name="Nacute" unicode="&#x143;" horiz-adv-x="706" >
<path fill="black" d="M147 642 L147 117 C147 41.2835 158.838 24.9581 238 21 L238 0 C214 2 180 3 136 3 C95.3333 3 64 2 42 0 L42 21 C111.337 24.9621 123 42.1803 123 117 L123 601 C123 675.855 112.245 683.097 42 687 L42 708 C64 706 95 705 135 705 C167.667 705 196 706 220 708 L565 174 L565 591 C565 666.716 553.162 683.042 474 687 L474 708 C498 706 532 705 576 705 C616.667 705 648 706 670 708 L670 687 C600.663 683.038 589 665.82 589 591 L589 -5 L565 -5 L147 642 Z " /><g transform="translate(582,0)" ><path fill="black" d="M-265 785 C-231 811 -194.667 841.667 -156 877 C-133.333 898.333 -113 916.667 -97 926 C-86.3333 932.667 -76.3333 936 -67 936 C-54.3333 936 -44 930.333 -36 919 C-32 913 -30 906.667 -30 900 C-30 885.333 -39 872 -57 860 C-69.6667 852.667 -92 842.667 -124 830 C-160 816.667 -210 797.333 -258 772 L-265 785 Z " /></g></glyph>
<glyph glyph-name="Ncaron" unicode="&#x147;" horiz-adv-x="706" >
<path fill="black" d="M147 642 L147 117 C147 41.2835 158.838 24.9581 238 21 L238 0 C214 2 180 3 136 3 C95.3333 3 64 2 42 0 L42 21 C111.337 24.9621 123 42.1803 123 117 L123 601 C123 675.855 112.245 683.097 42 687 L42 708 C64 706 95 705 135 705 C167.667 705 196 706 220 708 L565 174 L565 591 C565 666.716 553.162 683.042 474 687 L474 708 C498 706 532 705 576 705 C616.667 705 648 706 670 708 L670 687 C600.663 683.038 589 665.82 589 591 L589 -5 L565 -5 L147 642 Z " /><g transform="translate(612,0)" ><path fill="black" d="M-248 773 C-305.333 828.333 -362 873.667 -418 909 L-411 924 C-352.333 905.333 -271.333 874.333 -218 849 C-160.667 881 -109.667 906 -65 924 L-59 909 C-112.333 876.333 -169 831 -229 773 L-248 773 Z " /></g></glyph>
<glyph glyph-name="uni0145" unicode="&#x145;" horiz-adv-x="706" >
<path fill="black" d="M147 642 L147 117 C147 41.2835 158.838 24.9581 238 21 L238 0 C214 2 180 3 136 3 C95.3333 3 64 2 42 0 L42 21 C111.337 24.9621 123 42.1803 123 117 L123 601 C123 675.855 112.245 683.097 42 687 L42 708 C64 706 95 705 135 705 C167.667 705 196 706 220 708 L565 174 L565 591 C565 666.716 553.162 683.042 474 687 L474 708 C498 706 532 705 576 705 C616.667 705 648 706 670 708 L670 687 C600.663 683.038 589 665.82 589 591 L589 -5 L565 -5 L147 642 Z " /><g transform="translate(497,0)" ><path fill="black" d="M-177 -230 C-129.667 -218.667 -106 -203.333 -106 -184 C-106 -177.333 -109.333 -174 -116 -174 C-121.333 -174 -139.333 -184 -154 -184 C-179.333 -184 -198 -165 -198 -137 C-198 -102.333 -170.333 -77 -133 -77 C-91.6667 -77 -62 -107.333 -62 -150 C-62 -198.667 -97.6667 -231.667 -169 -249 L-177 -230 Z " /></g></glyph>
<glyph glyph-name="Eng" unicode="&#x14a;" horiz-adv-x="706" d="M576 705 C616.667 705 648 706 670 708 L670 687 C600.663 683.038 589 665.82 589 591 L589 -61 C589 -183.667 545.667 -239 447 -239 C379 -239 327 -200.333 327 -151 C327 -119 348.333 -96 379 -96 C404.333 -96 423 -112.333 423 -135 C423 -149.667 417 -159.333 405 -174 C397 -184.667 393 -192.333 393 -197 C393 -210.333 414 -220 446 -220 C528.667 -220 565 -170.667 565 -60 L565 -5 L147 642 L147 117 C147 41.2835 158.838 24.9581 238 21 L238 0 C214 2 180 3 136 3 C95.3333 3 64 2 42 0 L42 21 C111.337 24.9621 123 42.1803 123 117 L123 601 C123 675.855 112.245 683.097 42 687 L42 708 C64 706 95 705 135 705 C167.667 705 196 706 220 708 L565 174 L565 591 C565 666.716 553.162 683.042 474 687 L474 708 C498 706 532 705 576 705 Z " />
<glyph glyph-name="Ntilde" unicode="&#xd1;" horiz-adv-x="706" >
<path fill="black" d="M147 642 L147 117 C147 41.2835 158.838 24.9581 238 21 L238 0 C214 2 180 3 136 3 C95.3333 3 64 2 42 0 L42 21 C111.337 24.9621 123 42.1803 123 117 L123 601 C123 675.855 112.245 683.097 42 687 L42 708 C64 706 95 705 135 705 C167.667 705 196 706 220 708 L565 174 L565 591 C565 666.716 553.162 683.042 474 687 L474 708 C498 706 532 705 576 705 C616.667 705 648 706 670 708 L670 687 C600.663 683.038 589 665.82 589 591 L589 -5 L565 -5 L147 642 Z " /><g transform="translate(590,0)" ><path fill="black" d="M-135 782 C-169.667 782 -197 793.333 -237 812 C-282.333 832 -299.667 839 -329 839 C-361 839 -380.333 820.667 -391 778 L-407 781 C-401.667 846.333 -355.667 892 -297 892 C-262.333 892 -236.667 882 -194 862 C-158 844.667 -132.333 835 -103 835 C-72.3333 835 -51.6667 855.333 -41 896 L-25 893 C-30.3333 827.667 -76.3333 782 -135 782 Z " /></g></glyph>
<glyph glyph-name="O" unicode="O" horiz-adv-x="741" d="M370 -14 C179.817 -14 53 121.067 53 348 C53 569.433 185.55 722 371 722 C561.183 722 688 586.933 688 360 C688 138.567 555.45 -14 370 -14 Z M374 5 C502.717 5 588 150.35 588 356 C588 563.933 490.483 703 367 703 C238.283 703 153 557.65 153 352 C153 144.067 250.517 5 374 5 Z " />
<glyph glyph-name="Oacute" unicode="&#xd3;" horiz-adv-x="741" >
<path fill="black" d="M370 -14 C179.817 -14 53 121.067 53 348 C53 569.433 185.55 722 371 722 C561.183 722 688 586.933 688 360 C688 138.567 555.45 -14 370 -14 Z M374 5 C502.717 5 588 150.35 588 356 C588 563.933 490.483 703 367 703 C238.283 703 153 557.65 153 352 C153 144.067 250.517 5 374 5 Z " /><g transform="translate(577,0)" ><path fill="black" d="M-265 785 C-231 811 -194.667 841.667 -156 877 C-133.333 898.333 -113 916.667 -97 926 C-86.3333 932.667 -76.3333 936 -67 936 C-54.3333 936 -44 930.333 -36 919 C-32 913 -30 906.667 -30 900 C-30 885.333 -39 872 -57 860 C-69.6667 852.667 -92 842.667 -124 830 C-160 816.667 -210 797.333 -258 772 L-265 785 Z " /></g></glyph>
<glyph glyph-name="Obreve" unicode="&#x14e;" horiz-adv-x="741" >
<path fill="black" d="M370 -14 C179.817 -14 53 121.067 53 348 C53 569.433 185.55 722 371 722 C561.183 722 688 586.933 688 360 C688 138.567 555.45 -14 370 -14 Z M374 5 C502.717 5 588 150.35 588 356 C588 563.933 490.483 703 367 703 C238.283 703 153 557.65 153 352 C153 144.067 250.517 5 374 5 Z " /><g transform="translate(621,0)" ><path fill="black" d="M-252 782 C-337.333 782 -411.333 832.333 -450 915 L-438 924 C-394 870.667 -332.333 844 -253 844 C-175.667 844 -107.667 873.333 -65 924 L-51 915 C-89.6667 832.333 -165.333 782 -252 782 Z " /></g></glyph>
<glyph glyph-name="Ocircumflex" unicode="&#xd4;" horiz-adv-x="741" >
<path fill="black" d="M370 -14 C179.817 -14 53 121.067 53 348 C53 569.433 185.55 722 371 722 C561.183 722 688 586.933 688 360 C688 138.567 555.45 -14 370 -14 Z M374 5 C502.717 5 588 150.35 588 356 C588 563.933 490.483 703 367 703 C238.283 703 153 557.65 153 352 C153 144.067 250.517 5 374 5 Z " /><g transform="translate(608,0)" ><path fill="black" d="M-419 788 C-365.667 820.667 -309 866 -249 924 L-230 924 C-175.333 870 -118.667 824.667 -60 788 L-66 773 C-124.667 791.667 -205.667 822.667 -259 848 C-316.333 816 -367.333 791 -412 773 L-419 788 Z " /></g></glyph>
<glyph glyph-name="uni1ED0" unicode="&#x1ed0;" horiz-adv-x="741" >
<path fill="black" d="M370 -14 C179.817 -14 53 121.067 53 348 C53 569.433 185.55 722 371 722 C561.183 722 688 586.933 688 360 C688 138.567 555.45 -14 370 -14 Z M374 5 C502.717 5 588 150.35 588 356 C588 563.933 490.483 703 367 703 C238.283 703 153 557.65 153 352 C153 144.067 250.517 5 374 5 Z " /><g transform="translate(608,0)" ><path fill="black" d="M-419 772 C-367.667 800 -311 841.333 -249 896 L-230 896 C-172 845.333 -115.333 804.667 -60 774 L-66 759 C-124.667 773.667 -205.667 800 -259 820 C-321 791.333 -372 770.667 -412 758 L-419 772 Z " /></g><g transform="translate(632,98)" ><path fill="black" d="M-156 808 C-136 845.333 -117.333 886.333 -112 897 C-100 923.667 -91 941.333 -85 950 C-73.6667 965.333 -61 973 -47 973 C-39 973 -31.6667 970.333 -25 965 C-15.6667 959 -11 949.333 -11 936 C-11 925.333 -15.6667 914.333 -25 903 C-35 892.333 -49.3333 879.667 -68 865 C-95.3333 843.667 -121 821.667 -145 799 L-156 808 Z " /></g></glyph>
<glyph glyph-name="uni1ED8" unicode="&#x1ed8;" horiz-adv-x="741" >
<path fill="black" d="M370 -14 C179.817 -14 53 121.067 53 348 C53 569.433 185.55 722 371 722 C561.183 722 688 586.933 688 360 C688 138.567 555.45 -14 370 -14 Z M374 5 C502.717 5 588 150.35 588 356 C588 563.933 490.483 703 367 703 C238.283 703 153 557.65 153 352 C153 144.067 250.517 5 374 5 Z " /><g transform="translate(608,0)" ><path fill="black" d="M-419 788 C-365.667 820.667 -309 866 -249 924 L-230 924 C-175.333 870 -118.667 824.667 -60 788 L-66 773 C-124.667 791.667 -205.667 822.667 -259 848 C-316.333 816 -367.333 791 -412 773 L-419 788 Z " /></g><g transform="translate(492,0)" ><path fill="black" d="M-120 -193 C-152 -193 -178 -167 -178 -135 C-178 -103 -152 -77 -120 -77 C-88 -77 -61 -103 -61 -135 C-61 -167 -88 -193 -120 -193 Z " /></g></glyph>
<glyph glyph-name="uni1ED2" unicode="&#x1ed2;" horiz-adv-x="741" >
<path fill="black" d="M370 -14 C179.817 -14 53 121.067 53 348 C53 569.433 185.55 722 371 722 C561.183 722 688 586.933 688 360 C688 138.567 555.45 -14 370 -14 Z M374 5 C502.717 5 588 150.35 588 356 C588 563.933 490.483 703 367 703 C238.283 703 153 557.65 153 352 C153 144.067 250.517 5 374 5 Z " /><g transform="translate(608,0)" ><path fill="black" d="M-419 772 C-367.667 800 -311 841.333 -249 896 L-230 896 C-172 845.333 -115.333 804.667 -60 774 L-66 759 C-124.667 773.667 -205.667 800 -259 820 C-321 791.333 -372 770.667 -412 758 L-419 772 Z " /></g><g transform="translate(313,98)" ><path fill="black" d="M-62 799 C-86 821.667 -111.667 843.667 -139 865 C-157.667 879.667 -172 892.333 -182 903 C-191.333 913 -196 924 -196 936 C-196 947.333 -191.333 957 -182 965 C-175.333 970.333 -168 973 -160 973 C-145.333 973 -132.333 965.333 -121 950 C-115 941.333 -106 923.667 -94 897 C-88.6667 886.333 -70 845.333 -50 808 L-62 799 Z " /></g></glyph>
<glyph glyph-name="uni1ED4" unicode="&#x1ed4;" horiz-adv-x="741" >
<path fill="black" d="M370 -14 C179.817 -14 53 121.067 53 348 C53 569.433 185.55 722 371 722 C561.183 722 688 586.933 688 360 C688 138.567 555.45 -14 370 -14 Z M374 5 C502.717 5 588 150.35 588 356 C588 563.933 490.483 703 367 703 C238.283 703 153 557.65 153 352 C153 144.067 250.517 5 374 5 Z " /><g transform="translate(608,0)" ><path fill="black" d="M-419 772 C-367.667 800 -311 841.333 -249 896 L-230 896 C-172 845.333 -115.333 804.667 -60 774 L-66 759 C-124.667 773.667 -205.667 800 -259 820 C-321 791.333 -372 770.667 -412 758 L-419 772 Z " /></g><g transform="translate(664,99)" ><path fill="black" d="M-169 819 C-134.333 837.667 -117 863.333 -117 896 C-117 930.667 -136.333 951 -171 951 C-197.667 951 -220 940.333 -220 927 C-220 919 -200 896.333 -200 883 C-200 868.333 -212.667 857 -230 857 C-251.333 857 -265 871.333 -265 894 C-265 938 -213 972 -149 972 C-90.3333 972 -48 942.333 -48 901 C-48 859.667 -86.3333 825 -149 809 L-149 774 L-169 774 L-169 819 Z " /></g></glyph>
<glyph glyph-name="uni1ED6" unicode="&#x1ed6;" horiz-adv-x="741" >
<path fill="black" d="M370 -14 C179.817 -14 53 121.067 53 348 C53 569.433 185.55 722 371 722 C561.183 722 688 586.933 688 360 C688 138.567 555.45 -14 370 -14 Z M374 5 C502.717 5 588 150.35 588 356 C588 563.933 490.483 703 367 703 C238.283 703 153 557.65 153 352 C153 144.067 250.517 5 374 5 Z " /><g transform="translate(608,0)" ><path fill="black" d="M-419 772 C-367.667 800 -311 841.333 -249 896 L-230 896 C-172 845.333 -115.333 804.667 -60 774 L-66 759 C-124.667 773.667 -205.667 800 -259 820 C-321 791.333 -372 770.667 -412 758 L-419 772 Z " /></g><g transform="translate(574,190)" ><path fill="black" d="M-384 773 C-378.667 842.333 -341.333 882 -284 882 C-250.667 882 -225 871 -181 851 C-147.667 833.667 -126.667 825 -104 825 C-72.6667 825 -51.6667 844.667 -41 884 L-25 880 C-31.6667 812 -67.6667 771 -125 771 C-158.333 771 -185.667 782 -227 802 C-261.667 819.333 -283.333 828 -306 828 C-338 828 -357.333 811.333 -368 770 L-384 773 Z " /></g></glyph>
<glyph glyph-name="Odieresis" unicode="&#xd6;" horiz-adv-x="741" >
<path fill="black" d="M370 -14 C179.817 -14 53 121.067 53 348 C53 569.433 185.55 722 371 722 C561.183 722 688 586.933 688 360 C688 138.567 555.45 -14 370 -14 Z M374 5 C502.717 5 588 150.35 588 356 C588 563.933 490.483 703 367 703 C238.283 703 153 557.65 153 352 C153 144.067 250.517 5 374 5 Z " /><g transform="translate(595,0)" ><path fill="black" d="M-332 772 C-364 772 -390 798 -390 830 C-390 860.667 -364 888 -332 888 C-301.333 888 -274 860.667 -274 830 C-274 798 -301.333 772 -332 772 Z M-120 772 C-152 772 -178 798 -178 830 C-178 860.667 -152 888 -120 888 C-89.3333 888 -62 860.667 -62 830 C-62 798 -89.3333 772 -120 772 Z " /></g></glyph>
<glyph glyph-name="uni1ECC" unicode="&#x1ecc;" horiz-adv-x="741" >
<path fill="black" d="M370 -14 C179.817 -14 53 121.067 53 348 C53 569.433 185.55 722 371 722 C561.183 722 688 586.933 688 360 C688 138.567 555.45 -14 370 -14 Z M374 5 C502.717 5 588 150.35 588 356 C588 563.933 490.483 703 367 703 C238.283 703 153 557.65 153 352 C153 144.067 250.517 5 374 5 Z " /><g transform="translate(492,0)" ><path fill="black" d="M-120 -193 C-152 -193 -178 -167 -178 -135 C-178 -103 -152 -77 -120 -77 C-88 -77 -61 -103 -61 -135 C-61 -167 -88 -193 -120 -193 Z " /></g></glyph>
<glyph glyph-name="Ograve" unicode="&#xd2;" horiz-adv-x="741" >
<path fill="black" d="M370 -14 C179.817 -14 53 121.067 53 348 C53 569.433 185.55 722 371 722 C561.183 722 688 586.933 688 360 C688 138.567 555.45 -14 370 -14 Z M374 5 C502.717 5 588 150.35 588 356 C588 563.933 490.483 703 367 703 C238.283 703 153 557.65 153 352 C153 144.067 250.517 5 374 5 Z " /><g transform="translate(456,0)" ><path fill="black" d="M-37 772 C-85 797.333 -135 816.667 -171 830 C-203 842.667 -225.333 852.667 -238 860 C-256 872 -265 885.333 -265 900 C-265 906.667 -263 913 -259 919 C-251 930.333 -240.333 936 -227 936 C-217.667 936 -207.667 932.667 -197 926 C-177 914 -145 885 -137 877 C-103.667 845 -68 814.333 -30 785 L-37 772 Z " /></g></glyph>
<glyph glyph-name="uni1ECE" unicode="&#x1ece;" horiz-adv-x="741" >
<path fill="black" d="M370 -14 C179.817 -14 53 121.067 53 348 C53 569.433 185.55 722 371 722 C561.183 722 688 586.933 688 360 C688 138.567 555.45 -14 370 -14 Z M374 5 C502.717 5 588 150.35 588 356 C588 563.933 490.483 703 367 703 C238.283 703 153 557.65 153 352 C153 144.067 250.517 5 374 5 Z " /><g transform="translate(529,0)" ><path fill="black" d="M-169 819 C-134.333 837.667 -117 863.333 -117 896 C-117 930.667 -136.333 951 -171 951 C-197.667 951 -220 940.333 -220 927 C-220 919 -200 896.333 -200 883 C-200 868.333 -212.667 857 -230 857 C-251.333 857 -265 871.333 -265 894 C-265 938 -213 972 -149 972 C-90.3333 972 -48 942.333 -48 901 C-48 859.667 -86.3333 825 -149 809 L-149 774 L-169 774 L-169 819 Z " /></g></glyph>
<glyph glyph-name="Ohorn" unicode="&#x1a0;" horiz-adv-x="741" d="M537 679 C633 621.667 688 510.667 688 360 C688 138.567 555.45 -14 370 -14 C179.817 -14 53 121.067 53 348 C53 569.433 185.55 722 371 722 C415 722 456.333 714.667 495 700 C512.333 698 531.667 697 553 697 C602.333 697 632 709 632 729 C632 741 627 750.333 615 765 C601.667 783.667 594 794 594 810 C594 835.333 615 854 643 854 C677.667 854 700 826.667 700 784 C700 717.333 642 679 550 679 L537 679 Z M374 5 C502.717 5 588 150.35 588 356 C588 563.933 490.483 703 367 703 C238.283 703 153 557.65 153 352 C153 144.067 250.517 5 374 5 Z " />
<glyph glyph-name="uni1EDA" unicode="&#x1eda;" horiz-adv-x="741" >
<path fill="black" d="M537 679 C633 621.667 688 510.667 688 360 C688 138.567 555.45 -14 370 -14 C179.817 -14 53 121.067 53 348 C53 569.433 185.55 722 371 722 C415 722 456.333 714.667 495 700 C512.333 698 531.667 697 553 697 C602.333 697 632 709 632 729 C632 741 627 750.333 615 765 C601.667 783.667 594 794 594 810 C594 835.333 615 854 643 854 C677.667 854 700 826.667 700 784 C700 717.333 642 679 550 679 L537 679 Z M374 5 C502.717 5 588 150.35 588 356 C588 563.933 490.483 703 367 703 C238.283 703 153 557.65 153 352 C153 144.067 250.517 5 374 5 Z " /><g transform="translate(577,0)" ><path fill="black" d="M-265 785 C-231 811 -194.667 841.667 -156 877 C-133.333 898.333 -113 916.667 -97 926 C-86.3333 932.667 -76.3333 936 -67 936 C-54.3333 936 -44 930.333 -36 919 C-32 913 -30 906.667 -30 900 C-30 885.333 -39 872 -57 860 C-69.6667 852.667 -92 842.667 -124 830 C-160 816.667 -210 797.333 -258 772 L-265 785 Z " /></g></glyph>
<glyph glyph-name="uni1EE2" unicode="&#x1ee2;" horiz-adv-x="741" >
<path fill="black" d="M537 679 C633 621.667 688 510.667 688 360 C688 138.567 555.45 -14 370 -14 C179.817 -14 53 121.067 53 348 C53 569.433 185.55 722 371 722 C415 722 456.333 714.667 495 700 C512.333 698 531.667 697 553 697 C602.333 697 632 709 632 729 C632 741 627 750.333 615 765 C601.667 783.667 594 794 594 810 C594 835.333 615 854 643 854 C677.667 854 700 826.667 700 784 C700 717.333 642 679 550 679 L537 679 Z M374 5 C502.717 5 588 150.35 588 356 C588 563.933 490.483 703 367 703 C238.283 703 153 557.65 153 352 C153 144.067 250.517 5 374 5 Z " /><g transform="translate(492,0)" ><path fill="black" d="M-120 -193 C-152 -193 -178 -167 -178 -135 C-178 -103 -152 -77 -120 -77 C-88 -77 -61 -103 -61 -135 C-61 -167 -88 -193 -120 -193 Z " /></g></glyph>
<glyph glyph-name="uni1EDC" unicode="&#x1edc;" horiz-adv-x="741" >
<path fill="black" d="M537 679 C633 621.667 688 510.667 688 360 C688 138.567 555.45 -14 370 -14 C179.817 -14 53 121.067 53 348 C53 569.433 185.55 722 371 722 C415 722 456.333 714.667 495 700 C512.333 698 531.667 697 553 697 C602.333 697 632 709 632 729 C632 741 627 750.333 615 765 C601.667 783.667 594 794 594 810 C594 835.333 615 854 643 854 C677.667 854 700 826.667 700 784 C700 717.333 642 679 550 679 L537 679 Z M374 5 C502.717 5 588 150.35 588 356 C588 563.933 490.483 703 367 703 C238.283 703 153 557.65 153 352 C153 144.067 250.517 5 374 5 Z " /><g transform="translate(456,0)" ><path fill="black" d="M-37 772 C-85 797.333 -135 816.667 -171 830 C-203 842.667 -225.333 852.667 -238 860 C-256 872 -265 885.333 -265 900 C-265 906.667 -263 913 -259 919 C-251 930.333 -240.333 936 -227 936 C-217.667 936 -207.667 932.667 -197 926 C-177 914 -145 885 -137 877 C-103.667 845 -68 814.333 -30 785 L-37 772 Z " /></g></glyph>
<glyph glyph-name="uni1EDE" unicode="&#x1ede;" horiz-adv-x="741" >
<path fill="black" d="M537 679 C633 621.667 688 510.667 688 360 C688 138.567 555.45 -14 370 -14 C179.817 -14 53 121.067 53 348 C53 569.433 185.55 722 371 722 C415 722 456.333 714.667 495 700 C512.333 698 531.667 697 553 697 C602.333 697 632 709 632 729 C632 741 627 750.333 615 765 C601.667 783.667 594 794 594 810 C594 835.333 615 854 643 854 C677.667 854 700 826.667 700 784 C700 717.333 642 679 550 679 L537 679 Z M374 5 C502.717 5 588 150.35 588 356 C588 563.933 490.483 703 367 703 C238.283 703 153 557.65 153 352 C153 144.067 250.517 5 374 5 Z " /><g transform="translate(529,0)" ><path fill="black" d="M-169 819 C-134.333 837.667 -117 863.333 -117 896 C-117 930.667 -136.333 951 -171 951 C-197.667 951 -220 940.333 -220 927 C-220 919 -200 896.333 -200 883 C-200 868.333 -212.667 857 -230 857 C-251.333 857 -265 871.333 -265 894 C-265 938 -213 972 -149 972 C-90.3333 972 -48 942.333 -48 901 C-48 859.667 -86.3333 825 -149 809 L-149 774 L-169 774 L-169 819 Z " /></g></glyph>
<glyph glyph-name="uni1EE0" unicode="&#x1ee0;" horiz-adv-x="741" >
<path fill="black" d="M537 679 C633 621.667 688 510.667 688 360 C688 138.567 555.45 -14 370 -14 C179.817 -14 53 121.067 53 348 C53 569.433 185.55 722 371 722 C415 722 456.333 714.667 495 700 C512.333 698 531.667 697 553 697 C602.333 697 632 709 632 729 C632 741 627 750.333 615 765 C601.667 783.667 594 794 594 810 C594 835.333 615 854 643 854 C677.667 854 700 826.667 700 784 C700 717.333 642 679 550 679 L537 679 Z M374 5 C502.717 5 588 150.35 588 356 C588 563.933 490.483 703 367 703 C238.283 703 153 557.65 153 352 C153 144.067 250.517 5 374 5 Z " /><g transform="translate(574,0)" ><path fill="black" d="M-384 773 C-378.667 842.333 -341.333 882 -284 882 C-250.667 882 -225 871 -181 851 C-147.667 833.667 -126.667 825 -104 825 C-72.6667 825 -51.6667 844.667 -41 884 L-25 880 C-31.6667 812 -67.6667 771 -125 771 C-158.333 771 -185.667 782 -227 802 C-261.667 819.333 -283.333 828 -306 828 C-338 828 -357.333 811.333 -368 770 L-384 773 Z " /></g></glyph>
<glyph glyph-name="Ohungarumlaut" unicode="&#x150;" horiz-adv-x="741" >
<path fill="black" d="M370 -14 C179.817 -14 53 121.067 53 348 C53 569.433 185.55 722 371 722 C561.183 722 688 586.933 688 360 C688 138.567 555.45 -14 370 -14 Z M374 5 C502.717 5 588 150.35 588 356 C588 563.933 490.483 703 367 703 C238.283 703 153 557.65 153 352 C153 144.067 250.517 5 374 5 Z " /><g transform="translate(606,0)" ><path fill="black" d="M-386 784 C-365.333 804.667 -345.333 828.667 -326 856 C-323.333 859.333 -315.833 868.667 -303.5 884 C-291.167 899.333 -279.333 912 -268 922 C-256 932 -244.667 937 -234 937 C-223.333 937 -214.333 932.667 -207 924 C-201 917.333 -198 909.333 -198 900 C-198 886 -205 873.333 -219 862 C-231.667 851.333 -256 837.333 -292 820 C-332 799.333 -360.333 783.333 -377 772 L-386 784 Z M-198 784 C-182 800 -162 824 -138 856 C-119.333 881.333 -98.3333 907.333 -81 922 C-69 932 -57.3333 937 -46 937 C-35.3333 937 -26.3333 932.667 -19 924 C-13 917.333 -10 909.667 -10 901 C-10 887 -17 874 -31 862 C-43 852 -67 838 -103 820 C-141.667 800.667 -170.333 784.667 -189 772 L-198 784 Z " /></g></glyph>
<glyph glyph-name="Omacron" unicode="&#x14c;" horiz-adv-x="741" >
<path fill="black" d="M370 -14 C179.817 -14 53 121.067 53 348 C53 569.433 185.55 722 371 722 C561.183 722 688 586.933 688 360 C688 138.567 555.45 -14 370 -14 Z M374 5 C502.717 5 588 150.35 588 356 C588 563.933 490.483 703 367 703 C238.283 703 153 557.65 153 352 C153 144.067 250.517 5 374 5 Z " /><g transform="translate(570,0)" ><path fill="black" d="M-377 818 L-377 845 L-25 845 L-25 818 L-377 818 Z " /></g></glyph>
<glyph glyph-name="Oslash" unicode="&#xd8;" horiz-adv-x="741" d="M584 644 C650.667 581.333 688 484 688 360 C688 138.567 555.45 -14 370 -14 C293.333 -14 228.667 6.66667 176 48 L96 -69 L76 -55 L157 64 C90.3333 126.667 53 224 53 348 C53 569.433 185.55 722 371 722 C449 722 513.667 701.333 565 660 L646 777 L666 764 L584 644 Z M367 703 C238.283 703 153 557.65 153 352 C153 260 170 183.333 204 122 L524 609 C484 669 428.333 703 367 703 Z M374 5 C502.717 5 588 150.35 588 356 C588 446 571.333 522.333 538 585 L218 98 C258 38 312.667 5 374 5 Z " />
<glyph glyph-name="Oslashacute" unicode="&#x1fe;" horiz-adv-x="741" >
<path fill="black" d="M584 644 C650.667 581.333 688 484 688 360 C688 138.567 555.45 -14 370 -14 C293.333 -14 228.667 6.66667 176 48 L96 -69 L76 -55 L157 64 C90.3333 126.667 53 224 53 348 C53 569.433 185.55 722 371 722 C449 722 513.667 701.333 565 660 L646 777 L666 764 L584 644 Z M367 703 C238.283 703 153 557.65 153 352 C153 260 170 183.333 204 122 L524 609 C484 669 428.333 703 367 703 Z M374 5 C502.717 5 588 150.35 588 356 C588 446 571.333 522.333 538 585 L218 98 C258 38 312.667 5 374 5 Z " /><g transform="translate(577,0)" ><path fill="black" d="M-265 785 C-231 811 -194.667 841.667 -156 877 C-133.333 898.333 -113 916.667 -97 926 C-86.3333 932.667 -76.3333 936 -67 936 C-54.3333 936 -44 930.333 -36 919 C-32 913 -30 906.667 -30 900 C-30 885.333 -39 872 -57 860 C-69.6667 852.667 -92 842.667 -124 830 C-160 816.667 -210 797.333 -258 772 L-265 785 Z " /></g></glyph>
<glyph glyph-name="Otilde" unicode="&#xd5;" horiz-adv-x="741" >
<path fill="black" d="M370 -14 C179.817 -14 53 121.067 53 348 C53 569.433 185.55 722 371 722 C561.183 722 688 586.933 688 360 C688 138.567 555.45 -14 370 -14 Z M374 5 C502.717 5 588 150.35 588 356 C588 563.933 490.483 703 367 703 C238.283 703 153 557.65 153 352 C153 144.067 250.517 5 374 5 Z " /><g transform="translate(585,0)" ><path fill="black" d="M-135 782 C-169.667 782 -197 793.333 -237 812 C-282.333 832 -299.667 839 -329 839 C-361 839 -380.333 820.667 -391 778 L-407 781 C-401.667 846.333 -355.667 892 -297 892 C-262.333 892 -236.667 882 -194 862 C-158 844.667 -132.333 835 -103 835 C-72.3333 835 -51.6667 855.333 -41 896 L-25 893 C-30.3333 827.667 -76.3333 782 -135 782 Z " /></g></glyph>
<glyph glyph-name="OE" unicode="&#x152;" horiz-adv-x="925" d="M893 230 C884.333 160 880 95 880 35 L880 0 C837.333 2 774.667 3 692 3 L539 2 C492.333 2 471 -1.66667 435 -7 C411.667 -11.6667 389.667 -14 369 -14 C175.883 -14 53 126.033 53 344 C53 567.65 181.517 722 367 722 C385.667 722 410.333 719.333 441 714 C466.333 710 497.667 705 531 705 L673 705 C751.667 705 808.333 706 843 708 C841 654 845.333 594 856 528 L832 528 C796.127 651.564 765.782 684 689 684 L666 684 C595.8 684 585 673.433 585 601 L585 367 L657 367 C755.917 364.25 740.833 466.5 749 478 L773 478 C771 443.333 770 417.333 770 400 L770 358 C770.667 318 772.667 276.667 776 234 L752 234 C751.333 238 749.333 251.5 746 274.5 C739.333 320.5 710.333 345 657 345 L585 345 L585 107 C585 34.5667 596.033 24 664 24 L666 24 C784.734 24 827.311 67.2152 869 230 L893 230 Z M492 601 C492 663.667 445.333 703 372 703 C241.75 703 153 563.133 153 359 C153 151.8 244.333 5 373 5 C442.333 5 492 47 492 107 L492 601 Z " />
<glyph glyph-name="P" unicode="P" horiz-adv-x="585" d="M293 285 C262.333 285 236.667 287.333 216 292 L216 107 C216 34.4013 229.38 24.8942 317 21 L317 0 C291 2 242.667 3 172 3 C111.333 3 68 2 42 0 L42 21 C113.145 24.8457 123 34.4401 123 107 L123 601 C123 673.56 113.145 683.154 42 687 L42 708 C64 706 103.667 705 161 705 L273 706 C285 706.667 299 707 315 707 C467 707 556 634.333 556 509 C556 373.617 451.683 285 293 285 Z M290 687 C228.967 687 216 671.833 216 601 L216 314 C234.667 309.333 257 307 283 307 C400.333 307 456 368.667 456 502 C456 630 404.667 687 290 687 Z " />
<glyph glyph-name="Thorn" unicode="&#xde;" horiz-adv-x="585" d="M296 144 C266 144 239.333 146.667 216 152 L216 107 C216 32.1447 226.755 24.9025 297 21 L297 0 C266.333 2 224 3 170 3 C112.667 3 70 2 42 0 L42 21 C112.245 24.9025 123 32.1447 123 107 L123 601 C123 675.855 112.245 683.097 42 687 L42 708 C70 706 112.667 705 170 705 C223.333 705 265.667 706 297 708 L297 687 C226.755 683.097 216 675.855 216 601 L216 557 C240.667 562.333 269.333 565 302 565 C466 565 556 495.333 556 366 C556 230.6 454.033 144 296 144 Z M279 544 C255.667 544 234.667 541.667 216 537 L216 172 C237.333 167.333 257.667 165 277 165 C395.667 165 456 230.333 456 357 C456 481.667 397 544 279 544 Z " />
<glyph glyph-name="Q" unicode="Q" horiz-adv-x="741" d="M823 -80 C784.333 -188 717.667 -239 611 -239 C569 -239 531.167 -232.333 497.5 -219 C463.833 -205.667 422 -184.667 372 -156 C310.667 -120 271.333 -98 218 -78 C186.667 -88 159.333 -93 136 -93 C106.667 -93 90 -85.3333 90 -72 C90 -58 108 -51 144 -51 C166.667 -51 191.333 -53.6667 218 -59 C237.333 -53.6667 261.667 -44 291 -30 C301.667 -26 314.667 -18.6667 332 -12 C162.707 3.93346 53 136.653 53 348 C53 569.433 185.55 722 371 722 C561.183 722 688 586.933 688 360 C688 151.557 570.998 3.09502 402 -13 C370 -17 351.667 -23.6667 313 -41 C291.667 -51 272.333 -58.6667 255 -64 C347 -99.3333 421 -124.333 477 -139 C533 -153.667 582 -161 624 -161 C710.667 -161 771.667 -132 807 -74 L823 -80 Z M153 352 C153 144.067 250.517 5 374 5 C502.717 5 588 150.35 588 356 C588 563.933 490.483 703 367 703 C238.283 703 153 557.65 153 352 Z " />
<glyph glyph-name="R" unicode="R" horiz-adv-x="648" d="M670 50 C636.667 3.33333 610.333 -14 565 -14 C503.667 -14 472 22 456 94 L428 220 C409.333 305.333 381 335 321 335 L216 335 L216 107 C216 34.4401 225.855 24.8457 297 21 L297 0 C271 2 228.667 3 170 3 C109.333 3 66.6667 2 42 0 L42 21 C113.145 24.8457 123 34.4401 123 107 L123 601 C123 673.56 113.145 683.154 42 687 L42 708 C65.3333 706 106 705 164 705 L272 706 C284.667 706.667 299 707 315 707 C463 707 556 639.667 556 533 C556 437 479 365.667 359 347 C452.333 339 498.667 307.333 524 206 L555 78 C564.333 39.3333 577.333 24 600 24 C618.667 24 630 31.3333 654 62 L670 50 Z M290 687 C228.967 687 216 671.833 216 601 L216 357 L283 357 C401.667 357 456 408.667 456 522 C456 634 403.333 687 290 687 Z " />
<glyph glyph-name="Racute" unicode="&#x154;" horiz-adv-x="648" >
<path fill="black" d="M670 50 C636.667 3.33333 610.333 -14 565 -14 C503.667 -14 472 22 456 94 L428 220 C409.333 305.333 381 335 321 335 L216 335 L216 107 C216 34.4401 225.855 24.8457 297 21 L297 0 C271 2 228.667 3 170 3 C109.333 3 66.6667 2 42 0 L42 21 C113.145 24.8457 123 34.4401 123 107 L123 601 C123 673.56 113.145 683.154 42 687 L42 708 C65.3333 706 106 705 164 705 L272 706 C284.667 706.667 299 707 315 707 C463 707 556 639.667 556 533 C556 437 479 365.667 359 347 C452.333 339 498.667 307.333 524 206 L555 78 C564.333 39.3333 577.333 24 600 24 C618.667 24 630 31.3333 654 62 L670 50 Z M290 687 C228.967 687 216 671.833 216 601 L216 357 L283 357 C401.667 357 456 408.667 456 522 C456 634 403.333 687 290 687 Z " /><g transform="translate(504,0)" ><path fill="black" d="M-265 785 C-231 811 -194.667 841.667 -156 877 C-133.333 898.333 -113 916.667 -97 926 C-86.3333 932.667 -76.3333 936 -67 936 C-54.3333 936 -44 930.333 -36 919 C-32 913 -30 906.667 -30 900 C-30 885.333 -39 872 -57 860 C-69.6667 852.667 -92 842.667 -124 830 C-160 816.667 -210 797.333 -258 772 L-265 785 Z " /></g></glyph>
<glyph glyph-name="Rcaron" unicode="&#x158;" horiz-adv-x="648" >
<path fill="black" d="M670 50 C636.667 3.33333 610.333 -14 565 -14 C503.667 -14 472 22 456 94 L428 220 C409.333 305.333 381 335 321 335 L216 335 L216 107 C216 34.4401 225.855 24.8457 297 21 L297 0 C271 2 228.667 3 170 3 C109.333 3 66.6667 2 42 0 L42 21 C113.145 24.8457 123 34.4401 123 107 L123 601 C123 673.56 113.145 683.154 42 687 L42 708 C65.3333 706 106 705 164 705 L272 706 C284.667 706.667 299 707 315 707 C463 707 556 639.667 556 533 C556 437 479 365.667 359 347 C452.333 339 498.667 307.333 524 206 L555 78 C564.333 39.3333 577.333 24 600 24 C618.667 24 630 31.3333 654 62 L670 50 Z M290 687 C228.967 687 216 671.833 216 601 L216 357 L283 357 C401.667 357 456 408.667 456 522 C456 634 403.333 687 290 687 Z " /><g transform="translate(534,0)" ><path fill="black" d="M-248 773 C-305.333 828.333 -362 873.667 -418 909 L-411 924 C-352.333 905.333 -271.333 874.333 -218 849 C-160.667 881 -109.667 906 -65 924 L-59 909 C-112.333 876.333 -169 831 -229 773 L-248 773 Z " /></g></glyph>
<glyph glyph-name="uni0156" unicode="&#x156;" horiz-adv-x="648" >
<path fill="black" d="M670 50 C636.667 3.33333 610.333 -14 565 -14 C503.667 -14 472 22 456 94 L428 220 C409.333 305.333 381 335 321 335 L216 335 L216 107 C216 34.4401 225.855 24.8457 297 21 L297 0 C271 2 228.667 3 170 3 C109.333 3 66.6667 2 42 0 L42 21 C113.145 24.8457 123 34.4401 123 107 L123 601 C123 673.56 113.145 683.154 42 687 L42 708 C65.3333 706 106 705 164 705 L272 706 C284.667 706.667 299 707 315 707 C463 707 556 639.667 556 533 C556 437 479 365.667 359 347 C452.333 339 498.667 307.333 524 206 L555 78 C564.333 39.3333 577.333 24 600 24 C618.667 24 630 31.3333 654 62 L670 50 Z M290 687 C228.967 687 216 671.833 216 601 L216 357 L283 357 C401.667 357 456 408.667 456 522 C456 634 403.333 687 290 687 Z " /><g transform="translate(467,0)" ><path fill="black" d="M-177 -230 C-129.667 -218.667 -106 -203.333 -106 -184 C-106 -177.333 -109.333 -174 -116 -174 C-121.333 -174 -139.333 -184 -154 -184 C-179.333 -184 -198 -165 -198 -137 C-198 -102.333 -170.333 -77 -133 -77 C-91.6667 -77 -62 -107.333 -62 -150 C-62 -198.667 -97.6667 -231.667 -169 -249 L-177 -230 Z " /></g></glyph>
<glyph glyph-name="S" unicode="S" horiz-adv-x="540" d="M275 -14 C211 -14 178 1.33333 138 24 C134 26.6667 116.333 37 107 37 C93.6667 37 88 25 84 -7 L60 -7 C62.6667 29.6667 64 109.667 64 233 L88 233 C97.3333 83.6667 165 5 265 5 C347.667 5 399 58 399 138 C399 164.667 393.5 187.667 382.5 207 C360.5 245.667 326.667 271.333 248 322 C204.667 350 171.333 373.667 148 393 C101.333 431.667 70 480 70 548 C70 654.667 143.333 722 258 722 C315.333 722 343.333 708.667 378 686 C391.333 676 402.333 671 411 671 C425.667 671 431 681.667 435 715 L459 715 C455.667 681 454 613 454 511 L430 511 C420.667 628.333 358.333 702 269 702 C197 702 146 656.333 146 583 C146 561 150.833 542 160.5 526 C170.167 510 185.667 493.5 207 476.5 C228.333 459.5 263.667 434.333 313 401 C359 369.667 393.667 344 417 324 C463.667 284 488 241.667 488 179 C488 60.3333 405.667 -14 275 -14 Z " />
<glyph glyph-name="Sacute" unicode="&#x15a;" horiz-adv-x="540" >
<path fill="black" d="M275 -14 C211 -14 178 1.33333 138 24 C134 26.6667 116.333 37 107 37 C93.6667 37 88 25 84 -7 L60 -7 C62.6667 29.6667 64 109.667 64 233 L88 233 C97.3333 83.6667 165 5 265 5 C347.667 5 399 58 399 138 C399 164.667 393.5 187.667 382.5 207 C360.5 245.667 326.667 271.333 248 322 C204.667 350 171.333 373.667 148 393 C101.333 431.667 70 480 70 548 C70 654.667 143.333 722 258 722 C315.333 722 343.333 708.667 378 686 C391.333 676 402.333 671 411 671 C425.667 671 431 681.667 435 715 L459 715 C455.667 681 454 613 454 511 L430 511 C420.667 628.333 358.333 702 269 702 C197 702 146 656.333 146 583 C146 561 150.833 542 160.5 526 C170.167 510 185.667 493.5 207 476.5 C228.333 459.5 263.667 434.333 313 401 C359 369.667 393.667 344 417 324 C463.667 284 488 241.667 488 179 C488 60.3333 405.667 -14 275 -14 Z " /><g transform="translate(483,0)" ><path fill="black" d="M-265 785 C-231 811 -194.667 841.667 -156 877 C-133.333 898.333 -113 916.667 -97 926 C-86.3333 932.667 -76.3333 936 -67 936 C-54.3333 936 -44 930.333 -36 919 C-32 913 -30 906.667 -30 900 C-30 885.333 -39 872 -57 860 C-69.6667 852.667 -92 842.667 -124 830 C-160 816.667 -210 797.333 -258 772 L-265 785 Z " /></g></glyph>
<glyph glyph-name="Scaron" unicode="&#x160;" horiz-adv-x="540" >
<path fill="black" d="M275 -14 C211 -14 178 1.33333 138 24 C134 26.6667 116.333 37 107 37 C93.6667 37 88 25 84 -7 L60 -7 C62.6667 29.6667 64 109.667 64 233 L88 233 C97.3333 83.6667 165 5 265 5 C347.667 5 399 58 399 138 C399 164.667 393.5 187.667 382.5 207 C360.5 245.667 326.667 271.333 248 322 C204.667 350 171.333 373.667 148 393 C101.333 431.667 70 480 70 548 C70 654.667 143.333 722 258 722 C315.333 722 343.333 708.667 378 686 C391.333 676 402.333 671 411 671 C425.667 671 431 681.667 435 715 L459 715 C455.667 681 454 613 454 511 L430 511 C420.667 628.333 358.333 702 269 702 C197 702 146 656.333 146 583 C146 561 150.833 542 160.5 526 C170.167 510 185.667 493.5 207 476.5 C228.333 459.5 263.667 434.333 313 401 C359 369.667 393.667 344 417 324 C463.667 284 488 241.667 488 179 C488 60.3333 405.667 -14 275 -14 Z " /><g transform="translate(513,0)" ><path fill="black" d="M-248 773 C-305.333 828.333 -362 873.667 -418 909 L-411 924 C-352.333 905.333 -271.333 874.333 -218 849 C-160.667 881 -109.667 906 -65 924 L-59 909 C-112.333 876.333 -169 831 -229 773 L-248 773 Z " /></g></glyph>
<glyph glyph-name="Scedilla" unicode="&#x15e;" horiz-adv-x="540" d="M488 179 C488 61.6667 407.667 -12.6667 277 -14 L251 -80 C261 -77.3333 272.667 -76 286 -76 C342 -76 377 -105 377 -153 C377 -209 326.667 -245 248 -245 C217.333 -245 191.667 -241.333 171 -234 L175 -215 C191 -217.667 203.667 -219 213 -219 C269 -219 303 -194 303 -154 C303 -118 286.333 -100 253 -100 C238.333 -100 224.667 -102.333 212 -107 L249 -13 C199.667 -9 169.667 4 139 24 C136.333 25.3333 117.667 37 107 37 C93.6667 37 88 25 84 -7 L60 -7 C62.6667 29.6667 64 109.667 64 233 L88 233 C97.3333 83.6667 165 5 265 5 C347.667 5 399 58 399 138 C399 164.667 393.5 187.667 382.5 207 C360.5 245.667 326.667 271.333 248 322 C204.667 350 171.333 373.667 148 393 C101.333 431.667 70 480 70 548 C70 654.667 143.333 722 258 722 C315.333 722 343.333 708.667 378 686 C391.333 676 402.333 671 411 671 C425.667 671 431 681.667 435 715 L459 715 C455.667 681 454 613 454 511 L430 511 C420.667 628.333 358.333 702 269 702 C197 702 146 656.333 146 583 C146 561 150.833 542 160.5 526 C170.167 510 185.667 493.5 207 476.5 C228.333 459.5 263.667 434.333 313 401 C359 369.667 393.667 344 417 324 C463.667 284 488 241.667 488 179 Z " />
<glyph glyph-name="Scircumflex" unicode="&#x15c;" horiz-adv-x="540" >
<path fill="black" d="M275 -14 C211 -14 178 1.33333 138 24 C134 26.6667 116.333 37 107 37 C93.6667 37 88 25 84 -7 L60 -7 C62.6667 29.6667 64 109.667 64 233 L88 233 C97.3333 83.6667 165 5 265 5 C347.667 5 399 58 399 138 C399 164.667 393.5 187.667 382.5 207 C360.5 245.667 326.667 271.333 248 322 C204.667 350 171.333 373.667 148 393 C101.333 431.667 70 480 70 548 C70 654.667 143.333 722 258 722 C315.333 722 343.333 708.667 378 686 C391.333 676 402.333 671 411 671 C425.667 671 431 681.667 435 715 L459 715 C455.667 681 454 613 454 511 L430 511 C420.667 628.333 358.333 702 269 702 C197 702 146 656.333 146 583 C146 561 150.833 542 160.5 526 C170.167 510 185.667 493.5 207 476.5 C228.333 459.5 263.667 434.333 313 401 C359 369.667 393.667 344 417 324 C463.667 284 488 241.667 488 179 C488 60.3333 405.667 -14 275 -14 Z " /><g transform="translate(514,0)" ><path fill="black" d="M-419 788 C-365.667 820.667 -309 866 -249 924 L-230 924 C-175.333 870 -118.667 824.667 -60 788 L-66 773 C-124.667 791.667 -205.667 822.667 -259 848 C-316.333 816 -367.333 791 -412 773 L-419 788 Z " /></g></glyph>
<glyph glyph-name="uni0218" unicode="&#x218;" horiz-adv-x="540" >
<path fill="black" d="M275 -14 C211 -14 178 1.33333 138 24 C134 26.6667 116.333 37 107 37 C93.6667 37 88 25 84 -7 L60 -7 C62.6667 29.6667 64 109.667 64 233 L88 233 C97.3333 83.6667 165 5 265 5 C347.667 5 399 58 399 138 C399 164.667 393.5 187.667 382.5 207 C360.5 245.667 326.667 271.333 248 322 C204.667 350 171.333 373.667 148 393 C101.333 431.667 70 480 70 548 C70 654.667 143.333 722 258 722 C315.333 722 343.333 708.667 378 686 C391.333 676 402.333 671 411 671 C425.667 671 431 681.667 435 715 L459 715 C455.667 681 454 613 454 511 L430 511 C420.667 628.333 358.333 702 269 702 C197 702 146 656.333 146 583 C146 561 150.833 542 160.5 526 C170.167 510 185.667 493.5 207 476.5 C228.333 459.5 263.667 434.333 313 401 C359 369.667 393.667 344 417 324 C463.667 284 488 241.667 488 179 C488 60.3333 405.667 -14 275 -14 Z " /><g transform="translate(416,0)" ><path fill="black" d="M-177 -230 C-129.667 -218.667 -106 -203.333 -106 -184 C-106 -177.333 -109.333 -174 -116 -174 C-121.333 -174 -139.333 -184 -154 -184 C-179.333 -184 -198 -165 -198 -137 C-198 -102.333 -170.333 -77 -133 -77 C-91.6667 -77 -62 -107.333 -62 -150 C-62 -198.667 -97.6667 -231.667 -169 -249 L-177 -230 Z " /></g></glyph>
<glyph glyph-name="uni1E9E" unicode="&#x1e9e;" horiz-adv-x="640" d="M397 385 C534.333 351.667 595 294.667 595 196 C595 68 497 0 313 0 L256 1 C220 2.33333 191.333 3 170 3 C102.667 3 60 2 42 0 L42 21 C113.145 24.8457 123 34.4401 123 107 L123 601 C123 673.56 113.145 683.154 42 687 L42 708 C101.333 706 198.333 705 333 705 C416.333 705 492 706 560 708 L560 687 L397 385 Z M321 21 C437 21 495 79.3333 495 196 C495 309.333 438.667 370.333 316 389 L316 410 L464 684 L297 684 C226.8 684 216 673.433 216 601 L216 107 C216 44.3333 245 21 321 21 Z " />
<glyph glyph-name="uni018F" unicode="&#x18f;" horiz-adv-x="735" d="M365 722 C559.683 722 682 581.45 682 353 C682 124.533 560.383 -14 359 -14 C165.667 -14 53 111.333 53 326 L582 326 L582 335 C582 549.2 482.933 686 328 686 C230.667 686 152 630 104 526 L84 533 C129.333 654.333 230.333 722 365 722 Z M366 6 C490.283 6 575 124.013 581 306 L153 306 C144.942 134.767 234.946 6 366 6 Z " />
<glyph glyph-name="T" unicode="T" horiz-adv-x="621" d="M163 21 C252.167 27.5 260.333 32.5 264 117 L264 684 L204 684 C125.215 684 94.8562 645.402 57 488 L33 488 C41.6667 558 46 620.667 46 676 L46 708 C99.3333 706 187.667 705 311 705 C433.667 705 521.667 706 575 708 L575 676 C575 620.667 579.333 558 588 488 L564 488 C526.144 645.402 495.785 684 417 684 L357 684 L357 117 C360.667 32.5 368.833 27.5 458 21 L458 0 C423.333 2 374.333 3 311 3 C244.333 3 195 2 163 0 L163 21 Z " />
<glyph glyph-name="Tbar" unicode="&#x166;" horiz-adv-x="621" d="M357 684 L357 364 L524 364 L524 342 L357 342 L357 117 C360.667 32.5 368.833 27.5 458 21 L458 0 C423.333 2 374.333 3 311 3 C244.333 3 195 2 163 0 L163 21 C252.167 27.5 260.333 32.5 264 117 L264 342 L99 342 L99 364 L264 364 L264 684 L204 684 C125.215 684 94.8562 645.402 57 488 L33 488 C41.6667 558 46 620.667 46 676 L46 708 C99.3333 706 187.667 705 311 705 C433.667 705 521.667 706 575 708 L575 676 C575 620.667 579.333 558 588 488 L564 488 C526.144 645.402 495.785 684 417 684 L357 684 Z " />
<glyph glyph-name="Tcaron" unicode="&#x164;" horiz-adv-x="621" >
<path fill="black" d="M163 21 C252.167 27.5 260.333 32.5 264 117 L264 684 L204 684 C125.215 684 94.8562 645.402 57 488 L33 488 C41.6667 558 46 620.667 46 676 L46 708 C99.3333 706 187.667 705 311 705 C433.667 705 521.667 706 575 708 L575 676 C575 620.667 579.333 558 588 488 L564 488 C526.144 645.402 495.785 684 417 684 L357 684 L357 117 C360.667 32.5 368.833 27.5 458 21 L458 0 C423.333 2 374.333 3 311 3 C244.333 3 195 2 163 0 L163 21 Z " /><g transform="translate(549,0)" ><path fill="black" d="M-248 773 C-305.333 828.333 -362 873.667 -418 909 L-411 924 C-352.333 905.333 -271.333 874.333 -218 849 C-160.667 881 -109.667 906 -65 924 L-59 909 C-112.333 876.333 -169 831 -229 773 L-248 773 Z " /></g></glyph>
<glyph glyph-name="uni0162" unicode="&#x162;" horiz-adv-x="621" d="M575 676 C575 620.667 579.333 558 588 488 L564 488 C526.144 645.402 495.785 684 417 684 L357 684 L357 117 C360.667 32.5 368.833 27.5 458 21 L458 0 C426 2 381.667 3 325 3 L296 -80 C306 -77.3333 317.667 -76 331 -76 C387 -76 422 -105 422 -153 C422 -209 371.667 -245 293 -245 C262.333 -245 236.667 -241.333 216 -234 L220 -215 C236 -217.667 248.667 -219 258 -219 C314 -219 348 -194 348 -154 C348 -118 331.333 -100 298 -100 C283.333 -100 269.667 -102.333 257 -107 L296 3 C236.667 3 192.333 2 163 0 L163 21 C252.167 27.5 260.333 32.5 264 117 L264 684 L204 684 C125.215 684 94.8562 645.402 57 488 L33 488 C41.6667 558 46 620.667 46 676 L46 708 C99.3333 706 187.667 705 311 705 C433.667 705 521.667 706 575 708 L575 676 Z " />
<glyph glyph-name="uni021A" unicode="&#x21a;" horiz-adv-x="621" >
<path fill="black" d="M163 21 C252.167 27.5 260.333 32.5 264 117 L264 684 L204 684 C125.215 684 94.8562 645.402 57 488 L33 488 C41.6667 558 46 620.667 46 676 L46 708 C99.3333 706 187.667 705 311 705 C433.667 705 521.667 706 575 708 L575 676 C575 620.667 579.333 558 588 488 L564 488 C526.144 645.402 495.785 684 417 684 L357 684 L357 117 C360.667 32.5 368.833 27.5 458 21 L458 0 C423.333 2 374.333 3 311 3 C244.333 3 195 2 163 0 L163 21 Z " /><g transform="translate(441,0)" ><path fill="black" d="M-177 -230 C-129.667 -218.667 -106 -203.333 -106 -184 C-106 -177.333 -109.333 -174 -116 -174 C-121.333 -174 -139.333 -184 -154 -184 C-179.333 -184 -198 -165 -198 -137 C-198 -102.333 -170.333 -77 -133 -77 C-91.6667 -77 -62 -107.333 -62 -150 C-62 -198.667 -97.6667 -231.667 -169 -249 L-177 -230 Z " /></g></glyph>
<glyph glyph-name="U" unicode="U" horiz-adv-x="683" d="M343 -14 C186.333 -14 108 76.6667 108 258 L108 601 C108 673.56 98.1452 683.154 27 687 L27 708 C51 706 93.3333 705 154 705 C213.333 705 256 706 282 708 L282 687 C210.855 683.154 201 673.56 201 601 L201 271 C201 89.25 244.433 22 361 22 C490.333 22 550 105.333 550 280 L550 591 C550 661.667 529.667 684.333 459 687 L459 708 C477 706 511 705 561 705 C606.333 705 638 706 656 708 L656 687 C588.912 683.054 575 668.057 575 591 L575 281 C575 78.3333 501.667 -14 343 -14 Z " />
<glyph glyph-name="Uacute" unicode="&#xda;" horiz-adv-x="683" >
<path fill="black" d="M343 -14 C186.333 -14 108 76.6667 108 258 L108 601 C108 673.56 98.1452 683.154 27 687 L27 708 C51 706 93.3333 705 154 705 C213.333 705 256 706 282 708 L282 687 C210.855 683.154 201 673.56 201 601 L201 271 C201 89.25 244.433 22 361 22 C490.333 22 550 105.333 550 280 L550 591 C550 661.667 529.667 684.333 459 687 L459 708 C477 706 511 705 561 705 C606.333 705 638 706 656 708 L656 687 C588.912 683.054 575 668.057 575 591 L575 281 C575 78.3333 501.667 -14 343 -14 Z " /><g transform="translate(560,0)" ><path fill="black" d="M-265 785 C-231 811 -194.667 841.667 -156 877 C-133.333 898.333 -113 916.667 -97 926 C-86.3333 932.667 -76.3333 936 -67 936 C-54.3333 936 -44 930.333 -36 919 C-32 913 -30 906.667 -30 900 C-30 885.333 -39 872 -57 860 C-69.6667 852.667 -92 842.667 -124 830 C-160 816.667 -210 797.333 -258 772 L-265 785 Z " /></g></glyph>
<glyph glyph-name="Ubreve" unicode="&#x16c;" horiz-adv-x="683" >
<path fill="black" d="M343 -14 C186.333 -14 108 76.6667 108 258 L108 601 C108 673.56 98.1452 683.154 27 687 L27 708 C51 706 93.3333 705 154 705 C213.333 705 256 706 282 708 L282 687 C210.855 683.154 201 673.56 201 601 L201 271 C201 89.25 244.433 22 361 22 C490.333 22 550 105.333 550 280 L550 591 C550 661.667 529.667 684.333 459 687 L459 708 C477 706 511 705 561 705 C606.333 705 638 706 656 708 L656 687 C588.912 683.054 575 668.057 575 591 L575 281 C575 78.3333 501.667 -14 343 -14 Z " /><g transform="translate(604,0)" ><path fill="black" d="M-252 782 C-337.333 782 -411.333 832.333 -450 915 L-438 924 C-394 870.667 -332.333 844 -253 844 C-175.667 844 -107.667 873.333 -65 924 L-51 915 C-89.6667 832.333 -165.333 782 -252 782 Z " /></g></glyph>
<glyph glyph-name="uni01D3" unicode="&#x1d3;" horiz-adv-x="683" >
<path fill="black" d="M343 -14 C186.333 -14 108 76.6667 108 258 L108 601 C108 673.56 98.1452 683.154 27 687 L27 708 C51 706 93.3333 705 154 705 C213.333 705 256 706 282 708 L282 687 C210.855 683.154 201 673.56 201 601 L201 271 C201 89.25 244.433 22 361 22 C490.333 22 550 105.333 550 280 L550 591 C550 661.667 529.667 684.333 459 687 L459 708 C477 706 511 705 561 705 C606.333 705 638 706 656 708 L656 687 C588.912 683.054 575 668.057 575 591 L575 281 C575 78.3333 501.667 -14 343 -14 Z " /><g transform="translate(590,0)" ><path fill="black" d="M-248 773 C-305.333 828.333 -362 873.667 -418 909 L-411 924 C-352.333 905.333 -271.333 874.333 -218 849 C-160.667 881 -109.667 906 -65 924 L-59 909 C-112.333 876.333 -169 831 -229 773 L-248 773 Z " /></g></glyph>
<glyph glyph-name="Ucircumflex" unicode="&#xdb;" horiz-adv-x="683" >
<path fill="black" d="M343 -14 C186.333 -14 108 76.6667 108 258 L108 601 C108 673.56 98.1452 683.154 27 687 L27 708 C51 706 93.3333 705 154 705 C213.333 705 256 706 282 708 L282 687 C210.855 683.154 201 673.56 201 601 L201 271 C201 89.25 244.433 22 361 22 C490.333 22 550 105.333 550 280 L550 591 C550 661.667 529.667 684.333 459 687 L459 708 C477 706 511 705 561 705 C606.333 705 638 706 656 708 L656 687 C588.912 683.054 575 668.057 575 591 L575 281 C575 78.3333 501.667 -14 343 -14 Z " /><g transform="translate(591,0)" ><path fill="black" d="M-419 788 C-365.667 820.667 -309 866 -249 924 L-230 924 C-175.333 870 -118.667 824.667 -60 788 L-66 773 C-124.667 791.667 -205.667 822.667 -259 848 C-316.333 816 -367.333 791 -412 773 L-419 788 Z " /></g></glyph>
<glyph glyph-name="Udieresis" unicode="&#xdc;" horiz-adv-x="683" >
<path fill="black" d="M343 -14 C186.333 -14 108 76.6667 108 258 L108 601 C108 673.56 98.1452 683.154 27 687 L27 708 C51 706 93.3333 705 154 705 C213.333 705 256 706 282 708 L282 687 C210.855 683.154 201 673.56 201 601 L201 271 C201 89.25 244.433 22 361 22 C490.333 22 550 105.333 550 280 L550 591 C550 661.667 529.667 684.333 459 687 L459 708 C477 706 511 705 561 705 C606.333 705 638 706 656 708 L656 687 C588.912 683.054 575 668.057 575 591 L575 281 C575 78.3333 501.667 -14 343 -14 Z " /><g transform="translate(578,0)" ><path fill="black" d="M-332 772 C-364 772 -390 798 -390 830 C-390 860.667 -364 888 -332 888 C-301.333 888 -274 860.667 -274 830 C-274 798 -301.333 772 -332 772 Z M-120 772 C-152 772 -178 798 -178 830 C-178 860.667 -152 888 -120 888 C-89.3333 888 -62 860.667 -62 830 C-62 798 -89.3333 772 -120 772 Z " /></g></glyph>
<glyph glyph-name="uni1EE4" unicode="&#x1ee4;" horiz-adv-x="683" >
<path fill="black" d="M343 -14 C186.333 -14 108 76.6667 108 258 L108 601 C108 673.56 98.1452 683.154 27 687 L27 708 C51 706 93.3333 705 154 705 C213.333 705 256 706 282 708 L282 687 C210.855 683.154 201 673.56 201 601 L201 271 C201 89.25 244.433 22 361 22 C490.333 22 550 105.333 550 280 L550 591 C550 661.667 529.667 684.333 459 687 L459 708 C477 706 511 705 561 705 C606.333 705 638 706 656 708 L656 687 C588.912 683.054 575 668.057 575 591 L575 281 C575 78.3333 501.667 -14 343 -14 Z " /><g transform="translate(480,0)" ><path fill="black" d="M-120 -193 C-152 -193 -178 -167 -178 -135 C-178 -103 -152 -77 -120 -77 C-88 -77 -61 -103 -61 -135 C-61 -167 -88 -193 -120 -193 Z " /></g></glyph>
<glyph glyph-name="Ugrave" unicode="&#xd9;" horiz-adv-x="683" >
<path fill="black" d="M343 -14 C186.333 -14 108 76.6667 108 258 L108 601 C108 673.56 98.1452 683.154 27 687 L27 708 C51 706 93.3333 705 154 705 C213.333 705 256 706 282 708 L282 687 C210.855 683.154 201 673.56 201 601 L201 271 C201 89.25 244.433 22 361 22 C490.333 22 550 105.333 550 280 L550 591 C550 661.667 529.667 684.333 459 687 L459 708 C477 706 511 705 561 705 C606.333 705 638 706 656 708 L656 687 C588.912 683.054 575 668.057 575 591 L575 281 C575 78.3333 501.667 -14 343 -14 Z " /><g transform="translate(439,0)" ><path fill="black" d="M-37 772 C-85 797.333 -135 816.667 -171 830 C-203 842.667 -225.333 852.667 -238 860 C-256 872 -265 885.333 -265 900 C-265 906.667 -263 913 -259 919 C-251 930.333 -240.333 936 -227 936 C-217.667 936 -207.667 932.667 -197 926 C-177 914 -145 885 -137 877 C-103.667 845 -68 814.333 -30 785 L-37 772 Z " /></g></glyph>
<glyph glyph-name="uni1EE6" unicode="&#x1ee6;" horiz-adv-x="683" >
<path fill="black" d="M343 -14 C186.333 -14 108 76.6667 108 258 L108 601 C108 673.56 98.1452 683.154 27 687 L27 708 C51 706 93.3333 705 154 705 C213.333 705 256 706 282 708 L282 687 C210.855 683.154 201 673.56 201 601 L201 271 C201 89.25 244.433 22 361 22 C490.333 22 550 105.333 550 280 L550 591 C550 661.667 529.667 684.333 459 687 L459 708 C477 706 511 705 561 705 C606.333 705 638 706 656 708 L656 687 C588.912 683.054 575 668.057 575 591 L575 281 C575 78.3333 501.667 -14 343 -14 Z " /><g transform="translate(512,0)" ><path fill="black" d="M-169 819 C-134.333 837.667 -117 863.333 -117 896 C-117 930.667 -136.333 951 -171 951 C-197.667 951 -220 940.333 -220 927 C-220 919 -200 896.333 -200 883 C-200 868.333 -212.667 857 -230 857 C-251.333 857 -265 871.333 -265 894 C-265 938 -213 972 -149 972 C-90.3333 972 -48 942.333 -48 901 C-48 859.667 -86.3333 825 -149 809 L-149 774 L-169 774 L-169 819 Z " /></g></glyph>
<glyph glyph-name="Uhorn" unicode="&#x1af;" horiz-adv-x="682" d="M680 794 C680 739.333 640.333 700 575 688 L575 281 C575 78.3333 501.667 -14 343 -14 C186.333 -14 108 76.6667 108 258 L108 601 C108 673.56 98.1452 683.154 27 687 L27 708 C49.6667 706 92 705 154 705 C214 705 256.667 706 282 708 L282 687 C210.855 683.154 201 673.56 201 601 L201 271 C201 89.25 244.433 22 361 22 C489 22 550 105.333 550 280 L550 685 C546 684.333 540 684 532 684 C508.667 684 486 685.667 464 689 L467 708 C490.333 704.667 512.333 703 533 703 C582.333 703 612 713 612 729 C612 741 607 750.333 595 765 C581.667 783.667 574 794 574 810 C574 835.333 595 854 623 854 C657.667 854 680 827.333 680 794 Z " />
<glyph glyph-name="uni1EE8" unicode="&#x1ee8;" horiz-adv-x="682" >
<path fill="black" d="M680 794 C680 739.333 640.333 700 575 688 L575 281 C575 78.3333 501.667 -14 343 -14 C186.333 -14 108 76.6667 108 258 L108 601 C108 673.56 98.1452 683.154 27 687 L27 708 C49.6667 706 92 705 154 705 C214 705 256.667 706 282 708 L282 687 C210.855 683.154 201 673.56 201 601 L201 271 C201 89.25 244.433 22 361 22 C489 22 550 105.333 550 280 L550 685 C546 684.333 540 684 532 684 C508.667 684 486 685.667 464 689 L467 708 C490.333 704.667 512.333 703 533 703 C582.333 703 612 713 612 729 C612 741 607 750.333 595 765 C581.667 783.667 574 794 574 810 C574 835.333 595 854 623 854 C657.667 854 680 827.333 680 794 Z " /><g transform="translate(560,0)" ><path fill="black" d="M-265 785 C-231 811 -194.667 841.667 -156 877 C-133.333 898.333 -113 916.667 -97 926 C-86.3333 932.667 -76.3333 936 -67 936 C-54.3333 936 -44 930.333 -36 919 C-32 913 -30 906.667 -30 900 C-30 885.333 -39 872 -57 860 C-69.6667 852.667 -92 842.667 -124 830 C-160 816.667 -210 797.333 -258 772 L-265 785 Z " /></g></glyph>
<glyph glyph-name="uni1EF0" unicode="&#x1ef0;" horiz-adv-x="682" >
<path fill="black" d="M680 794 C680 739.333 640.333 700 575 688 L575 281 C575 78.3333 501.667 -14 343 -14 C186.333 -14 108 76.6667 108 258 L108 601 C108 673.56 98.1452 683.154 27 687 L27 708 C49.6667 706 92 705 154 705 C214 705 256.667 706 282 708 L282 687 C210.855 683.154 201 673.56 201 601 L201 271 C201 89.25 244.433 22 361 22 C489 22 550 105.333 550 280 L550 685 C546 684.333 540 684 532 684 C508.667 684 486 685.667 464 689 L467 708 C490.333 704.667 512.333 703 533 703 C582.333 703 612 713 612 729 C612 741 607 750.333 595 765 C581.667 783.667 574 794 574 810 C574 835.333 595 854 623 854 C657.667 854 680 827.333 680 794 Z " /><g transform="translate(480,0)" ><path fill="black" d="M-120 -193 C-152 -193 -178 -167 -178 -135 C-178 -103 -152 -77 -120 -77 C-88 -77 -61 -103 -61 -135 C-61 -167 -88 -193 -120 -193 Z " /></g></glyph>
<glyph glyph-name="uni1EEA" unicode="&#x1eea;" horiz-adv-x="682" >
<path fill="black" d="M680 794 C680 739.333 640.333 700 575 688 L575 281 C575 78.3333 501.667 -14 343 -14 C186.333 -14 108 76.6667 108 258 L108 601 C108 673.56 98.1452 683.154 27 687 L27 708 C49.6667 706 92 705 154 705 C214 705 256.667 706 282 708 L282 687 C210.855 683.154 201 673.56 201 601 L201 271 C201 89.25 244.433 22 361 22 C489 22 550 105.333 550 280 L550 685 C546 684.333 540 684 532 684 C508.667 684 486 685.667 464 689 L467 708 C490.333 704.667 512.333 703 533 703 C582.333 703 612 713 612 729 C612 741 607 750.333 595 765 C581.667 783.667 574 794 574 810 C574 835.333 595 854 623 854 C657.667 854 680 827.333 680 794 Z " /><g transform="translate(439,0)" ><path fill="black" d="M-37 772 C-85 797.333 -135 816.667 -171 830 C-203 842.667 -225.333 852.667 -238 860 C-256 872 -265 885.333 -265 900 C-265 906.667 -263 913 -259 919 C-251 930.333 -240.333 936 -227 936 C-217.667 936 -207.667 932.667 -197 926 C-177 914 -145 885 -137 877 C-103.667 845 -68 814.333 -30 785 L-37 772 Z " /></g></glyph>
<glyph glyph-name="uni1EEC" unicode="&#x1eec;" horiz-adv-x="682" >
<path fill="black" d="M680 794 C680 739.333 640.333 700 575 688 L575 281 C575 78.3333 501.667 -14 343 -14 C186.333 -14 108 76.6667 108 258 L108 601 C108 673.56 98.1452 683.154 27 687 L27 708 C49.6667 706 92 705 154 705 C214 705 256.667 706 282 708 L282 687 C210.855 683.154 201 673.56 201 601 L201 271 C201 89.25 244.433 22 361 22 C489 22 550 105.333 550 280 L550 685 C546 684.333 540 684 532 684 C508.667 684 486 685.667 464 689 L467 708 C490.333 704.667 512.333 703 533 703 C582.333 703 612 713 612 729 C612 741 607 750.333 595 765 C581.667 783.667 574 794 574 810 C574 835.333 595 854 623 854 C657.667 854 680 827.333 680 794 Z " /><g transform="translate(512,0)" ><path fill="black" d="M-169 819 C-134.333 837.667 -117 863.333 -117 896 C-117 930.667 -136.333 951 -171 951 C-197.667 951 -220 940.333 -220 927 C-220 919 -200 896.333 -200 883 C-200 868.333 -212.667 857 -230 857 C-251.333 857 -265 871.333 -265 894 C-265 938 -213 972 -149 972 C-90.3333 972 -48 942.333 -48 901 C-48 859.667 -86.3333 825 -149 809 L-149 774 L-169 774 L-169 819 Z " /></g></glyph>
<glyph glyph-name="uni1EEE" unicode="&#x1eee;" horiz-adv-x="682" >
<path fill="black" d="M680 794 C680 739.333 640.333 700 575 688 L575 281 C575 78.3333 501.667 -14 343 -14 C186.333 -14 108 76.6667 108 258 L108 601 C108 673.56 98.1452 683.154 27 687 L27 708 C49.6667 706 92 705 154 705 C214 705 256.667 706 282 708 L282 687 C210.855 683.154 201 673.56 201 601 L201 271 C201 89.25 244.433 22 361 22 C489 22 550 105.333 550 280 L550 685 C546 684.333 540 684 532 684 C508.667 684 486 685.667 464 689 L467 708 C490.333 704.667 512.333 703 533 703 C582.333 703 612 713 612 729 C612 741 607 750.333 595 765 C581.667 783.667 574 794 574 810 C574 835.333 595 854 623 854 C657.667 854 680 827.333 680 794 Z " /><g transform="translate(557,0)" ><path fill="black" d="M-384 773 C-378.667 842.333 -341.333 882 -284 882 C-250.667 882 -225 871 -181 851 C-147.667 833.667 -126.667 825 -104 825 C-72.6667 825 -51.6667 844.667 -41 884 L-25 880 C-31.6667 812 -67.6667 771 -125 771 C-158.333 771 -185.667 782 -227 802 C-261.667 819.333 -283.333 828 -306 828 C-338 828 -357.333 811.333 -368 770 L-384 773 Z " /></g></glyph>
<glyph glyph-name="Uhungarumlaut" unicode="&#x170;" horiz-adv-x="683" >
<path fill="black" d="M343 -14 C186.333 -14 108 76.6667 108 258 L108 601 C108 673.56 98.1452 683.154 27 687 L27 708 C51 706 93.3333 705 154 705 C213.333 705 256 706 282 708 L282 687 C210.855 683.154 201 673.56 201 601 L201 271 C201 89.25 244.433 22 361 22 C490.333 22 550 105.333 550 280 L550 591 C550 661.667 529.667 684.333 459 687 L459 708 C477 706 511 705 561 705 C606.333 705 638 706 656 708 L656 687 C588.912 683.054 575 668.057 575 591 L575 281 C575 78.3333 501.667 -14 343 -14 Z " /><g transform="translate(589,0)" ><path fill="black" d="M-386 784 C-365.333 804.667 -345.333 828.667 -326 856 C-323.333 859.333 -315.833 868.667 -303.5 884 C-291.167 899.333 -279.333 912 -268 922 C-256 932 -244.667 937 -234 937 C-223.333 937 -214.333 932.667 -207 924 C-201 917.333 -198 909.333 -198 900 C-198 886 -205 873.333 -219 862 C-231.667 851.333 -256 837.333 -292 820 C-332 799.333 -360.333 783.333 -377 772 L-386 784 Z M-198 784 C-182 800 -162 824 -138 856 C-119.333 881.333 -98.3333 907.333 -81 922 C-69 932 -57.3333 937 -46 937 C-35.3333 937 -26.3333 932.667 -19 924 C-13 917.333 -10 909.667 -10 901 C-10 887 -17 874 -31 862 C-43 852 -67 838 -103 820 C-141.667 800.667 -170.333 784.667 -189 772 L-198 784 Z " /></g></glyph>
<glyph glyph-name="Umacron" unicode="&#x16a;" horiz-adv-x="683" >
<path fill="black" d="M343 -14 C186.333 -14 108 76.6667 108 258 L108 601 C108 673.56 98.1452 683.154 27 687 L27 708 C51 706 93.3333 705 154 705 C213.333 705 256 706 282 708 L282 687 C210.855 683.154 201 673.56 201 601 L201 271 C201 89.25 244.433 22 361 22 C490.333 22 550 105.333 550 280 L550 591 C550 661.667 529.667 684.333 459 687 L459 708 C477 706 511 705 561 705 C606.333 705 638 706 656 708 L656 687 C588.912 683.054 575 668.057 575 591 L575 281 C575 78.3333 501.667 -14 343 -14 Z " /><g transform="translate(553,0)" ><path fill="black" d="M-377 818 L-377 845 L-25 845 L-25 818 L-377 818 Z " /></g></glyph>
<glyph glyph-name="Uogonek" unicode="&#x172;" horiz-adv-x="683" d="M561 705 C606.333 705 638 706 656 708 L656 687 C588.912 683.054 575 668.057 575 591 L575 281 C575 185 558.333 113.333 525 66 C485.667 0 459.833 -46.3333 447.5 -73 C435.167 -99.6667 429 -123.333 429 -144 C429 -178.667 444 -196 472 -196 C496.667 -196 521 -177.667 545 -141 L564 -153 C531.333 -214.333 489 -245 437 -245 C387.667 -245 356 -216 356 -176 C358.917 -124.25 365.583 -110.75 466 13 C433.333 -5 392.333 -14 343 -14 C186.333 -14 108 76.6667 108 258 L108 601 C108 673.56 98.1452 683.154 27 687 L27 708 C51 706 93.3333 705 154 705 C213.333 705 256 706 282 708 L282 687 C210.855 683.154 201 673.56 201 601 L201 271 C201 89.25 244.433 22 361 22 C490.333 22 550 105.333 550 280 L550 591 C550 661.667 529.667 684.333 459 687 L459 708 C477 706 511 705 561 705 Z " />
<glyph glyph-name="Uring" unicode="&#x16e;" horiz-adv-x="683" >
<path fill="black" d="M343 -14 C186.333 -14 108 76.6667 108 258 L108 601 C108 673.56 98.1452 683.154 27 687 L27 708 C51 706 93.3333 705 154 705 C213.333 705 256 706 282 708 L282 687 C210.855 683.154 201 673.56 201 601 L201 271 C201 89.25 244.433 22 361 22 C490.333 22 550 105.333 550 280 L550 591 C550 661.667 529.667 684.333 459 687 L459 708 C477 706 511 705 561 705 C606.333 705 638 706 656 708 L656 687 C588.912 683.054 575 668.057 575 591 L575 281 C575 78.3333 501.667 -14 343 -14 Z " /><g transform="translate(490,0)" ><path fill="black" d="M-138 742 C-198 742 -242 780.667 -242 834 C-242 887.333 -196.667 926 -138 926 C-79.3333 926 -34 887.333 -34 834 C-34 780.667 -79.3333 742 -138 742 Z M-138 763 C-92.6667 763 -63 791.667 -63 833 C-63 875.667 -94 905 -138 905 C-182 905 -213 875.667 -213 833 C-213 791.667 -183.333 763 -138 763 Z " /></g></glyph>
<glyph glyph-name="Utilde" unicode="&#x168;" horiz-adv-x="683" >
<path fill="black" d="M343 -14 C186.333 -14 108 76.6667 108 258 L108 601 C108 673.56 98.1452 683.154 27 687 L27 708 C51 706 93.3333 705 154 705 C213.333 705 256 706 282 708 L282 687 C210.855 683.154 201 673.56 201 601 L201 271 C201 89.25 244.433 22 361 22 C490.333 22 550 105.333 550 280 L550 591 C550 661.667 529.667 684.333 459 687 L459 708 C477 706 511 705 561 705 C606.333 705 638 706 656 708 L656 687 C588.912 683.054 575 668.057 575 591 L575 281 C575 78.3333 501.667 -14 343 -14 Z " /><g transform="translate(568,0)" ><path fill="black" d="M-135 782 C-169.667 782 -197 793.333 -237 812 C-282.333 832 -299.667 839 -329 839 C-361 839 -380.333 820.667 -391 778 L-407 781 C-401.667 846.333 -355.667 892 -297 892 C-262.333 892 -236.667 882 -194 862 C-158 844.667 -132.333 835 -103 835 C-72.3333 835 -51.6667 855.333 -41 896 L-25 893 C-30.3333 827.667 -76.3333 782 -135 782 Z " /></g></glyph>
<glyph glyph-name="V" unicode="V" horiz-adv-x="630" d="M562 705 C592 705 617 706 637 708 L637 687 C609 679 579.333 654.667 558 600 L324 -5 L306 -5 L63 623 C47 664.333 24 685.667 -6 687 L-6 708 C20.6667 706 56.3333 705 101 705 C156.333 705 197.667 706 225 708 L225 687 C173 684.333 154 674 154 650 C154 638.667 158 623 166 603 L350 125 L513 545 C526.333 579.667 533 607 533 627 C533 668.333 507 685.667 447 687 L447 708 C485 706 523.333 705 562 705 Z " />
<glyph glyph-name="W" unicode="W" horiz-adv-x="905" d="M832 705 C862 705 887 706 907 708 L907 687 C876.333 679 845.333 653.667 828 599 L640 -5 L622 -5 L449 509 L291 -5 L273 -5 L62 623 C48 664.333 25 685.667 -7 687 L-7 708 C20.3333 706 56 705 100 705 C145.333 705 179.333 706 202 708 L202 687 C166 685.667 153 674.667 153 652 C153 640 156.667 623.667 164 603 L316 153 L438 544 L411 623 C396.333 667 375.333 685.667 342 687 L342 708 C376 706 411.667 705 449 705 C503.667 705 544.333 706 571 708 L571 687 C519 685.667 501 675.667 501 653 C501 643.667 505 627 513 603 L665 153 L787 545 C797.667 578.333 803 604.667 803 624 C803 662.667 779.667 685.667 717 687 L717 708 C755 706 793.333 705 832 705 Z " />
<glyph glyph-name="Wacute" unicode="&#x1e82;" horiz-adv-x="905" >
<path fill="black" d="M832 705 C862 705 887 706 907 708 L907 687 C876.333 679 845.333 653.667 828 599 L640 -5 L622 -5 L449 509 L291 -5 L273 -5 L62 623 C48 664.333 25 685.667 -7 687 L-7 708 C20.3333 706 56 705 100 705 C145.333 705 179.333 706 202 708 L202 687 C166 685.667 153 674.667 153 652 C153 640 156.667 623.667 164 603 L316 153 L438 544 L411 623 C396.333 667 375.333 685.667 342 687 L342 708 C376 706 411.667 705 449 705 C503.667 705 544.333 706 571 708 L571 687 C519 685.667 501 675.667 501 653 C501 643.667 505 627 513 603 L665 153 L787 545 C797.667 578.333 803 604.667 803 624 C803 662.667 779.667 685.667 717 687 L717 708 C755 706 793.333 705 832 705 Z " /><g transform="translate(672,0)" ><path fill="black" d="M-265 785 C-231 811 -194.667 841.667 -156 877 C-133.333 898.333 -113 916.667 -97 926 C-86.3333 932.667 -76.3333 936 -67 936 C-54.3333 936 -44 930.333 -36 919 C-32 913 -30 906.667 -30 900 C-30 885.333 -39 872 -57 860 C-69.6667 852.667 -92 842.667 -124 830 C-160 816.667 -210 797.333 -258 772 L-265 785 Z " /></g></glyph>
<glyph glyph-name="Wcircumflex" unicode="&#x174;" horiz-adv-x="905" >
<path fill="black" d="M832 705 C862 705 887 706 907 708 L907 687 C876.333 679 845.333 653.667 828 599 L640 -5 L622 -5 L449 509 L291 -5 L273 -5 L62 623 C48 664.333 25 685.667 -7 687 L-7 708 C20.3333 706 56 705 100 705 C145.333 705 179.333 706 202 708 L202 687 C166 685.667 153 674.667 153 652 C153 640 156.667 623.667 164 603 L316 153 L438 544 L411 623 C396.333 667 375.333 685.667 342 687 L342 708 C376 706 411.667 705 449 705 C503.667 705 544.333 706 571 708 L571 687 C519 685.667 501 675.667 501 653 C501 643.667 505 627 513 603 L665 153 L787 545 C797.667 578.333 803 604.667 803 624 C803 662.667 779.667 685.667 717 687 L717 708 C755 706 793.333 705 832 705 Z " /><g transform="translate(703,0)" ><path fill="black" d="M-419 788 C-365.667 820.667 -309 866 -249 924 L-230 924 C-175.333 870 -118.667 824.667 -60 788 L-66 773 C-124.667 791.667 -205.667 822.667 -259 848 C-316.333 816 -367.333 791 -412 773 L-419 788 Z " /></g></glyph>
<glyph glyph-name="Wdieresis" unicode="&#x1e84;" horiz-adv-x="905" >
<path fill="black" d="M832 705 C862 705 887 706 907 708 L907 687 C876.333 679 845.333 653.667 828 599 L640 -5 L622 -5 L449 509 L291 -5 L273 -5 L62 623 C48 664.333 25 685.667 -7 687 L-7 708 C20.3333 706 56 705 100 705 C145.333 705 179.333 706 202 708 L202 687 C166 685.667 153 674.667 153 652 C153 640 156.667 623.667 164 603 L316 153 L438 544 L411 623 C396.333 667 375.333 685.667 342 687 L342 708 C376 706 411.667 705 449 705 C503.667 705 544.333 706 571 708 L571 687 C519 685.667 501 675.667 501 653 C501 643.667 505 627 513 603 L665 153 L787 545 C797.667 578.333 803 604.667 803 624 C803 662.667 779.667 685.667 717 687 L717 708 C755 706 793.333 705 832 705 Z " /><g transform="translate(690,0)" ><path fill="black" d="M-332 772 C-364 772 -390 798 -390 830 C-390 860.667 -364 888 -332 888 C-301.333 888 -274 860.667 -274 830 C-274 798 -301.333 772 -332 772 Z M-120 772 C-152 772 -178 798 -178 830 C-178 860.667 -152 888 -120 888 C-89.3333 888 -62 860.667 -62 830 C-62 798 -89.3333 772 -120 772 Z " /></g></glyph>
<glyph glyph-name="Wgrave" unicode="&#x1e80;" horiz-adv-x="905" >
<path fill="black" d="M832 705 C862 705 887 706 907 708 L907 687 C876.333 679 845.333 653.667 828 599 L640 -5 L622 -5 L449 509 L291 -5 L273 -5 L62 623 C48 664.333 25 685.667 -7 687 L-7 708 C20.3333 706 56 705 100 705 C145.333 705 179.333 706 202 708 L202 687 C166 685.667 153 674.667 153 652 C153 640 156.667 623.667 164 603 L316 153 L438 544 L411 623 C396.333 667 375.333 685.667 342 687 L342 708 C376 706 411.667 705 449 705 C503.667 705 544.333 706 571 708 L571 687 C519 685.667 501 675.667 501 653 C501 643.667 505 627 513 603 L665 153 L787 545 C797.667 578.333 803 604.667 803 624 C803 662.667 779.667 685.667 717 687 L717 708 C755 706 793.333 705 832 705 Z " /><g transform="translate(551,0)" ><path fill="black" d="M-37 772 C-85 797.333 -135 816.667 -171 830 C-203 842.667 -225.333 852.667 -238 860 C-256 872 -265 885.333 -265 900 C-265 906.667 -263 913 -259 919 C-251 930.333 -240.333 936 -227 936 C-217.667 936 -207.667 932.667 -197 926 C-177 914 -145 885 -137 877 C-103.667 845 -68 814.333 -30 785 L-37 772 Z " /></g></glyph>
<glyph glyph-name="X" unicode="X" horiz-adv-x="634" d="M550 86 C575.333 47.3333 607.667 22.3333 637 21 L637 0 C630.333 0 620.333 0.666667 607 2 C579 3.33333 557 4 541 4 C519 4 472 2.66667 400 0 L400 21 C452 21 470 26.3333 470 37 C470 43.6667 462.667 54.3333 460 57 L293 315 L186 156 C160 118 147 88.6667 147 68 C147 37.3333 176.667 21.6667 236 21 L236 0 C198 2 153 3 101 3 C64.3333 3 36 2 16 0 L16 21 C58.6667 35.6667 99.6667 70.3333 129 113 L279 335 L93 622 C65 666 46.3333 681.667 17 687 L17 708 C55 706 87 705 113 705 C166.333 705 210 706 244 708 L244 687 C194.667 687 178 680.333 178 667 C178 661.667 182 653 190 641 L340 409 L437 552 C470.333 602.667 485 629 485 649 C485 673 462 685.667 406 687 L406 708 C444 706 482.333 705 521 705 C557.667 705 586 706 606 708 L606 687 C559.333 669.667 527.667 645.667 493 595 L354 388 L550 86 Z " />
<glyph glyph-name="Y" unicode="Y" horiz-adv-x="591" d="M533 705 C563 705 588 706 608 708 L608 687 C568 677.667 536 652.667 508 598 L351 288 L351 107 C351 32.1447 361.755 24.9025 432 21 L432 0 C401.333 2 359 3 305 3 C247.667 3 205 2 177 0 L177 21 C247.245 24.9025 258 32.1447 258 107 L258 256 L55 630 C31 672.667 1 686 -23 686 L-23 708 C3 706 32.3333 705 65 705 C129.667 705 176.333 706 205 708 L205 686 C169 686 151 678.667 151 656 C151 645.333 155.667 631 165 613 L331 296 L458 548 C483.333 597.333 494 623.667 494 645 C494 671.667 471.667 685.667 417 687 L417 708 C455 706 493.667 705 533 705 Z " />
<glyph glyph-name="Yacute" unicode="&#xdd;" horiz-adv-x="591" >
<path fill="black" d="M533 705 C563 705 588 706 608 708 L608 687 C568 677.667 536 652.667 508 598 L351 288 L351 107 C351 32.1447 361.755 24.9025 432 21 L432 0 C401.333 2 359 3 305 3 C247.667 3 205 2 177 0 L177 21 C247.245 24.9025 258 32.1447 258 107 L258 256 L55 630 C31 672.667 1 686 -23 686 L-23 708 C3 706 32.3333 705 65 705 C129.667 705 176.333 706 205 708 L205 686 C169 686 151 678.667 151 656 C151 645.333 155.667 631 165 613 L331 296 L458 548 C483.333 597.333 494 623.667 494 645 C494 671.667 471.667 685.667 417 687 L417 708 C455 706 493.667 705 533 705 Z " /><g transform="translate(511,0)" ><path fill="black" d="M-265 785 C-231 811 -194.667 841.667 -156 877 C-133.333 898.333 -113 916.667 -97 926 C-86.3333 932.667 -76.3333 936 -67 936 C-54.3333 936 -44 930.333 -36 919 C-32 913 -30 906.667 -30 900 C-30 885.333 -39 872 -57 860 C-69.6667 852.667 -92 842.667 -124 830 C-160 816.667 -210 797.333 -258 772 L-265 785 Z " /></g></glyph>
<glyph glyph-name="Ycircumflex" unicode="&#x176;" horiz-adv-x="591" >
<path fill="black" d="M533 705 C563 705 588 706 608 708 L608 687 C568 677.667 536 652.667 508 598 L351 288 L351 107 C351 32.1447 361.755 24.9025 432 21 L432 0 C401.333 2 359 3 305 3 C247.667 3 205 2 177 0 L177 21 C247.245 24.9025 258 32.1447 258 107 L258 256 L55 630 C31 672.667 1 686 -23 686 L-23 708 C3 706 32.3333 705 65 705 C129.667 705 176.333 706 205 708 L205 686 C169 686 151 678.667 151 656 C151 645.333 155.667 631 165 613 L331 296 L458 548 C483.333 597.333 494 623.667 494 645 C494 671.667 471.667 685.667 417 687 L417 708 C455 706 493.667 705 533 705 Z " /><g transform="translate(542,0)" ><path fill="black" d="M-419 788 C-365.667 820.667 -309 866 -249 924 L-230 924 C-175.333 870 -118.667 824.667 -60 788 L-66 773 C-124.667 791.667 -205.667 822.667 -259 848 C-316.333 816 -367.333 791 -412 773 L-419 788 Z " /></g></glyph>
<glyph glyph-name="Ydieresis" unicode="&#x178;" horiz-adv-x="591" >
<path fill="black" d="M533 705 C563 705 588 706 608 708 L608 687 C568 677.667 536 652.667 508 598 L351 288 L351 107 C351 32.1447 361.755 24.9025 432 21 L432 0 C401.333 2 359 3 305 3 C247.667 3 205 2 177 0 L177 21 C247.245 24.9025 258 32.1447 258 107 L258 256 L55 630 C31 672.667 1 686 -23 686 L-23 708 C3 706 32.3333 705 65 705 C129.667 705 176.333 706 205 708 L205 686 C169 686 151 678.667 151 656 C151 645.333 155.667 631 165 613 L331 296 L458 548 C483.333 597.333 494 623.667 494 645 C494 671.667 471.667 685.667 417 687 L417 708 C455 706 493.667 705 533 705 Z " /><g transform="translate(529,0)" ><path fill="black" d="M-332 772 C-364 772 -390 798 -390 830 C-390 860.667 -364 888 -332 888 C-301.333 888 -274 860.667 -274 830 C-274 798 -301.333 772 -332 772 Z M-120 772 C-152 772 -178 798 -178 830 C-178 860.667 -152 888 -120 888 C-89.3333 888 -62 860.667 -62 830 C-62 798 -89.3333 772 -120 772 Z " /></g></glyph>
<glyph glyph-name="uni1EF4" unicode="&#x1ef4;" horiz-adv-x="591" >
<path fill="black" d="M533 705 C563 705 588 706 608 708 L608 687 C568 677.667 536 652.667 508 598 L351 288 L351 107 C351 32.1447 361.755 24.9025 432 21 L432 0 C401.333 2 359 3 305 3 C247.667 3 205 2 177 0 L177 21 C247.245 24.9025 258 32.1447 258 107 L258 256 L55 630 C31 672.667 1 686 -23 686 L-23 708 C3 706 32.3333 705 65 705 C129.667 705 176.333 706 205 708 L205 686 C169 686 151 678.667 151 656 C151 645.333 155.667 631 165 613 L331 296 L458 548 C483.333 597.333 494 623.667 494 645 C494 671.667 471.667 685.667 417 687 L417 708 C455 706 493.667 705 533 705 Z " /><g transform="translate(424,0)" ><path fill="black" d="M-120 -193 C-152 -193 -178 -167 -178 -135 C-178 -103 -152 -77 -120 -77 C-88 -77 -61 -103 -61 -135 C-61 -167 -88 -193 -120 -193 Z " /></g></glyph>
<glyph glyph-name="Ygrave" unicode="&#x1ef2;" horiz-adv-x="591" >
<path fill="black" d="M533 705 C563 705 588 706 608 708 L608 687 C568 677.667 536 652.667 508 598 L351 288 L351 107 C351 32.1447 361.755 24.9025 432 21 L432 0 C401.333 2 359 3 305 3 C247.667 3 205 2 177 0 L177 21 C247.245 24.9025 258 32.1447 258 107 L258 256 L55 630 C31 672.667 1 686 -23 686 L-23 708 C3 706 32.3333 705 65 705 C129.667 705 176.333 706 205 708 L205 686 C169 686 151 678.667 151 656 C151 645.333 155.667 631 165 613 L331 296 L458 548 C483.333 597.333 494 623.667 494 645 C494 671.667 471.667 685.667 417 687 L417 708 C455 706 493.667 705 533 705 Z " /><g transform="translate(390,0)" ><path fill="black" d="M-37 772 C-85 797.333 -135 816.667 -171 830 C-203 842.667 -225.333 852.667 -238 860 C-256 872 -265 885.333 -265 900 C-265 906.667 -263 913 -259 919 C-251 930.333 -240.333 936 -227 936 C-217.667 936 -207.667 932.667 -197 926 C-177 914 -145 885 -137 877 C-103.667 845 -68 814.333 -30 785 L-37 772 Z " /></g></glyph>
<glyph glyph-name="uni1EF6" unicode="&#x1ef6;" horiz-adv-x="591" >
<path fill="black" d="M533 705 C563 705 588 706 608 708 L608 687 C568 677.667 536 652.667 508 598 L351 288 L351 107 C351 32.1447 361.755 24.9025 432 21 L432 0 C401.333 2 359 3 305 3 C247.667 3 205 2 177 0 L177 21 C247.245 24.9025 258 32.1447 258 107 L258 256 L55 630 C31 672.667 1 686 -23 686 L-23 708 C3 706 32.3333 705 65 705 C129.667 705 176.333 706 205 708 L205 686 C169 686 151 678.667 151 656 C151 645.333 155.667 631 165 613 L331 296 L458 548 C483.333 597.333 494 623.667 494 645 C494 671.667 471.667 685.667 417 687 L417 708 C455 706 493.667 705 533 705 Z " /><g transform="translate(463,0)" ><path fill="black" d="M-169 819 C-134.333 837.667 -117 863.333 -117 896 C-117 930.667 -136.333 951 -171 951 C-197.667 951 -220 940.333 -220 927 C-220 919 -200 896.333 -200 883 C-200 868.333 -212.667 857 -230 857 C-251.333 857 -265 871.333 -265 894 C-265 938 -213 972 -149 972 C-90.3333 972 -48 942.333 -48 901 C-48 859.667 -86.3333 825 -149 809 L-149 774 L-169 774 L-169 819 Z " /></g></glyph>
<glyph glyph-name="uni1EF8" unicode="&#x1ef8;" horiz-adv-x="591" >
<path fill="black" d="M533 705 C563 705 588 706 608 708 L608 687 C568 677.667 536 652.667 508 598 L351 288 L351 107 C351 32.1447 361.755 24.9025 432 21 L432 0 C401.333 2 359 3 305 3 C247.667 3 205 2 177 0 L177 21 C247.245 24.9025 258 32.1447 258 107 L258 256 L55 630 C31 672.667 1 686 -23 686 L-23 708 C3 706 32.3333 705 65 705 C129.667 705 176.333 706 205 708 L205 686 C169 686 151 678.667 151 656 C151 645.333 155.667 631 165 613 L331 296 L458 548 C483.333 597.333 494 623.667 494 645 C494 671.667 471.667 685.667 417 687 L417 708 C455 706 493.667 705 533 705 Z " /><g transform="translate(519,0)" ><path fill="black" d="M-135 782 C-169.667 782 -197 793.333 -237 812 C-282.333 832 -299.667 839 -329 839 C-361 839 -380.333 820.667 -391 778 L-407 781 C-401.667 846.333 -355.667 892 -297 892 C-262.333 892 -236.667 882 -194 862 C-158 844.667 -132.333 835 -103 835 C-72.3333 835 -51.6667 855.333 -41 896 L-25 893 C-30.3333 827.667 -76.3333 782 -135 782 Z " /></g></glyph>
<glyph glyph-name="Z" unicode="Z" horiz-adv-x="594" d="M47 21 L444 684 L232 684 C154.079 684 123.61 646.357 86 488 L62 488 C70.6667 558 75 620.667 75 676 L75 708 C121 706 198.333 705 307 705 C420.333 705 501.333 706 550 708 L550 687 L153 24 L279 24 C442.083 27.4167 482.167 63.8333 532 230 L556 230 C547.333 158.667 543 93.3333 543 34 L543 0 C493.667 2 410.667 3 294 3 C180 3 97.6667 2 47 0 L47 21 Z " />
<glyph glyph-name="Zacute" unicode="&#x179;" horiz-adv-x="594" >
<path fill="black" d="M47 21 L444 684 L232 684 C154.079 684 123.61 646.357 86 488 L62 488 C70.6667 558 75 620.667 75 676 L75 708 C121 706 198.333 705 307 705 C420.333 705 501.333 706 550 708 L550 687 L153 24 L279 24 C442.083 27.4167 482.167 63.8333 532 230 L556 230 C547.333 158.667 543 93.3333 543 34 L543 0 C493.667 2 410.667 3 294 3 C180 3 97.6667 2 47 0 L47 21 Z " /><g transform="translate(503,0)" ><path fill="black" d="M-265 785 C-231 811 -194.667 841.667 -156 877 C-133.333 898.333 -113 916.667 -97 926 C-86.3333 932.667 -76.3333 936 -67 936 C-54.3333 936 -44 930.333 -36 919 C-32 913 -30 906.667 -30 900 C-30 885.333 -39 872 -57 860 C-69.6667 852.667 -92 842.667 -124 830 C-160 816.667 -210 797.333 -258 772 L-265 785 Z " /></g></glyph>
<glyph glyph-name="Zcaron" unicode="&#x17d;" horiz-adv-x="594" >
<path fill="black" d="M47 21 L444 684 L232 684 C154.079 684 123.61 646.357 86 488 L62 488 C70.6667 558 75 620.667 75 676 L75 708 C121 706 198.333 705 307 705 C420.333 705 501.333 706 550 708 L550 687 L153 24 L279 24 C442.083 27.4167 482.167 63.8333 532 230 L556 230 C547.333 158.667 543 93.3333 543 34 L543 0 C493.667 2 410.667 3 294 3 C180 3 97.6667 2 47 0 L47 21 Z " /><g transform="translate(533,0)" ><path fill="black" d="M-248 773 C-305.333 828.333 -362 873.667 -418 909 L-411 924 C-352.333 905.333 -271.333 874.333 -218 849 C-160.667 881 -109.667 906 -65 924 L-59 909 C-112.333 876.333 -169 831 -229 773 L-248 773 Z " /></g></glyph>
<glyph glyph-name="Zdotaccent" unicode="&#x17b;" horiz-adv-x="594" >
<path fill="black" d="M47 21 L444 684 L232 684 C154.079 684 123.61 646.357 86 488 L62 488 C70.6667 558 75 620.667 75 676 L75 708 C121 706 198.333 705 307 705 C420.333 705 501.333 706 550 708 L550 687 L153 24 L279 24 C442.083 27.4167 482.167 63.8333 532 230 L556 230 C547.333 158.667 543 93.3333 543 34 L543 0 C493.667 2 410.667 3 294 3 C180 3 97.6667 2 47 0 L47 21 Z " /><g transform="translate(415,0)" ><path fill="black" d="M-120 778 C-152 778 -178 804 -178 836 C-178 868 -152 894 -120 894 C-88 894 -61 868 -61 836 C-61 804 -88 778 -120 778 Z " /></g></glyph>
<glyph glyph-name="a" unicode="a" horiz-adv-x="498" d="M171 -14 C91 -14 39 34.6667 39 108 C39 170.667 77.6667 209.667 123 231 C145.667 241.667 175.333 253 212 265 C285.333 289 320 305.333 320 340 L320 412 C320 476 288.667 508 226 508 C174 508 128 486 128 462 C128 452.667 135.667 441.667 145 431 C159.667 415 167 400.667 167 388 C167 364 148 347 120 347 C86.6667 347 62 373 62 409 C62 475.5 145.367 529 250 529 C302 529 341.333 516.667 368 492 C397.333 465.333 410 418.667 410 344 L410 67 C410 35.6667 420.667 20 442 20 C455.333 20 466 25 486 41 L497 23 C465 -2.33333 444.667 -14 406 -14 C348.667 -14 320 15.6667 320 75 C286.667 17.6667 232.333 -14 171 -14 Z M213 33 C257 33 290.667 53.6667 320 103 L320 298 C308 279.333 288.333 268.667 247 250 C177.5 217.583 137.25 197.167 133 119 C133 65.6667 162.333 33 213 33 Z " />
<glyph glyph-name="aacute" unicode="&#xe1;" horiz-adv-x="498" >
<path fill="black" d="M171 -14 C91 -14 39 34.6667 39 108 C39 170.667 77.6667 209.667 123 231 C145.667 241.667 175.333 253 212 265 C285.333 289 320 305.333 320 340 L320 412 C320 476 288.667 508 226 508 C174 508 128 486 128 462 C128 452.667 135.667 441.667 145 431 C159.667 415 167 400.667 167 388 C167 364 148 347 120 347 C86.6667 347 62 373 62 409 C62 475.5 145.367 529 250 529 C302 529 341.333 516.667 368 492 C397.333 465.333 410 418.667 410 344 L410 67 C410 35.6667 420.667 20 442 20 C455.333 20 466 25 486 41 L497 23 C465 -2.33333 444.667 -14 406 -14 C348.667 -14 320 15.6667 320 75 C286.667 17.6667 232.333 -14 171 -14 Z M213 33 C257 33 290.667 53.6667 320 103 L320 298 C308 279.333 288.333 268.667 247 250 C177.5 217.583 137.25 197.167 133 119 C133 65.6667 162.333 33 213 33 Z " /><g transform="translate(407,0)" ><path fill="black" d="M-193 608 C-173 640.667 -150.667 680.667 -126 728 C-112.667 756 -98.3333 780.667 -85 798 C-73.6667 813.333 -60.6667 821 -46 821 C-38 821 -30.6667 818.333 -24 813 C-14.6667 805 -10 795.667 -10 785 C-10 774.333 -14.6667 762.667 -24 750 C-35.3333 735.333 -55 716.333 -83 693 C-123 657.667 -156 626.333 -182 599 L-193 608 Z " /></g></glyph>
<glyph glyph-name="abreve" unicode="&#x103;" horiz-adv-x="498" >
<path fill="black" d="M171 -14 C91 -14 39 34.6667 39 108 C39 170.667 77.6667 209.667 123 231 C145.667 241.667 175.333 253 212 265 C285.333 289 320 305.333 320 340 L320 412 C320 476 288.667 508 226 508 C174 508 128 486 128 462 C128 452.667 135.667 441.667 145 431 C159.667 415 167 400.667 167 388 C167 364 148 347 120 347 C86.6667 347 62 373 62 409 C62 475.5 145.367 529 250 529 C302 529 341.333 516.667 368 492 C397.333 465.333 410 418.667 410 344 L410 67 C410 35.6667 420.667 20 442 20 C455.333 20 466 25 486 41 L497 23 C465 -2.33333 444.667 -14 406 -14 C348.667 -14 320 15.6667 320 75 C286.667 17.6667 232.333 -14 171 -14 Z M213 33 C257 33 290.667 53.6667 320 103 L320 298 C308 279.333 288.333 268.667 247 250 C177.5 217.583 137.25 197.167 133 119 C133 65.6667 162.333 33 213 33 Z " /><g transform="translate(460,0)" ><path fill="black" d="M-214 616 C-295.333 616 -356.667 672.667 -374 766 L-359 771 C-327 705.667 -280.667 675 -214 675 C-147.333 675 -101 705.667 -69 771 L-54 766 C-71.3333 672.667 -132.667 616 -214 616 Z " /></g></glyph>
<glyph glyph-name="uni1EAF" unicode="&#x1eaf;" horiz-adv-x="498" >
<path fill="black" d="M171 -14 C91 -14 39 34.6667 39 108 C39 170.667 77.6667 209.667 123 231 C145.667 241.667 175.333 253 212 265 C285.333 289 320 305.333 320 340 L320 412 C320 476 288.667 508 226 508 C174 508 128 486 128 462 C128 452.667 135.667 441.667 145 431 C159.667 415 167 400.667 167 388 C167 364 148 347 120 347 C86.6667 347 62 373 62 409 C62 475.5 145.367 529 250 529 C302 529 341.333 516.667 368 492 C397.333 465.333 410 418.667 410 344 L410 67 C410 35.6667 420.667 20 442 20 C455.333 20 466 25 486 41 L497 23 C465 -2.33333 444.667 -14 406 -14 C348.667 -14 320 15.6667 320 75 C286.667 17.6667 232.333 -14 171 -14 Z M213 33 C257 33 290.667 53.6667 320 103 L320 298 C308 279.333 288.333 268.667 247 250 C177.5 217.583 137.25 197.167 133 119 C133 65.6667 162.333 33 213 33 Z " /><g transform="translate(449,0)" ><path fill="black" d="M-203 594 C-280.333 594 -337.667 647 -351 735 L-337 740 C-310.333 682.667 -265.667 654 -203 654 C-140.333 654 -95.6667 682.667 -69 740 L-55 735 C-68.3333 647 -125.667 594 -203 594 Z " /></g><g transform="translate(365,121)" ><path fill="black" d="M-135 611 C-124.333 639 -113.667 674 -103 716 C-96.3333 744.667 -90.3333 764.333 -85 775 C-75.6667 793.667 -60 803 -44 803 C-40.6667 803 -35.6667 801.667 -29 799 C-16.3333 792.333 -10 781.333 -10 766 C-10 757.333 -12.3333 748.667 -17 740 C-29 718.667 -54.6667 689.667 -60 683 C-87.3333 651 -108.333 624.667 -123 604 L-135 611 Z " /></g></glyph>
<glyph glyph-name="uni1EB7" unicode="&#x1eb7;" horiz-adv-x="498" >
<path fill="black" d="M171 -14 C91 -14 39 34.6667 39 108 C39 170.667 77.6667 209.667 123 231 C145.667 241.667 175.333 253 212 265 C285.333 289 320 305.333 320 340 L320 412 C320 476 288.667 508 226 508 C174 508 128 486 128 462 C128 452.667 135.667 441.667 145 431 C159.667 415 167 400.667 167 388 C167 364 148 347 120 347 C86.6667 347 62 373 62 409 C62 475.5 145.367 529 250 529 C302 529 341.333 516.667 368 492 C397.333 465.333 410 418.667 410 344 L410 67 C410 35.6667 420.667 20 442 20 C455.333 20 466 25 486 41 L497 23 C465 -2.33333 444.667 -14 406 -14 C348.667 -14 320 15.6667 320 75 C286.667 17.6667 232.333 -14 171 -14 Z M213 33 C257 33 290.667 53.6667 320 103 L320 298 C308 279.333 288.333 268.667 247 250 C177.5 217.583 137.25 197.167 133 119 C133 65.6667 162.333 33 213 33 Z " /><g transform="translate(369,0)" ><path fill="black" d="M-120 -193 C-152 -193 -178 -167 -178 -135 C-178 -103 -152 -77 -120 -77 C-88 -77 -61 -103 -61 -135 C-61 -167 -88 -193 -120 -193 Z " /></g><g transform="translate(460,0)" ><path fill="black" d="M-214 616 C-295.333 616 -356.667 672.667 -374 766 L-359 771 C-327 705.667 -280.667 675 -214 675 C-147.333 675 -101 705.667 -69 771 L-54 766 C-71.3333 672.667 -132.667 616 -214 616 Z " /></g></glyph>
<glyph glyph-name="uni1EB1" unicode="&#x1eb1;" horiz-adv-x="498" >
<path fill="black" d="M171 -14 C91 -14 39 34.6667 39 108 C39 170.667 77.6667 209.667 123 231 C145.667 241.667 175.333 253 212 265 C285.333 289 320 305.333 320 340 L320 412 C320 476 288.667 508 226 508 C174 508 128 486 128 462 C128 452.667 135.667 441.667 145 431 C159.667 415 167 400.667 167 388 C167 364 148 347 120 347 C86.6667 347 62 373 62 409 C62 475.5 145.367 529 250 529 C302 529 341.333 516.667 368 492 C397.333 465.333 410 418.667 410 344 L410 67 C410 35.6667 420.667 20 442 20 C455.333 20 466 25 486 41 L497 23 C465 -2.33333 444.667 -14 406 -14 C348.667 -14 320 15.6667 320 75 C286.667 17.6667 232.333 -14 171 -14 Z M213 33 C257 33 290.667 53.6667 320 103 L320 298 C308 279.333 288.333 268.667 247 250 C177.5 217.583 137.25 197.167 133 119 C133 65.6667 162.333 33 213 33 Z " /><g transform="translate(449,0)" ><path fill="black" d="M-203 594 C-280.333 594 -337.667 647 -351 735 L-337 740 C-310.333 682.667 -265.667 654 -203 654 C-140.333 654 -95.6667 682.667 -69 740 L-55 735 C-68.3333 647 -125.667 594 -203 594 Z " /></g><g transform="translate(323,121)" ><path fill="black" d="M-73 604 C-87.6667 624.667 -108.667 651 -136 683 C-141.333 689.667 -167 718.667 -179 740 C-183.667 748.667 -186 757.333 -186 766 C-186 781.333 -179.667 792.333 -167 799 C-160.333 801.667 -155 803 -151 803 C-135 803 -119 793.667 -111 775 C-106.333 765.667 -100 745.667 -92 715 C-84 683 -73.3333 648.333 -60 611 L-73 604 Z " /></g></glyph>
<glyph glyph-name="uni1EB3" unicode="&#x1eb3;" horiz-adv-x="498" >
<path fill="black" d="M171 -14 C91 -14 39 34.6667 39 108 C39 170.667 77.6667 209.667 123 231 C145.667 241.667 175.333 253 212 265 C285.333 289 320 305.333 320 340 L320 412 C320 476 288.667 508 226 508 C174 508 128 486 128 462 C128 452.667 135.667 441.667 145 431 C159.667 415 167 400.667 167 388 C167 364 148 347 120 347 C86.6667 347 62 373 62 409 C62 475.5 145.367 529 250 529 C302 529 341.333 516.667 368 492 C397.333 465.333 410 418.667 410 344 L410 67 C410 35.6667 420.667 20 442 20 C455.333 20 466 25 486 41 L497 23 C465 -2.33333 444.667 -14 406 -14 C348.667 -14 320 15.6667 320 75 C286.667 17.6667 232.333 -14 171 -14 Z M213 33 C257 33 290.667 53.6667 320 103 L320 298 C308 279.333 288.333 268.667 247 250 C177.5 217.583 137.25 197.167 133 119 C133 65.6667 162.333 33 213 33 Z " /><g transform="translate(449,0)" ><path fill="black" d="M-203 594 C-280.333 594 -337.667 647 -351 735 L-337 740 C-310.333 682.667 -265.667 654 -203 654 C-140.333 654 -95.6667 682.667 -69 740 L-55 735 C-68.3333 647 -125.667 594 -203 594 Z " /></g><g transform="translate(406,104)" ><path fill="black" d="M-170 667 C-132.667 685 -114 711.333 -114 746 C-114 779.333 -134.667 799 -168 799 C-194.667 799 -217 787.333 -217 774 C-217 767.333 -198 744.333 -198 731 C-198 716.333 -209.667 704 -227 704 C-248.333 704 -262 720.333 -262 743 C-262 785.667 -210.667 820 -148 820 C-86.6667 820 -45 791.333 -45 750 C-45 708.667 -84.6667 674.333 -150 657 L-150 612 L-170 612 L-170 667 Z " /></g></glyph>
<glyph glyph-name="uni1EB5" unicode="&#x1eb5;" horiz-adv-x="498" >
<path fill="black" d="M171 -14 C91 -14 39 34.6667 39 108 C39 170.667 77.6667 209.667 123 231 C145.667 241.667 175.333 253 212 265 C285.333 289 320 305.333 320 340 L320 412 C320 476 288.667 508 226 508 C174 508 128 486 128 462 C128 452.667 135.667 441.667 145 431 C159.667 415 167 400.667 167 388 C167 364 148 347 120 347 C86.6667 347 62 373 62 409 C62 475.5 145.367 529 250 529 C302 529 341.333 516.667 368 492 C397.333 465.333 410 418.667 410 344 L410 67 C410 35.6667 420.667 20 442 20 C455.333 20 466 25 486 41 L497 23 C465 -2.33333 444.667 -14 406 -14 C348.667 -14 320 15.6667 320 75 C286.667 17.6667 232.333 -14 171 -14 Z M213 33 C257 33 290.667 53.6667 320 103 L320 298 C308 279.333 288.333 268.667 247 250 C177.5 217.583 137.25 197.167 133 119 C133 65.6667 162.333 33 213 33 Z " /><g transform="translate(449,0)" ><path fill="black" d="M-203 594 C-280.333 594 -337.667 647 -351 735 L-337 740 C-310.333 682.667 -265.667 654 -203 654 C-140.333 654 -95.6667 682.667 -69 740 L-55 735 C-68.3333 647 -125.667 594 -203 594 Z " /></g><g transform="translate(421,166)" ><path fill="black" d="M-323 639 C-305.667 703 -269.667 738 -223 738 C-197.667 738 -180.333 729 -155 713 C-131 698.333 -118.333 692 -101 692 C-78.3333 692 -59.6667 706 -41 738 L-26 733 C-44.6667 669 -78.6667 634 -124 634 C-150.667 634 -165 642.667 -197 660 C-218.333 673.333 -233 681 -249 681 C-271 681 -290.667 665.333 -308 634 L-323 639 Z " /></g></glyph>
<glyph glyph-name="uni01CE" unicode="&#x1ce;" horiz-adv-x="498" >
<path fill="black" d="M171 -14 C91 -14 39 34.6667 39 108 C39 170.667 77.6667 209.667 123 231 C145.667 241.667 175.333 253 212 265 C285.333 289 320 305.333 320 340 L320 412 C320 476 288.667 508 226 508 C174 508 128 486 128 462 C128 452.667 135.667 441.667 145 431 C159.667 415 167 400.667 167 388 C167 364 148 347 120 347 C86.6667 347 62 373 62 409 C62 475.5 145.367 529 250 529 C302 529 341.333 516.667 368 492 C397.333 465.333 410 418.667 410 344 L410 67 C410 35.6667 420.667 20 442 20 C455.333 20 466 25 486 41 L497 23 C465 -2.33333 444.667 -14 406 -14 C348.667 -14 320 15.6667 320 75 C286.667 17.6667 232.333 -14 171 -14 Z M213 33 C257 33 290.667 53.6667 320 103 L320 298 C308 279.333 288.333 268.667 247 250 C177.5 217.583 137.25 197.167 133 119 C133 65.6667 162.333 33 213 33 Z " /><g transform="translate(446,0)" ><path fill="black" d="M-210 616 C-259.333 698.667 -300.667 755.667 -350 809 L-339 822 C-289.667 791.333 -223.667 740.667 -181 702 C-141 749.333 -101.667 789.333 -63 822 L-51 811 C-95 765.667 -142 700.667 -192 616 L-210 616 Z " /></g></glyph>
<glyph glyph-name="acircumflex" unicode="&#xe2;" horiz-adv-x="498" >
<path fill="black" d="M171 -14 C91 -14 39 34.6667 39 108 C39 170.667 77.6667 209.667 123 231 C145.667 241.667 175.333 253 212 265 C285.333 289 320 305.333 320 340 L320 412 C320 476 288.667 508 226 508 C174 508 128 486 128 462 C128 452.667 135.667 441.667 145 431 C159.667 415 167 400.667 167 388 C167 364 148 347 120 347 C86.6667 347 62 373 62 409 C62 475.5 145.367 529 250 529 C302 529 341.333 516.667 368 492 C397.333 465.333 410 418.667 410 344 L410 67 C410 35.6667 420.667 20 442 20 C455.333 20 466 25 486 41 L497 23 C465 -2.33333 444.667 -14 406 -14 C348.667 -14 320 15.6667 320 75 C286.667 17.6667 232.333 -14 171 -14 Z M213 33 C257 33 290.667 53.6667 320 103 L320 298 C308 279.333 288.333 268.667 247 250 C177.5 217.583 137.25 197.167 133 119 C133 65.6667 162.333 33 213 33 Z " /><g transform="translate(447,0)" ><path fill="black" d="M-351 627 C-305.667 675 -258.667 740 -210 822 L-192 822 C-144 740.667 -102.667 683.667 -52 629 L-63 616 C-112.333 646.667 -178.333 697.333 -221 736 C-261 688.667 -300.333 648.667 -339 616 L-351 627 Z " /></g></glyph>
<glyph glyph-name="uni1EA5" unicode="&#x1ea5;" horiz-adv-x="498" >
<path fill="black" d="M171 -14 C91 -14 39 34.6667 39 108 C39 170.667 77.6667 209.667 123 231 C145.667 241.667 175.333 253 212 265 C285.333 289 320 305.333 320 340 L320 412 C320 476 288.667 508 226 508 C174 508 128 486 128 462 C128 452.667 135.667 441.667 145 431 C159.667 415 167 400.667 167 388 C167 364 148 347 120 347 C86.6667 347 62 373 62 409 C62 475.5 145.367 529 250 529 C302 529 341.333 516.667 368 492 C397.333 465.333 410 418.667 410 344 L410 67 C410 35.6667 420.667 20 442 20 C455.333 20 466 25 486 41 L497 23 C465 -2.33333 444.667 -14 406 -14 C348.667 -14 320 15.6667 320 75 C286.667 17.6667 232.333 -14 171 -14 Z M213 33 C257 33 290.667 53.6667 320 103 L320 298 C308 279.333 288.333 268.667 247 250 C177.5 217.583 137.25 197.167 133 119 C133 65.6667 162.333 33 213 33 Z " /><g transform="translate(447,0)" ><path fill="black" d="M-350 585 C-302.667 626.333 -256 678.333 -210 741 L-192 741 C-146.667 679 -100.333 627.667 -53 587 L-61 574 C-113 599.333 -178.333 635.667 -221 665 C-264.333 627 -304.333 596.333 -341 573 L-350 585 Z " /></g><g transform="translate(480,121)" ><path fill="black" d="M-135 611 C-124.333 639 -113.667 674 -103 716 C-96.3333 744.667 -90.3333 764.333 -85 775 C-75.6667 793.667 -60 803 -44 803 C-40.6667 803 -35.6667 801.667 -29 799 C-16.3333 792.333 -10 781.333 -10 766 C-10 757.333 -12.3333 748.667 -17 740 C-29 718.667 -54.6667 689.667 -60 683 C-87.3333 651 -108.333 624.667 -123 604 L-135 611 Z " /></g></glyph>
<glyph glyph-name="uni1EAD" unicode="&#x1ead;" horiz-adv-x="498" >
<path fill="black" d="M171 -14 C91 -14 39 34.6667 39 108 C39 170.667 77.6667 209.667 123 231 C145.667 241.667 175.333 253 212 265 C285.333 289 320 305.333 320 340 L320 412 C320 476 288.667 508 226 508 C174 508 128 486 128 462 C128 452.667 135.667 441.667 145 431 C159.667 415 167 400.667 167 388 C167 364 148 347 120 347 C86.6667 347 62 373 62 409 C62 475.5 145.367 529 250 529 C302 529 341.333 516.667 368 492 C397.333 465.333 410 418.667 410 344 L410 67 C410 35.6667 420.667 20 442 20 C455.333 20 466 25 486 41 L497 23 C465 -2.33333 444.667 -14 406 -14 C348.667 -14 320 15.6667 320 75 C286.667 17.6667 232.333 -14 171 -14 Z M213 33 C257 33 290.667 53.6667 320 103 L320 298 C308 279.333 288.333 268.667 247 250 C177.5 217.583 137.25 197.167 133 119 C133 65.6667 162.333 33 213 33 Z " /><g transform="translate(447,0)" ><path fill="black" d="M-351 627 C-305.667 675 -258.667 740 -210 822 L-192 822 C-144 740.667 -102.667 683.667 -52 629 L-63 616 C-112.333 646.667 -178.333 697.333 -221 736 C-261 688.667 -300.333 648.667 -339 616 L-351 627 Z " /></g><g transform="translate(369,0)" ><path fill="black" d="M-120 -193 C-152 -193 -178 -167 -178 -135 C-178 -103 -152 -77 -120 -77 C-88 -77 -61 -103 -61 -135 C-61 -167 -88 -193 -120 -193 Z " /></g></glyph>
<glyph glyph-name="uni1EA7" unicode="&#x1ea7;" horiz-adv-x="498" >
<path fill="black" d="M171 -14 C91 -14 39 34.6667 39 108 C39 170.667 77.6667 209.667 123 231 C145.667 241.667 175.333 253 212 265 C285.333 289 320 305.333 320 340 L320 412 C320 476 288.667 508 226 508 C174 508 128 486 128 462 C128 452.667 135.667 441.667 145 431 C159.667 415 167 400.667 167 388 C167 364 148 347 120 347 C86.6667 347 62 373 62 409 C62 475.5 145.367 529 250 529 C302 529 341.333 516.667 368 492 C397.333 465.333 410 418.667 410 344 L410 67 C410 35.6667 420.667 20 442 20 C455.333 20 466 25 486 41 L497 23 C465 -2.33333 444.667 -14 406 -14 C348.667 -14 320 15.6667 320 75 C286.667 17.6667 232.333 -14 171 -14 Z M213 33 C257 33 290.667 53.6667 320 103 L320 298 C308 279.333 288.333 268.667 247 250 C177.5 217.583 137.25 197.167 133 119 C133 65.6667 162.333 33 213 33 Z " /><g transform="translate(447,0)" ><path fill="black" d="M-350 585 C-302.667 626.333 -256 678.333 -210 741 L-192 741 C-146.667 679 -100.333 627.667 -53 587 L-61 574 C-113 599.333 -178.333 635.667 -221 665 C-264.333 627 -304.333 596.333 -341 573 L-350 585 Z " /></g><g transform="translate(208,121)" ><path fill="black" d="M-73 604 C-87.6667 624.667 -108.667 651 -136 683 C-141.333 689.667 -167 718.667 -179 740 C-183.667 748.667 -186 757.333 -186 766 C-186 781.333 -179.667 792.333 -167 799 C-160.333 801.667 -155 803 -151 803 C-135 803 -119 793.667 -111 775 C-106.333 765.667 -100 745.667 -92 715 C-84 683 -73.3333 648.333 -60 611 L-73 604 Z " /></g></glyph>
<glyph glyph-name="uni1EA9" unicode="&#x1ea9;" horiz-adv-x="498" >
<path fill="black" d="M171 -14 C91 -14 39 34.6667 39 108 C39 170.667 77.6667 209.667 123 231 C145.667 241.667 175.333 253 212 265 C285.333 289 320 305.333 320 340 L320 412 C320 476 288.667 508 226 508 C174 508 128 486 128 462 C128 452.667 135.667 441.667 145 431 C159.667 415 167 400.667 167 388 C167 364 148 347 120 347 C86.6667 347 62 373 62 409 C62 475.5 145.367 529 250 529 C302 529 341.333 516.667 368 492 C397.333 465.333 410 418.667 410 344 L410 67 C410 35.6667 420.667 20 442 20 C455.333 20 466 25 486 41 L497 23 C465 -2.33333 444.667 -14 406 -14 C348.667 -14 320 15.6667 320 75 C286.667 17.6667 232.333 -14 171 -14 Z M213 33 C257 33 290.667 53.6667 320 103 L320 298 C308 279.333 288.333 268.667 247 250 C177.5 217.583 137.25 197.167 133 119 C133 65.6667 162.333 33 213 33 Z " /><g transform="translate(447,0)" ><path fill="black" d="M-350 585 C-302.667 626.333 -256 678.333 -210 741 L-192 741 C-146.667 679 -100.333 627.667 -53 587 L-61 574 C-113 599.333 -178.333 635.667 -221 665 C-264.333 627 -304.333 596.333 -341 573 L-350 585 Z " /></g><g transform="translate(526,104)" ><path fill="black" d="M-170 667 C-132.667 685 -114 711.333 -114 746 C-114 779.333 -134.667 799 -168 799 C-194.667 799 -217 787.333 -217 774 C-217 767.333 -198 744.333 -198 731 C-198 716.333 -209.667 704 -227 704 C-248.333 704 -262 720.333 -262 743 C-262 785.667 -210.667 820 -148 820 C-86.6667 820 -45 791.333 -45 750 C-45 708.667 -84.6667 674.333 -150 657 L-150 612 L-170 612 L-170 667 Z " /></g></glyph>
<glyph glyph-name="uni1EAB" unicode="&#x1eab;" horiz-adv-x="498" >
<path fill="black" d="M171 -14 C91 -14 39 34.6667 39 108 C39 170.667 77.6667 209.667 123 231 C145.667 241.667 175.333 253 212 265 C285.333 289 320 305.333 320 340 L320 412 C320 476 288.667 508 226 508 C174 508 128 486 128 462 C128 452.667 135.667 441.667 145 431 C159.667 415 167 400.667 167 388 C167 364 148 347 120 347 C86.6667 347 62 373 62 409 C62 475.5 145.367 529 250 529 C302 529 341.333 516.667 368 492 C397.333 465.333 410 418.667 410 344 L410 67 C410 35.6667 420.667 20 442 20 C455.333 20 466 25 486 41 L497 23 C465 -2.33333 444.667 -14 406 -14 C348.667 -14 320 15.6667 320 75 C286.667 17.6667 232.333 -14 171 -14 Z M213 33 C257 33 290.667 53.6667 320 103 L320 298 C308 279.333 288.333 268.667 247 250 C177.5 217.583 137.25 197.167 133 119 C133 65.6667 162.333 33 213 33 Z " /><g transform="translate(447,0)" ><path fill="black" d="M-350 585 C-302.667 626.333 -256 678.333 -210 741 L-192 741 C-146.667 679 -100.333 627.667 -53 587 L-61 574 C-113 599.333 -178.333 635.667 -221 665 C-264.333 627 -304.333 596.333 -341 573 L-350 585 Z " /></g><g transform="translate(421,166)" ><path fill="black" d="M-323 639 C-305.667 703 -269.667 738 -223 738 C-197.667 738 -180.333 729 -155 713 C-131 698.333 -118.333 692 -101 692 C-78.3333 692 -59.6667 706 -41 738 L-26 733 C-44.6667 669 -78.6667 634 -124 634 C-150.667 634 -165 642.667 -197 660 C-218.333 673.333 -233 681 -249 681 C-271 681 -290.667 665.333 -308 634 L-323 639 Z " /></g></glyph>
<glyph glyph-name="adieresis" unicode="&#xe4;" horiz-adv-x="498" >
<path fill="black" d="M171 -14 C91 -14 39 34.6667 39 108 C39 170.667 77.6667 209.667 123 231 C145.667 241.667 175.333 253 212 265 C285.333 289 320 305.333 320 340 L320 412 C320 476 288.667 508 226 508 C174 508 128 486 128 462 C128 452.667 135.667 441.667 145 431 C159.667 415 167 400.667 167 388 C167 364 148 347 120 347 C86.6667 347 62 373 62 409 C62 475.5 145.367 529 250 529 C302 529 341.333 516.667 368 492 C397.333 465.333 410 418.667 410 344 L410 67 C410 35.6667 420.667 20 442 20 C455.333 20 466 25 486 41 L497 23 C465 -2.33333 444.667 -14 406 -14 C348.667 -14 320 15.6667 320 75 C286.667 17.6667 232.333 -14 171 -14 Z M213 33 C257 33 290.667 53.6667 320 103 L320 298 C308 279.333 288.333 268.667 247 250 C177.5 217.583 137.25 197.167 133 119 C133 65.6667 162.333 33 213 33 Z " /><g transform="translate(474,0)" ><path fill="black" d="M-334 641 C-367.333 641 -394 667.667 -394 701 C-394 734.333 -367.333 761 -334 761 C-300.667 761 -274 734.333 -274 701 C-274 667.667 -300.667 641 -334 641 Z M-122 641 C-155.333 641 -182 667.667 -182 701 C-182 734.333 -155.333 761 -122 761 C-88.6667 761 -62 734.333 -62 701 C-62 667.667 -88.6667 641 -122 641 Z " /></g></glyph>
<glyph glyph-name="uni1EA1" unicode="&#x1ea1;" horiz-adv-x="498" >
<path fill="black" d="M171 -14 C91 -14 39 34.6667 39 108 C39 170.667 77.6667 209.667 123 231 C145.667 241.667 175.333 253 212 265 C285.333 289 320 305.333 320 340 L320 412 C320 476 288.667 508 226 508 C174 508 128 486 128 462 C128 452.667 135.667 441.667 145 431 C159.667 415 167 400.667 167 388 C167 364 148 347 120 347 C86.6667 347 62 373 62 409 C62 475.5 145.367 529 250 529 C302 529 341.333 516.667 368 492 C397.333 465.333 410 418.667 410 344 L410 67 C410 35.6667 420.667 20 442 20 C455.333 20 466 25 486 41 L497 23 C465 -2.33333 444.667 -14 406 -14 C348.667 -14 320 15.6667 320 75 C286.667 17.6667 232.333 -14 171 -14 Z M213 33 C257 33 290.667 53.6667 320 103 L320 298 C308 279.333 288.333 268.667 247 250 C177.5 217.583 137.25 197.167 133 119 C133 65.6667 162.333 33 213 33 Z " /><g transform="translate(369,0)" ><path fill="black" d="M-120 -193 C-152 -193 -178 -167 -178 -135 C-178 -103 -152 -77 -120 -77 C-88 -77 -61 -103 -61 -135 C-61 -167 -88 -193 -120 -193 Z " /></g></glyph>
<glyph glyph-name="agrave" unicode="&#xe0;" horiz-adv-x="498" >
<path fill="black" d="M171 -14 C91 -14 39 34.6667 39 108 C39 170.667 77.6667 209.667 123 231 C145.667 241.667 175.333 253 212 265 C285.333 289 320 305.333 320 340 L320 412 C320 476 288.667 508 226 508 C174 508 128 486 128 462 C128 452.667 135.667 441.667 145 431 C159.667 415 167 400.667 167 388 C167 364 148 347 120 347 C86.6667 347 62 373 62 409 C62 475.5 145.367 529 250 529 C302 529 341.333 516.667 368 492 C397.333 465.333 410 418.667 410 344 L410 67 C410 35.6667 420.667 20 442 20 C455.333 20 466 25 486 41 L497 23 C465 -2.33333 444.667 -14 406 -14 C348.667 -14 320 15.6667 320 75 C286.667 17.6667 232.333 -14 171 -14 Z M213 33 C257 33 290.667 53.6667 320 103 L320 298 C308 279.333 288.333 268.667 247 250 C177.5 217.583 137.25 197.167 133 119 C133 65.6667 162.333 33 213 33 Z " /><g transform="translate(322,0)" ><path fill="black" d="M-61 599 C-87 626.333 -120 657.667 -160 693 C-188 716.333 -207.667 735.333 -219 750 C-228.333 762.667 -233 774.333 -233 785 C-233 797 -228.333 806.333 -219 813 C-212.333 817.667 -205 820 -197 820 C-181.667 820 -168.667 812.667 -158 798 C-144.667 780.667 -130.333 756 -117 728 C-92.3333 680.667 -70 640.667 -50 608 L-61 599 Z " /></g></glyph>
<glyph glyph-name="uni1EA3" unicode="&#x1ea3;" horiz-adv-x="498" >
<path fill="black" d="M171 -14 C91 -14 39 34.6667 39 108 C39 170.667 77.6667 209.667 123 231 C145.667 241.667 175.333 253 212 265 C285.333 289 320 305.333 320 340 L320 412 C320 476 288.667 508 226 508 C174 508 128 486 128 462 C128 452.667 135.667 441.667 145 431 C159.667 415 167 400.667 167 388 C167 364 148 347 120 347 C86.6667 347 62 373 62 409 C62 475.5 145.367 529 250 529 C302 529 341.333 516.667 368 492 C397.333 465.333 410 418.667 410 344 L410 67 C410 35.6667 420.667 20 442 20 C455.333 20 466 25 486 41 L497 23 C465 -2.33333 444.667 -14 406 -14 C348.667 -14 320 15.6667 320 75 C286.667 17.6667 232.333 -14 171 -14 Z M213 33 C257 33 290.667 53.6667 320 103 L320 298 C308 279.333 288.333 268.667 247 250 C177.5 217.583 137.25 197.167 133 119 C133 65.6667 162.333 33 213 33 Z " /><g transform="translate(406,0)" ><path fill="black" d="M-170 667 C-132.667 685 -114 711.333 -114 746 C-114 779.333 -134.667 799 -168 799 C-194.667 799 -217 787.333 -217 774 C-217 767.333 -198 744.333 -198 731 C-198 716.333 -209.667 704 -227 704 C-248.333 704 -262 720.333 -262 743 C-262 785.667 -210.667 820 -148 820 C-86.6667 820 -45 791.333 -45 750 C-45 708.667 -84.6667 674.333 -150 657 L-150 612 L-170 612 L-170 667 Z " /></g></glyph>
<glyph glyph-name="amacron" unicode="&#x101;" horiz-adv-x="498" >
<path fill="black" d="M171 -14 C91 -14 39 34.6667 39 108 C39 170.667 77.6667 209.667 123 231 C145.667 241.667 175.333 253 212 265 C285.333 289 320 305.333 320 340 L320 412 C320 476 288.667 508 226 508 C174 508 128 486 128 462 C128 452.667 135.667 441.667 145 431 C159.667 415 167 400.667 167 388 C167 364 148 347 120 347 C86.6667 347 62 373 62 409 C62 475.5 145.367 529 250 529 C302 529 341.333 516.667 368 492 C397.333 465.333 410 418.667 410 344 L410 67 C410 35.6667 420.667 20 442 20 C455.333 20 466 25 486 41 L497 23 C465 -2.33333 444.667 -14 406 -14 C348.667 -14 320 15.6667 320 75 C286.667 17.6667 232.333 -14 171 -14 Z M213 33 C257 33 290.667 53.6667 320 103 L320 298 C308 279.333 288.333 268.667 247 250 C177.5 217.583 137.25 197.167 133 119 C133 65.6667 162.333 33 213 33 Z " /><g transform="translate(427,0)" ><path fill="black" d="M-337 686 L-337 713 L-25 713 L-25 686 L-337 686 Z " /></g></glyph>
<glyph glyph-name="aogonek" unicode="&#x105;" horiz-adv-x="498" d="M499 -178 C469 -222.667 431.333 -245 386 -245 C339.333 -245 307 -213.667 307 -167 C307 -117.667 346.333 -66.3333 425 -13 C421 -13.6667 414.667 -14 406 -14 C348.667 -14 320 15.6667 320 75 C286.667 17.6667 232.333 -14 171 -14 C91 -14 39 34.6667 39 108 C39 170.667 77.6667 209.667 123 231 C145.667 241.667 175.333 253 212 265 C285.333 289 320 305.333 320 340 L320 412 C320 476 288.667 508 226 508 C174 508 128 486 128 462 C128 452.667 135.667 441.667 145 431 C159.667 415 167 400.667 167 388 C167 364 148 347 120 347 C86.6667 347 62 373 62 409 C62 475.5 145.367 529 250 529 C302 529 341.333 516.667 368 492 C397.333 465.333 410 418.667 410 344 L410 67 C410 35.6667 420.667 20 442 20 C455.333 20 466 25 486 41 L497 23 C483.667 11.6667 473 4 465 0 C463.667 -0.666667 461.333 -2.66667 458 -6 C410 -50 380 -101.333 380 -140 C380 -173.333 397.333 -196 424 -196 C445.333 -196 470 -184 486 -164 L499 -178 Z M320 298 C308 279.333 288.333 268.667 247 250 C177.5 217.583 137.25 197.167 133 119 C133 65.6667 162.333 33 213 33 C257 33 290.667 53.6667 320 103 L320 298 Z " />
<glyph glyph-name="aring" unicode="&#xe5;" horiz-adv-x="498" >
<path fill="black" d="M171 -14 C91 -14 39 34.6667 39 108 C39 170.667 77.6667 209.667 123 231 C145.667 241.667 175.333 253 212 265 C285.333 289 320 305.333 320 340 L320 412 C320 476 288.667 508 226 508 C174 508 128 486 128 462 C128 452.667 135.667 441.667 145 431 C159.667 415 167 400.667 167 388 C167 364 148 347 120 347 C86.6667 347 62 373 62 409 C62 475.5 145.367 529 250 529 C302 529 341.333 516.667 368 492 C397.333 465.333 410 418.667 410 344 L410 67 C410 35.6667 420.667 20 442 20 C455.333 20 466 25 486 41 L497 23 C465 -2.33333 444.667 -14 406 -14 C348.667 -14 320 15.6667 320 75 C286.667 17.6667 232.333 -14 171 -14 Z M213 33 C257 33 290.667 53.6667 320 103 L320 298 C308 279.333 288.333 268.667 247 250 C177.5 217.583 137.25 197.167 133 119 C133 65.6667 162.333 33 213 33 Z " /><g transform="translate(378,0)" ><path fill="black" d="M-132 607 C-190.667 607 -229 644 -229 700 C-229 754.667 -189.333 792 -132 792 C-73.3333 792 -34 754.667 -34 700 C-34 644 -73.3333 607 -132 607 Z M-132 629 C-89.3333 629 -63 656.333 -63 699 C-63 741.667 -90.6667 770 -132 770 C-173.333 770 -200 741.667 -200 699 C-200 656.333 -173.333 629 -132 629 Z " /></g></glyph>
<glyph glyph-name="atilde" unicode="&#xe3;" horiz-adv-x="498" >
<path fill="black" d="M171 -14 C91 -14 39 34.6667 39 108 C39 170.667 77.6667 209.667 123 231 C145.667 241.667 175.333 253 212 265 C285.333 289 320 305.333 320 340 L320 412 C320 476 288.667 508 226 508 C174 508 128 486 128 462 C128 452.667 135.667 441.667 145 431 C159.667 415 167 400.667 167 388 C167 364 148 347 120 347 C86.6667 347 62 373 62 409 C62 475.5 145.367 529 250 529 C302 529 341.333 516.667 368 492 C397.333 465.333 410 418.667 410 344 L410 67 C410 35.6667 420.667 20 442 20 C455.333 20 466 25 486 41 L497 23 C465 -2.33333 444.667 -14 406 -14 C348.667 -14 320 15.6667 320 75 C286.667 17.6667 232.333 -14 171 -14 Z M213 33 C257 33 290.667 53.6667 320 103 L320 298 C308 279.333 288.333 268.667 247 250 C177.5 217.583 137.25 197.167 133 119 C133 65.6667 162.333 33 213 33 Z " /><g transform="translate(452,0)" ><path fill="black" d="M-139 635 C-169.667 635 -193 648.333 -225 671 C-255.667 692.333 -275.333 702 -298 702 C-328 702 -352 681.333 -370 640 L-387 645 C-368.333 715.667 -328.333 758 -275 758 C-244.333 758 -224 745.667 -188 723 C-160 703 -138 692 -114 692 C-84 692 -60.3333 712.333 -43 753 L-26 748 C-43.3333 678.667 -85.6667 635 -139 635 Z " /></g></glyph>
<glyph glyph-name="ae" unicode="&#xe6;" horiz-adv-x="740" d="M536 22 C592 22 639 59.6667 667 133 L687 125 C661.667 38.3333 595.333 -14 510 -14 C436.667 -14 375.667 33 345 113 C307 28.3333 249 -14 171 -14 C91 -14 39 34.6667 39 108 C39 170.667 77.6667 209.667 123 231 C145.667 241.667 175.333 253 212 265 C285.333 289 320 305.333 320 340 L320 412 C320 476 288.667 508 226 508 C174 508 128 486 128 462 C128 452.667 135.667 441.667 145 431 C159.667 415 167 400.667 167 388 C167 364 148 347 120 347 C86.6667 347 62 373 62 409 C62 475.5 145.367 529 250 529 C302 529 341.333 516.667 368 492 C374.667 486 380.667 478.333 386 469 C420.667 509 465 529 519 529 C628.333 529 695 454.667 695 308 L412 308 C410 295.333 409 277.667 409 255 C409 112.333 456 22 536 22 Z M513 509 C462.333 509 419 448 411 328 L599 328 C601.667 432 571.667 509 513 509 Z M320 298 C308 279.333 288.333 268.667 247 250 C177.5 217.583 137.25 197.167 133 119 C133 65.6667 162.333 33 213 33 C257 33 290.667 53.6667 320 103 L320 298 Z " />
<glyph glyph-name="b" unicode="b" horiz-adv-x="563" d="M323 529 C443 529 516 428 516 264 C516 90.6667 434 -14 302 -14 C240.667 -14 188.667 9 162 45 C130 18.3333 106.333 -2 91 -16 L73 -8 C77.6667 8.66667 80 28 80 50 L80 662 C80 723.333 60 750 4 750 L4 772 C25.3333 770 46 769 66 769 C108 769 142.667 773.667 170 783 L170 442 C203.333 498 256.333 529 323 529 Z M275 16 C368.333 16 419 98 419 254 C419 403.333 373.667 486 287 486 C239 486 198 460 170 412 L170 66 C192.667 34 231 16 275 16 Z " />
<glyph glyph-name="c" unicode="c" horiz-adv-x="487" d="M266 -14 C138 -14 47 94.9167 47 252 C47 412.817 143.683 529 279 529 C369.417 529 445 476.383 445 413 C445 374.333 420.667 347 386 347 C358 347 339 363.667 339 389 C339 406.333 347.333 417.667 362 435 C370 444.333 378 454.667 378 464 C378 486.667 339.333 508 298 508 C202 508 144 414.667 144 260 C144 110.667 198 22 290 22 C351.333 22 402.667 61 432 133 L452 125 C426.667 39.6667 355.333 -14 266 -14 Z " />
<glyph glyph-name="cacute" unicode="&#x107;" horiz-adv-x="487" >
<path fill="black" d="M266 -14 C138 -14 47 94.9167 47 252 C47 412.817 143.683 529 279 529 C369.417 529 445 476.383 445 413 C445 374.333 420.667 347 386 347 C358 347 339 363.667 339 389 C339 406.333 347.333 417.667 362 435 C370 444.333 378 454.667 378 464 C378 486.667 339.333 508 298 508 C202 508 144 414.667 144 260 C144 110.667 198 22 290 22 C351.333 22 402.667 61 432 133 L452 125 C426.667 39.6667 355.333 -14 266 -14 Z " /><g transform="translate(425,0)" ><path fill="black" d="M-193 608 C-173 640.667 -150.667 680.667 -126 728 C-112.667 756 -98.3333 780.667 -85 798 C-73.6667 813.333 -60.6667 821 -46 821 C-38 821 -30.6667 818.333 -24 813 C-14.6667 805 -10 795.667 -10 785 C-10 774.333 -14.6667 762.667 -24 750 C-35.3333 735.333 -55 716.333 -83 693 C-123 657.667 -156 626.333 -182 599 L-193 608 Z " /></g></glyph>
<glyph glyph-name="ccaron" unicode="&#x10d;" horiz-adv-x="487" >
<path fill="black" d="M266 -14 C138 -14 47 94.9167 47 252 C47 412.817 143.683 529 279 529 C369.417 529 445 476.383 445 413 C445 374.333 420.667 347 386 347 C358 347 339 363.667 339 389 C339 406.333 347.333 417.667 362 435 C370 444.333 378 454.667 378 464 C378 486.667 339.333 508 298 508 C202 508 144 414.667 144 260 C144 110.667 198 22 290 22 C351.333 22 402.667 61 432 133 L452 125 C426.667 39.6667 355.333 -14 266 -14 Z " /><g transform="translate(464,0)" ><path fill="black" d="M-210 616 C-259.333 698.667 -300.667 755.667 -350 809 L-339 822 C-289.667 791.333 -223.667 740.667 -181 702 C-141 749.333 -101.667 789.333 -63 822 L-51 811 C-95 765.667 -142 700.667 -192 616 L-210 616 Z " /></g></glyph>
<glyph glyph-name="ccedilla" unicode="&#xe7;" horiz-adv-x="487" d="M260 -14 L234 -80 C244 -77.3333 255.667 -76 269 -76 C325 -76 360 -105 360 -153 C360 -209 309.667 -245 231 -245 C200.333 -245 174.667 -241.333 154 -234 L158 -215 C174 -217.667 186.667 -219 196 -219 C252 -219 286 -194 286 -154 C286 -118 269.333 -100 236 -100 C221.333 -100 207.667 -102.333 195 -107 L233 -11 C123.007 4.99903 47 110.217 47 252 C47 412.817 143.683 529 279 529 C369.417 529 445 476.383 445 413 C445 374.333 420.667 347 386 347 C358 347 339 363.667 339 389 C339 406.333 347.333 417.667 362 435 C370 444.333 378 454.667 378 464 C378 486.667 339.333 508 298 508 C202 508 144 414.667 144 260 C144 110.667 198 22 290 22 C351.333 22 402.667 61 432 133 L452 125 C426.667 39.6667 355.333 -14 266 -14 L260 -14 Z " />
<glyph glyph-name="ccircumflex" unicode="&#x109;" horiz-adv-x="487" >
<path fill="black" d="M266 -14 C138 -14 47 94.9167 47 252 C47 412.817 143.683 529 279 529 C369.417 529 445 476.383 445 413 C445 374.333 420.667 347 386 347 C358 347 339 363.667 339 389 C339 406.333 347.333 417.667 362 435 C370 444.333 378 454.667 378 464 C378 486.667 339.333 508 298 508 C202 508 144 414.667 144 260 C144 110.667 198 22 290 22 C351.333 22 402.667 61 432 133 L452 125 C426.667 39.6667 355.333 -14 266 -14 Z " /><g transform="translate(465,0)" ><path fill="black" d="M-351 627 C-305.667 675 -258.667 740 -210 822 L-192 822 C-144 740.667 -102.667 683.667 -52 629 L-63 616 C-112.333 646.667 -178.333 697.333 -221 736 C-261 688.667 -300.333 648.667 -339 616 L-351 627 Z " /></g></glyph>
<glyph glyph-name="cdotaccent" unicode="&#x10b;" horiz-adv-x="487" >
<path fill="black" d="M266 -14 C138 -14 47 94.9167 47 252 C47 412.817 143.683 529 279 529 C369.417 529 445 476.383 445 413 C445 374.333 420.667 347 386 347 C358 347 339 363.667 339 389 C339 406.333 347.333 417.667 362 435 C370 444.333 378 454.667 378 464 C378 486.667 339.333 508 298 508 C202 508 144 414.667 144 260 C144 110.667 198 22 290 22 C351.333 22 402.667 61 432 133 L452 125 C426.667 39.6667 355.333 -14 266 -14 Z " /><g transform="translate(384,0)" ><path fill="black" d="M-120 643 C-152 643 -178 669 -178 701 C-178 733 -152 759 -120 759 C-88 759 -61 733 -61 701 C-61 669 -88 643 -120 643 Z " /></g></glyph>
<glyph glyph-name="d" unicode="d" horiz-adv-x="581" d="M483 110 C483 46 504.333 22 559 22 L559 0 C538.333 2 517.667 3 497 3 C461 3 426.333 -1.66667 393 -11 L393 73 C359.667 17 307 -14 243 -14 C124.033 -14 47 91.8667 47 255 C47 424.333 128.667 529 262 529 C319.333 529 366.333 510.667 393 480 L393 663 C393 727 371.667 751 317 751 L317 773 C337.667 771 358.333 770 379 770 C415 770 449.667 774.667 483 784 L483 110 Z M279 29 C324.333 29 365 56 393 104 L393 449 C369 481 333 499 289 499 C195.667 499 144 417.667 144 267 C144 117.667 193.667 29 279 29 Z " />
<glyph glyph-name="eth" unicode="&#xf0;" horiz-adv-x="555" d="M307 683 C431 581.667 499 441.667 499 279 C499 95 411.667 -14 269 -14 C130.333 -14 47 87.6667 47 257 C47 423.667 128.667 529 262 529 C307.333 529 344 518 372 496 C350.667 561.333 317 617.667 271 665 L114 589 L105 608 L255 681 C219.667 713.667 178.333 741.667 131 765 L139 782 C195.667 758.667 245.667 730.333 289 697 L452 777 L461 758 L307 683 Z M272 7 C354.667 7 404 97 404 277 C404 346.333 396.667 408.333 382 463 C359.333 487 328.333 499 289 499 C192.333 499 144 418 144 256 C144 101.333 188 7 272 7 Z " />
<glyph glyph-name="dcaron" unicode="&#x10f;" horiz-adv-x="581" d="M483 110 C483 46 504.333 22 559 22 L559 0 C538.333 2 517.667 3 497 3 C461 3 426.333 -1.66667 393 -11 L393 73 C359.667 17 307 -14 243 -14 C124.033 -14 47 91.8667 47 255 C47 424.333 128.667 529 262 529 C319.333 529 366.333 510.667 393 480 L393 663 C393 727 371.667 751 317 751 L317 773 C337.667 771 358.333 770 379 770 C415 770 449.667 774.667 483 784 L483 110 Z M634 784 C636.667 777.333 639 757.667 639 743 C639 707 621 663 573 563 L558 567 C571.333 641 578 689 578 711 C578 739 574 751 558 751 L558 773 L574 772 C592.667 772 612.667 776 634 784 Z M279 29 C324.333 29 365 56 393 104 L393 449 C369 481 333 499 289 499 C195.667 499 144 417.667 144 267 C144 117.667 193.667 29 279 29 Z " />
<glyph glyph-name="dcroat" unicode="&#x111;" horiz-adv-x="581" d="M483 607 L483 110 C483 46 504.333 22 559 22 L559 0 C538.333 2 517.667 3 497 3 C461 3 426.333 -1.66667 393 -11 L393 73 C359.667 17 307 -14 243 -14 C124.033 -14 47 91.8667 47 255 C47 424.333 128.667 529 262 529 C319.333 529 366.333 510.667 393 480 L393 607 L217 607 L217 629 L393 629 L393 663 C393 727 371.667 751 317 751 L317 773 C337.667 771 358.333 770 379 770 C415 770 449.667 774.667 483 784 L483 629 L571 629 L571 607 L483 607 Z M279 29 C324.333 29 365 56 393 104 L393 449 C369 481 333 499 289 499 C195.667 499 144 417.667 144 267 C144 117.667 193.667 29 279 29 Z " />
<glyph glyph-name="e" unicode="e" horiz-adv-x="507" d="M462 125 C435.333 38.3333 359.667 -14 265 -14 C136.317 -14 47 93.8833 47 257 C47 416.283 132.567 529 274 529 C388.667 529 460 454.667 460 308 L147 308 C145 295.333 144 277.667 144 255 C144 112.333 199 22 291 22 C355 22 410 61 442 133 L462 125 Z M268 509 C206.667 509 156.667 448 146 328 L364 328 C366.667 432 333.333 509 268 509 Z " />
</font>
</svg>
