<svg data-name="Layer 1" xmlns="http://www.w3.org/2000/svg" viewBox="0 0 228.2 115.2"><path d="M176 109.2l-18.3-21.1v21.7h-6.8V84.7l6.3-7.5 12 13.5V77.2h6.8zm-32 .6h-6.3v-4.6h-12l6-8h6V85.8l-18.8 24V99.3L137 77.2h7zm-31.1-29.9c3.1 3 4.3 6.8 3.7 11.6a11.2 11.2 0 01-4.1 7.9 16.4 16.4 0 01-9.3 2.3v-8a14.5 14.5 0 004.2-.4l.4-.2c1.9-1.2 2.4-2.8 1.6-5a5.7 5.7 0 00-1.1-1.6 2.4 2.4 0 00-.9-.8c-.8-.5-2.6-.6-5.6-.6v24.7H95V84.7l6.5-7.5c4.1 0 6.9.2 8.2.7a8.3 8.3 0 013.2 2zm111.4-49.5V7a3.7 3.7 0 00-2.6-3.7h-32.4a3.6 3.6 0 00-3.7 2.7 2.3 2.3 0 00-.2 1.2v23.2a3.6 3.6 0 002.6 3.7h32.4a3.7 3.7 0 003.7-2.6 6.9 6.9 0 00.2-1.1zm0 77.8V41.4a3.6 3.6 0 00-2.6-3.7h-.3l-1-.2h-31.1a3.6 3.6 0 00-3.7 2.7 2.7 2.7 0 00-.2 1.3v66.8a3.6 3.6 0 002.6 3.7h32.4a3.6 3.6 0 003.7-2.7 4.3 4.3 0 00.2-1.1zm-81.8-70.8H85.7v-3.1h56.8a1.3 1.3 0 011.5 1.5.2.2 0 010 .3c0 .9-.5 1.3-1.5 1.3zm38.9 27.2V7a3.6 3.6 0 00-2.6-3.7H50.7A3.6 3.6 0 0047 5.8a2.3 2.3 0 00-.2 1.2v101.2a3.6 3.6 0 002.6 3.7h.1l1.2.2h31.1a3.6 3.6 0 003.7-2.7 4.3 4.3 0 00.2-1.2V68.5h91.8a3.5 3.5 0 003.7-2.6 2.5 2.5 0 00.2-1.3zM42.9 30.4V7a3.7 3.7 0 00-2.7-3.7h-.1l-1.2-.2H7.8a3.7 3.7 0 00-3.7 2.7A4.3 4.3 0 003.9 7v23.4a3.6 3.6 0 002.7 3.7l1.2.2h31.1a3.6 3.6 0 003.7-2.6 3.5 3.5 0 00.3-1.3zm0 77.8V41.4a3.6 3.6 0 00-2.7-3.7h-.1a2.7 2.7 0 00-1.2-.3H7.8a3.7 3.7 0 00-3.7 2.7 5.1 5.1 0 00-.2 1.3v66.8a3.7 3.7 0 002.7 3.7l1.2.2h31.1a3.6 3.6 0 003.7-2.7 2.4 2.4 0 00.3-1.2zm185.3 0a6.3 6.3 0 01-4 6.3 6 6 0 01-3 .7h-39.8V71.7H89.6v43.5H7a6.3 6.3 0 01-6.3-4 6.6 6.6 0 01-.7-3V7A6.3 6.3 0 014 .7 6.6 6.6 0 017 0h214.2a6.3 6.3 0 016.3 4 6.6 6.6 0 01.7 3z"/></svg>