<?xml version="1.0" encoding="utf-8"?>
<svg width="315" height="215" viewBox="-5 -5 310 200" xmlns="http://www.w3.org/2000/svg">
  <path d="M77.6 156.8C22.8 156.8 0 114.2 0 78.2 0 45.8 23.6 0 78.8 0c45 0 78.6 28.4 78.6 75 0 44.8-31.6 81.8-79.8 81.8zm5.4-7.6c18 0 55.2-10.4 55.2-68.6 0-48-29.2-73.8-60.8-73.8C44 6.8 19 28.8 19 72.6c0 46.6 28 76.6 64 76.6zm119-91.6V103c0 30.6 0 42.3-6 55.8-4.1 9.4-13 18.3-29.1 28.9a82.2 82.2 0 01-7.8 4.7c-.4.2-.8.4-1.4.4-.6 0-1.4-.4-1.4-1.1 0-1.2 1-1.7 2.8-2.9 2.4-1.3 5.2-3.6 7-5.3 13-12.4 19.2-22.5 19.2-71.2V57.6c0-29.5 0-34.8-.4-40.8-.4-6.4-2-9.5-8.6-10.8-1.6-.4-4.4-.6-6.2-.6-1.4 0-2.2-.5-2.2-1.3 0-.7.8-1.3 3-1.3 9 0 21.8.6 22.8.6s13.6-.6 19.6-.6c2.2 0 3.2.4 3.2 1.5 0 .8-1 1.1-2.2 1.1-1.4 0-3 .2-4.8.4-5.4.6-6.6 4.4-7 11-.4 6-.4 11.3-.4 40.8zm50.8 99.2c-9.4 0-18.6-1.4-26.8-5.4-2.8-1.4-3-2.2-3-7.6 0-10 .8-18 1-21.2.2-2.2.6-3.2 1.6-3.2 1.2 0 1.4.6 1.4 2.2 0 1.8 0 4.6.6 7.4 3 14.8 16.2 20.4 29.6 20.4 19.2 0 28.6-13.8 28.6-26.6 0-13.8-5.8-21.8-23-36l-9-7.4c-21.2-17.4-26-29.8-26-43.4 0-21.4 16-36 41.4-36 7.8 0 13.6.8 18.6 2 3.8.8 5.4 1 7 1 1.6 0 2 .4 2 1.4 0 1-.8 7.6-.8 21.2 0 3.2-.4 4.6-1.4 4.6-1.2 0-1.4-1-1.6-2.6-.2-2.4-1.4-7.8-2.6-10-1.2-2.2-6.6-10.6-25-10.6-13.8 0-24.6 8.6-24.6 23.2 0 11.4 5.2 18.6 24.4 33.6l5.6 4.4c23.6 18.6 29.2 31 29.2 47 0 8.2-3.2 23.4-17 33.2-8.6 6-19.4 8.4-30.2 8.4z"/>
</svg>