<svg id="Layer_1" data-name="Layer 1" xmlns="http://www.w3.org/2000/svg" viewBox="0 0 228.2 115.2"><path d="M176,109.2,157.7,88.1v21.7h-6.8V84.7l6.3-7.5,12,13.5V77.2H176Zm-32,.6h-6.3v-4.6h-12l6-8h6V85.8l-18.8,24V99.3L137,77.2h7ZM112.9,79.9c3.1,3,4.3,6.8,3.7,11.6a11.2,11.2,0,0,1-4.1,7.9c-2.2,1.5-5.3,2.3-9.3,2.3v-8a14.5,14.5,0,0,0,4.2-.4l.4-.2c1.9-1.2,2.4-2.8,1.6-5a5.7,5.7,0,0,0-1.1-1.6,2.4,2.4,0,0,0-.9-.8c-.8-.5-2.6-.6-5.6-.6v24.7H95V84.7l6.5-7.5c4.1,0,6.9.2,8.2.7A8.3,8.3,0,0,1,112.9,79.9ZM224.3,30.4V7a3.7,3.7,0,0,0-2.6-3.7H189.3a3.6,3.6,0,0,0-3.7,2.7,2.3,2.3,0,0,0-.2,1.2V30.4a3.6,3.6,0,0,0,2.6,3.7h32.4a3.7,3.7,0,0,0,3.7-2.6A6.9,6.9,0,0,0,224.3,30.4Zm0,77.8V41.4a3.6,3.6,0,0,0-2.6-3.7h-.3l-1-.2H189.3a3.6,3.6,0,0,0-3.7,2.7,2.7,2.7,0,0,0-.2,1.3v66.8a3.6,3.6,0,0,0,2.6,3.7h32.4a3.6,3.6,0,0,0,3.7-2.7A4.3,4.3,0,0,0,224.3,108.2ZM142.5,37.4H85.7V34.3h56.8a1.3,1.3,0,0,1,1.5,1.5.2.2,0,0,1,0,.3C144,37,143.5,37.4,142.5,37.4Zm38.9,27.2V7a3.6,3.6,0,0,0-2.6-3.7H50.7A3.6,3.6,0,0,0,47,5.8,2.3,2.3,0,0,0,46.8,7V108.2a3.6,3.6,0,0,0,2.6,3.7h.1l1.2.2H81.8a3.6,3.6,0,0,0,3.7-2.7,4.3,4.3,0,0,0,.2-1.2V68.5h91.8a3.5,3.5,0,0,0,3.7-2.6h0A2.5,2.5,0,0,0,181.4,64.6ZM42.9,30.4V7a3.7,3.7,0,0,0-2.7-3.7h-.1l-1.2-.2H7.8A3.7,3.7,0,0,0,4.1,5.8,4.3,4.3,0,0,0,3.9,7V30.4a3.6,3.6,0,0,0,2.7,3.7l1.2.2H38.9a3.6,3.6,0,0,0,3.7-2.6A3.5,3.5,0,0,0,42.9,30.4Zm0,77.8V41.4a3.6,3.6,0,0,0-2.7-3.7h-.1a2.7,2.7,0,0,0-1.2-.3H7.8a3.7,3.7,0,0,0-3.7,2.7,5.1,5.1,0,0,0-.2,1.3v66.8a3.7,3.7,0,0,0,2.7,3.7l1.2.2H38.9a3.6,3.6,0,0,0,3.7-2.7A2.4,2.4,0,0,0,42.9,108.2Zm185.3,0a6.3,6.3,0,0,1-4,6.3,6,6,0,0,1-3,.7H181.4V71.7H89.6v43.5H7a6.3,6.3,0,0,1-6.3-4,6.6,6.6,0,0,1-.7-3V7A6.3,6.3,0,0,1,4,.7,6.6,6.6,0,0,1,7,0H221.2a6.3,6.3,0,0,1,6.3,4,6.6,6.6,0,0,1,.7,3Z" transform="translate(0 0)"/></svg>