<svg data-name="Layer 1" xmlns="http://www.w3.org/2000/svg" viewBox="0 0 1182 650"><text transform="translate(0 21)" font-size="22" fill="rgba(69, 78, 126, 0.5)" font-family="JLMText"><tspan>ǣ</tspan><tspan x="36" y="0">ᵽ</tspan><tspan x="71" y="0">э</tspan><tspan x="105" y="0">ȏ</tspan><tspan x="140" y="0">ḙ</tspan><tspan x="173" y="0">ṍ</tspan><tspan x="210" y="0">ɨ</tspan><tspan x="245" y="0">ї</tspan><tspan x="273" y="0">ẁ</tspan><tspan x="312" y="0">ľ</tspan><tspan x="347" y="0">ḹ</tspan><tspan x="381" y="0">š</tspan><tspan x="413" y="0">ṍ</tspan><tspan x="450" y="0">ḯ</tspan><tspan x="482" y="0">ⱪ</tspan><tspan x="516" y="0">ч</tspan><tspan x="550" y="0">ŋ</tspan><tspan x="585" y="0">ṏ</tspan><tspan x="620" y="0">ȅ</tspan><tspan x="653" y="0">ů</tspan><tspan x="690" y="0">ʆ</tspan><tspan x="722" y="0">ḱ</tspan><tspan x="757" y="0">ẕ</tspan><tspan x="790" y="0">ʜ</tspan><tspan x="827" y="0">ſ</tspan><tspan x="859" y="0">ɵ</tspan><tspan x="893" y="0">ḅ</tspan><tspan x="927" y="0">ḋ</tspan><tspan x="963" y="0">ɽ</tspan><tspan x="998" y="0">ṫ</tspan><tspan x="1031" y="0">ẫ</tspan><tspan x="1064" y="0">ṋ</tspan><tspan x="1099" y="0">ʋ</tspan><tspan x="1136" y="0">ḽ</tspan><tspan x="1166" y="0">ử</tspan></text><text transform="translate(2 55)" font-size="22" fill="#454e7e" font-family="CharisSILCompact, Charis SIL Compact"><tspan>ầ</tspan><tspan x="34" y="0">ḍ</tspan><tspan x="68" y="0">û</tspan><tspan x="103" y="0">ȼɦ</tspan><tspan x="172" y="0">ҫ</tspan><tspan x="203" y="0">w</tspan><tspan x="242" y="0">ſ</tspan><tspan x="274" y="0">ᶒ</tspan><tspan x="309" y="0">ė</tspan><tspan x="342" y="0">ɒ</tspan><tspan x="376" y="0">ṉ</tspan><tspan x="411" y="0">ȧ</tspan><tspan x="446" y="0">ź</tspan><tspan x="480" y="0">ģɑ</tspan><tspan x="548" y="0">g</tspan><tspan x="583" y="0">ġ</tspan><tspan x="614" y="0">љ</tspan><tspan x="651" y="0">ц</tspan><tspan x="685" y="0">ġ</tspan><tspan x="722" y="0">ʄ</tspan><tspan x="754" y="0">ộ</tspan><tspan x="788" y="0">ȕ</tspan><tspan x="821" y="0">җ</tspan><tspan x="857" y="0">x</tspan><tspan x="890" y="0">ứ</tspan><tspan x="925" y="0">ƿ</tspan><tspan x="960" y="0">ḉ</tspan><tspan x="993" y="0">ự</tspan><tspan x="1028" y="0">û</tspan><tspan x="1062" y="0">ṻ</tspan><tspan x="1097" y="0">ᶗ</tspan><tspan x="1131" y="0">ƪ</tspan><tspan x="1165" y="0">ý</tspan></text><text transform="translate(2 90)" font-size="22" fill="#454e7e" font-family="CharisSILCompact, Charis SIL Compact"><tspan>ḅ</tspan><tspan x="36" y="0">ṣ</tspan><tspan x="70" y="0">ŀ</tspan><tspan x="103" y="0">ṑ</tspan><tspan x="138" y="0">т</tspan><tspan x="172" y="0">я</tspan><tspan x="206" y="0">ň</tspan><tspan x="240" y="0">ƪ</tspan><tspan x="273" y="0">ỡ</tspan><tspan x="309" y="0">ę</tspan><tspan x="343" y="0">ḅ</tspan><tspan x="377" y="0">ű</tspan><tspan x="409" y="0">ẅ</tspan><tspan x="446" y="0">ȧ</tspan><tspan x="479" y="0">ư</tspan><tspan x="514" y="0">ṑ</tspan><tspan x="549" y="0">ẙ</tspan><tspan x="581" y="0">ƣ</tspan><tspan x="618" y="0">ç</tspan><tspan x="651" y="0">þ</tspan><tspan x="686" y="0">ẹв</tspan><tspan x="755" y="0">е</tspan><tspan x="791" y="0">ɿ</tspan><tspan x="822" y="0">ħ</tspan><tspan x="854" y="0">ԕ</tspan><tspan x="894" y="0">ḷ</tspan><tspan x="925" y="0">ḓ</tspan><tspan x="962" y="0">í</tspan><tspan x="994" y="0">ɤ</tspan><tspan x="1028" y="0">ʉ</tspan><tspan x="1063" y="0">ч</tspan><tspan x="1097" y="0">ӓ</tspan><tspan x="1134" y="0">ȉ</tspan><tspan x="1165" y="0">ṑ</tspan></text><text transform="translate(3 124)" font-size="22" fill="#454e7e" font-family="CharisSILCompact, Charis SIL Compact">ḗ<tspan x="33" y="0">ǖ</tspan><tspan x="68" y="0">ẍ</tspan><tspan x="101" y="0">ơ</tspan><tspan x="137" y="0">я</tspan><tspan x="170" y="0">ḩ</tspan><tspan x="205" y="0">ȱ</tspan><tspan x="239" y="0">π</tspan><tspan x="276" y="0">і</tspan><tspan x="311" y="0">ḭ</tspan><tspan x="344" y="0">ɬ</tspan><tspan x="377" y="0">a</tspan><tspan x="412" y="0">ṛ</tspan><tspan x="446" y="0">ẻ</tspan><tspan x="480" y="0">ẚ</tspan><tspan x="515" y="0">ŕ</tspan><tspan x="550" y="0">î</tspan><tspan x="580" y="0">ы</tspan><tspan x="616" y="0">ṏ</tspan><tspan x="653" y="0">ḭ</tspan><tspan x="685" y="0">ᶕ</tspan><tspan x="719" y="0">ɖ</tspan><tspan x="754" y="0">ᵷ</tspan><tspan x="785" y="0">ʥ</tspan><tspan x="819" y="0">œ</tspan><tspan x="857" y="0">ả</tspan><tspan x="890" y="0">ұ</tspan><tspan x="927" y="0">ᶖ</tspan><tspan x="960" y="0">ễ</tspan><tspan x="996" y="0">ᶅ</tspan><tspan x="1026" y="0">ƛ</tspan><tspan x="1061" y="0">ҽ</tspan><tspan x="1097" y="0">ằ</tspan><tspan x="1130" y="0">ñ</tspan><tspan x="1166" y="0">ᵲ</tspan></text><text transform="translate(2 158)" font-size="22" fill="#454e7e" font-family="CharisSILCompact, Charis SIL Compact"><tspan>ḃ</tspan><tspan x="35" y="0">ⱥ</tspan><tspan x="66" y="0">ԡ</tspan><tspan x="103" y="0">ḡ</tspan><tspan x="140" y="0">ɩ</tspan><tspan x="173" y="0">ŗ</tspan><tspan x="206" y="0">ē</tspan><tspan x="240" y="0">ò</tspan><tspan x="275" y="0">ǟ</tspan><tspan x="310" y="0">ṥ</tspan><tspan x="343" y="0">ṋ</tspan><tspan x="377" y="0">p</tspan><tspan x="414" y="0">ị</tspan><tspan x="446" y="0">ĕ</tspan><tspan x="477" y="0">ɯ</tspan><tspan x="517" y="0">t</tspan><tspan x="549" y="0">ž</tspan><tspan x="585" y="0">ẛ</tspan><tspan x="617" y="0">ặ</tspan><tspan x="652" y="0">č</tspan><tspan x="687" y="0">ṥ</tspan><tspan x="719" y="0">ĳ</tspan><tspan x="756" y="0">ȓ</tspan><tspan x="788" y="0">ᶕ</tspan><tspan x="823" y="0">á</tspan><tspan x="855" y="0">ԅ</tspan><tspan x="891" y="0">ṿ</tspan><tspan x="925" y="0">ḑ</tspan><tspan x="960" y="0">ģ</tspan><tspan x="994" y="0">ņ</tspan><tspan x="1026" y="0">ԅ</tspan><tspan x="1062" y="0">ů</tspan><tspan x="1098" y="0">ẻ</tspan><tspan x="1134" y="0">l</tspan><tspan x="1166" y="0">e</tspan></text><text transform="translate(2 193)" font-size="22" fill="#454e7e" font-family="CharisSILCompact, Charis SIL Compact">ố<tspan x="34" y="0">й</tspan><tspan x="66" y="0">ẉ</tspan><tspan x="99" y="0">ᶆ</tspan><tspan x="139" y="0">ṩ</tspan><tspan x="171" y="0">ü</tspan><tspan x="205" y="0">ỡ</tspan><tspan x="240" y="0">ḥ</tspan><tspan x="272" y="0">ф</tspan><tspan x="308" y="0">ṑ</tspan><tspan x="343" y="0">ɓ</tspan><tspan x="375" y="0">ҧ</tspan><tspan x="412" y="0">ƪ</tspan><tspan x="446" y="0">ѣ</tspan><tspan x="483" y="0">ĭ</tspan><tspan x="511" y="0">ʤ</tspan><tspan x="546" y="0">ӕ</tspan><tspan x="584" y="0">ɺ</tspan><tspan x="617" y="0">β</tspan><tspan x="652" y="0">ӟ</tspan><tspan x="685" y="0">b</tspan><tspan x="720" y="0">y</tspan><tspan x="755" y="0">г</tspan><tspan x="787" y="0">ɷ</tspan><tspan x="823" y="0">ᵷ</tspan><tspan x="854" y="0">ԝ</tspan><tspan x="892" y="0">ȇ</tspan><tspan x="928" y="0">ł</tspan><tspan x="962" y="0">ɩ</tspan><tspan x="995" y="0">ɞ</tspan><tspan x="1028" y="0">ồ</tspan><tspan x="1064" y="0">ṙ</tspan><tspan x="1097" y="0">ē</tspan><tspan x="1133" y="0">ṣ</tspan><tspan x="1166" y="0">ᶌ</tspan></text><text transform="translate(3 227)" font-size="22" fill="#454e7e" font-family="CharisSILCompact, Charis SIL Compact"><tspan>ᶔ</tspan><tspan x="33" y="0">ġ</tspan><tspan x="67" y="0">ᵭ</tspan><tspan x="102" y="0">ỏ</tspan><tspan x="136" y="0">ұ</tspan><tspan x="170" y="0">д</tspan><tspan x="204" y="0">ꜩ</tspan><tspan x="240" y="0">ᵴ</tspan><tspan x="272" y="0">α</tspan><tspan x="306" y="0">ư</tspan><tspan x="341" y="0">ᵾ</tspan><tspan x="379" y="0">î</tspan><tspan x="411" y="0">ẕ</tspan><tspan x="444" y="0">ǿ</tspan><tspan x="478" y="0">ũ</tspan><tspan x="513" y="0">ḡ</tspan><tspan x="548" y="0">ė</tspan><tspan x="582" y="0">ẫ</tspan><tspan x="613" y="0">ẁ</tspan><tspan x="651" y="0">ḝ</tspan><tspan x="683" y="0">ы</tspan><tspan x="719" y="0">ą</tspan><tspan x="753" y="0">å</tspan><tspan x="790" y="0">ḽ</tspan><tspan x="823" y="0">ᵴ</tspan><tspan x="857" y="0">ș</tspan><tspan x="892" y="0">ṯ</tspan><tspan x="925" y="0">ʌ</tspan><tspan x="961" y="0">ḷ</tspan><tspan x="994" y="0">ć</tspan><tspan x="1027" y="0">ў</tspan><tspan x="1062" y="0">ẓ</tspan><tspan x="1095" y="0">д</tspan><tspan x="1130" y="0">һ</tspan><tspan x="1165" y="0">g</tspan></text><text transform="translate(3 261)" font-size="22" fill="#454e7e" font-family="CharisSILCompact, Charis SIL Compact"><tspan>ᶎ</tspan><tspan x="36" y="0">ţ</tspan><tspan x="68" y="0">ý</tspan><tspan x="102" y="0">ʬ</tspan><tspan x="136" y="0">ḫ</tspan><tspan x="171" y="0">e</tspan><tspan x="206" y="0">ѓ</tspan><tspan x="240" y="0">γ</tspan><tspan x="274" y="0">ӷ</tspan><tspan x="306" y="0">ф</tspan><tspan x="342" y="0">ẹ</tspan><tspan x="379" y="0">ᶂ</tspan><tspan x="411" y="0">ҙ</tspan><tspan x="445" y="0">ṑ</tspan><tspan x="479" y="0">ᶇ</tspan><tspan x="514" y="0">ӻ</tspan><tspan x="550" y="0">ᶅ</tspan><tspan x="582" y="0">ᶇ</tspan><tspan x="616" y="0">ṉᵲ</tspan><tspan x="684" y="0">ɢ</tspan><tspan x="719" y="0">ᶋ</tspan><tspan x="753" y="0">ӊ</tspan><tspan x="788" y="0">ẽ</tspan><tspan x="822" y="0">ӳ</tspan><tspan x="856" y="0">ü</tspan><tspan x="891" y="0">á</tspan><tspan x="925" y="0">ⱪ</tspan><tspan x="960" y="0">ç</tspan><tspan x="991" y="0">ԅ</tspan><tspan x="1026" y="0">ď</tspan><tspan x="1064" y="0">ṫ</tspan><tspan x="1096" y="0">ḵ</tspan><tspan x="1132" y="0">ʂ</tspan><tspan x="1167" y="0">ẛ</tspan></text><text transform="translate(5 295)" font-size="22" fill="#454e7e" font-family="CharisSILCompact, Charis SIL Compact"><tspan>ı</tspan><tspan x="32" y="0">ǭ</tspan><tspan x="66" y="0">у</tspan><tspan x="97" y="0">ẁ</tspan><tspan x="134" y="0">ȫ</tspan><tspan x="169" y="0">ệ</tspan><tspan x="204" y="0">ѕ</tspan><tspan x="237" y="0">ӡ</tspan><tspan x="272" y="0">е</tspan><tspan x="309" y="0">ḹ</tspan><tspan x="338" y="0">ж</tspan><tspan x="375" y="0">ǯ</tspan><tspan x="408" y="0">ḃ</tspan><tspan x="443" y="0">ỳ</tspan><tspan x="477" y="0">ħ</tspan><tspan x="513" y="0">r</tspan><tspan x="547" y="0">ᶔ</tspan><tspan x="581" y="0">ĉ</tspan><tspan x="617" y="0">ḽ</tspan><tspan x="646" y="0">щ</tspan><tspan x="685" y="0">ƭ</tspan><tspan x="717" y="0">ӯ</tspan><tspan x="752" y="0">ẙ</tspan><tspan x="784" y="0">җ</tspan><tspan x="820" y="0">ӫ</tspan><tspan x="855" y="0">ẋ</tspan><tspan x="888" y="0">ḅ</tspan><tspan x="923" y="0">ễ</tspan><tspan x="959" y="0">ʅ</tspan><tspan x="991" y="0">ụ</tspan><tspan x="1026" y="0">ỗ</tspan><tspan x="1057" y="0">љ</tspan><tspan x="1095" y="0">ç</tspan><tspan x="1129" y="0">ɞ</tspan><tspan x="1165" y="0">ƒ</tspan></text><text transform="translate(2 330)" font-size="22" fill="#454e7e" font-family="CharisSILCompact, Charis SIL Compact">ẙ<tspan x="33" y="0">λ</tspan><tspan x="69" y="0">â</tspan><tspan x="101" y="0">ӝ</tspan><tspan x="140" y="0">ʝ</tspan><tspan x="173" y="0">ɻ</tspan><tspan x="205" y="0">ɲ</tspan><tspan x="240" y="0">d</tspan><tspan x="274" y="0">х</tspan><tspan x="310" y="0">ʂ</tspan><tspan x="343" y="0">ỗ</tspan><tspan x="377" y="0">ƌ</tspan><tspan x="412" y="0">ế</tspan><tspan x="446" y="0">ӵ</tspan><tspan x="479" y="0">ʜ</tspan><tspan x="514" y="0">ẫ</tspan><tspan x="548" y="0">û</tspan><tspan x="585" y="0">ṱ</tspan><tspan x="617" y="0">ỹ</tspan><tspan x="653" y="0">ƨ</tspan><tspan x="685" y="0">u</tspan><tspan x="720" y="0">v</tspan><tspan x="757" y="0">ł</tspan><tspan x="789" y="0">ɀ</tspan><tspan x="822" y="0">ᶕ</tspan><tspan x="858" y="0">ȥ</tspan><tspan x="891" y="0">ȗ</tspan><tspan x="928" y="0">ḟ</tspan><tspan x="959" y="0">џ</tspan><tspan x="995" y="0">г</tspan><tspan x="1030" y="0">ľ</tspan><tspan x="1062" y="0">ƀ</tspan><tspan x="1097" y="0">ặ</tspan><tspan x="1134" y="0">ļ</tspan><tspan x="1166" y="0">ź</tspan></text><text transform="translate(2 364)" font-size="22" fill="#454e7e" font-family="CharisSILCompact, Charis SIL Compact">ṹ<tspan x="34" y="0">ɳ</tspan><tspan x="69" y="0">ḥ</tspan><tspan x="103" y="0">ʠ</tspan><tspan x="138" y="0">ᵶ</tspan><tspan x="173" y="0">ӻ</tspan><tspan x="206" y="0">ỵ</tspan><tspan x="240" y="0">ḃ</tspan><tspan x="274" y="0">dủ</tspan><tspan x="343" y="0">ᶐ</tspan><tspan x="377" y="0">ṗ</tspan><tspan x="411" y="0">р</tspan><tspan x="446" y="0">ŏ</tspan><tspan x="481" y="0">γ</tspan><tspan x="513" y="0" font-family="MyriadPro-Regular, Myriad Pro">ŉ</tspan><tspan x="547" y="0">ś</tspan><tspan x="580" y="0">ԍ</tspan><tspan x="614" y="0">ᵬ</tspan><tspan x="648" y="0">ɣ</tspan><tspan x="684" y="0">ẓ</tspan><tspan x="717" y="0">ö</tspan><tspan x="754" y="0">ᶂ</tspan><tspan x="786" y="0">ᶏ</tspan><tspan x="820" y="0">ṓ</tspan><tspan x="854" y="0">ȫ</tspan><tspan x="891" y="0">i</tspan><tspan x="925" y="0">ï</tspan><tspan x="957" y="0">ṕ</tspan><tspan x="989" y="0">ẅ</tspan><tspan x="1023" y="0">w</tspan><tspan x="1061" y="0">ś</tspan><tspan x="1096" y="0">ʇ</tspan><tspan x="1128" y="0">ô</tspan><tspan x="1164" y="0">ḉ</tspan></text><text transform="translate(3 398)" font-size="22" fill="#454e7e" font-family="CharisSILCompact, Charis SIL Compact"><tspan>ŀ</tspan><tspan x="35" y="0">ŧ</tspan><tspan x="65" y="0">ẘ</tspan><tspan x="99" y="0">ю</tspan><tspan x="136" y="0">ǡ</tspan><tspan x="170" y="0">ṍ</tspan><tspan x="204" y="0">π</tspan><tspan x="239" y="0">ḗ</tspan><tspan x="276" y="0">ȷ</tspan><tspan x="308" y="0">ʗ</tspan><tspan x="342" y="0">è</tspan><tspan x="375" y="0">ợ</tspan><tspan x="412" y="0">ṡ</tspan><tspan x="444" y="0">ḓ</tspan><tspan x="479" y="0">я</tspan><tspan x="513" y="0">ƀ</tspan><tspan x="548" y="0">ế</tspan><tspan x="582" y="0">ẵ</tspan><tspan x="616" y="0">ǵ</tspan><tspan x="652" y="0">ɽ</tspan><tspan x="684" y="0">ȏ</tspan><tspan x="716" y="0">ʍ</tspan><tspan x="753" y="0">è</tspan><tspan x="789" y="0">ṭ</tspan><tspan x="822" y="0">ȅ</tspan><tspan x="857" y="0">s</tspan><tspan x="890" y="0">ᵽ</tspan><tspan x="924" y="0">ǯ</tspan><tspan x="959" y="0">с</tspan><tspan x="993" y="0">ê</tspan><tspan x="1027" y="0">ȳ</tspan><tspan x="1062" y="0">ȩ</tspan><tspan x="1096" y="0">ʎ</tspan><tspan x="1130" y="0">ặ</tspan><tspan x="1164" y="0">ḏ</tspan></text><text transform="translate(4 433)" font-size="22" fill="#454e7e" font-family="CharisSILCompact, Charis SIL Compact">ᵼ<tspan x="32" y="0">ů</tspan><tspan x="66" y="0">b</tspan><tspan x="102" y="0">ŝ</tspan><tspan x="133" y="0">ӎ</tspan><tspan x="169" y="0">ʊ</tspan><tspan x="203" y="0">þ</tspan><tspan x="237" y="0">n</tspan><tspan x="273" y="0">ᵳ</tspan><tspan x="306" y="0">ḡ</tspan><tspan x="340" y="0">ⱪ</tspan><tspan x="376" y="0">ŀ</tspan><tspan x="409" y="0">ӿ</tspan><tspan x="442" y="0">ơ</tspan><tspan x="477" y="0">ǿ</tspan><tspan x="511" y="0">н</tspan><tspan x="546" y="0">ɢ</tspan><tspan x="581" y="0">ᶋ</tspan><tspan x="614" y="0">β</tspan><tspan x="649" y="0">ĝ</tspan><tspan x="684" y="0">ẵ</tspan><tspan x="720" y="0">ı</tspan><tspan x="751" y="0">ử</tspan><tspan x="788" y="0">ƫ</tspan><tspan x="823" y="0">f</tspan><tspan x="855" y="0">ɓ</tspan><tspan x="890" y="0">ľ</tspan><tspan x="925" y="0">ś</tspan><tspan x="957" y="0">π</tspan><tspan x="992" y="0">ẳ</tspan><tspan x="1026" y="0">ȁ</tspan><tspan x="1062" y="0">ɼ</tspan><tspan x="1094" y="0">õ</tspan><tspan x="1128" y="0">ѵ</tspan><tspan x="1161" y="0">ƣ</tspan></text><text transform="translate(2 467)" font-size="22" fill="#454e7e" font-family="CharisSILCompact, Charis SIL Compact"><tspan>ч</tspan><tspan x="34" y="0">ḳ</tspan><tspan x="69" y="0">є</tspan><tspan x="105" y="0">ʝ</tspan><tspan x="137" y="0">ặ</tspan><tspan x="171" y="0">ѝ</tspan><tspan x="208" y="0">ɨ</tspan><tspan x="240" y="0">ᵿ</tspan><tspan x="276" y="0">ƨ</tspan><tspan x="306" y="0">ẁ</tspan><tspan x="343" y="0">ō</tspan><tspan x="377" y="0">ḅ</tspan><tspan x="412" y="0">ã</tspan><tspan x="446" y="0">ẋ</tspan><tspan x="480" y="0">ģ</tspan><tspan x="514" y="0">ɗ</tspan><tspan x="549" y="0">ć</tspan><tspan x="580" y="0">ŵ</tspan><tspan x="617" y="0">ÿ</tspan><tspan x="651" y="0">ӽ</tspan><tspan x="686" y="0">ḛ</tspan><tspan x="718" y="0">м</tspan><tspan x="754" y="0">ȍ</tspan><tspan x="791" y="0">ì</tspan><tspan x="821" y="0">ҥ</tspan><tspan x="856" y="0">ḥ</tspan><tspan x="893" y="0">ⱶ</tspan><tspan x="926" y="0">x</tspan><tspan x="960" y="0">ấ</tspan><tspan x="994" y="0">ɘ</tspan><tspan x="1031" y="0">ᵻ</tspan><tspan x="1065" y="0">l</tspan><tspan x="1097" y="0">ọ</tspan><tspan x="1131" y="0">ȭ</tspan></text><text transform="translate(2 501)" font-size="22" fill="#454e7e" font-family="CharisSILCompact, Charis SIL Compact"><tspan>ȳ</tspan><tspan x="35" y="0">ź</tspan><tspan x="68" y="0">ṻ</tspan><tspan x="102" y="0">ʠ</tspan><tspan x="137" y="0">ᵱ</tspan><tspan x="171" y="0">ù</tspan><tspan x="206" y="0">ķ</tspan><tspan x="239" y="0">ѵ</tspan><tspan x="275" y="0">ь</tspan><tspan x="308" y="0">ṏ</tspan><tspan x="341" y="0">ự</tspan><tspan x="377" y="0">ñ</tspan><tspan x="412" y="0">є</tspan><tspan x="446" y="0">ƈ</tspan><tspan x="482" y="0">ị</tspan><tspan x="514" y="0">ԁ</tspan><tspan x="550" y="0">ŕ</tspan><tspan x="584" y="0">ṥ</tspan><tspan x="618" y="0">ʑ</tspan><tspan x="651" y="0">ᶄ</tspan><tspan x="685" y="0">p</tspan><tspan x="721" y="0">ƶ</tspan><tspan x="754" y="0">ȩ</tspan><tspan x="790" y="0">ʃ</tspan><tspan x="823" y="0">ề</tspan><tspan x="856" y="0">ṳ</tspan><tspan x="891" y="0">đ</tspan><tspan x="925" y="0">ц</tspan><tspan x="959" y="0">ĥ</tspan><tspan x="996" y="0">ʈ</tspan><tspan x="1028" y="0">ӯ</tspan><tspan x="1063" y="0">ỷ</tspan><tspan x="1096" y="0">ń</tspan><tspan x="1131" y="0">ʒ</tspan><tspan x="1166" y="0">ĉ</tspan></text><text transform="translate(2 535)" font-size="22" fill="#454e7e" font-family="CharisSILCompact, Charis SIL Compact"><tspan>ḑ</tspan><tspan x="35" y="0">ǥ</tspan><tspan x="71" y="0">ī</tspan><tspan x="103" y="0">ᵷ</tspan><tspan x="139" y="0">ᵴ</tspan><tspan x="170" y="0">ы</tspan><tspan x="208" y="0">ṧ</tspan><tspan x="242" y="0">ɍ</tspan><tspan x="276" y="0">ʅ</tspan><tspan x="309" y="0">ʋ</tspan><tspan x="343" y="0">ᶍ</tspan><tspan x="375" y="0">ԝȇ</tspan><tspan x="443" y="0">ẘ</tspan><tspan x="480" y="0">ṅ</tspan><tspan x="517" y="0">ɨ</tspan><tspan x="549" y="0">ʙ</tspan><tspan x="584" y="0">ӻ</tspan><tspan x="615" y="0">м</tspan><tspan x="651" y="0">ṕ</tspan><tspan x="686" y="0">ᶀ</tspan><tspan x="719" y="0">π</tspan><tspan x="754" y="0">ᶑ</tspan><tspan x="789" y="0">ḱ</tspan><tspan x="820" y="0">ʣ</tspan><tspan x="858" y="0">ɛ</tspan><tspan x="891" y="0">ǫ</tspan><tspan x="928" y="0">ỉ</tspan><tspan x="957" y="0">ԝ</tspan><tspan x="991" y="0">ẅ</tspan><tspan x="1029" y="0">ꜫ</tspan><tspan x="1063" y="0">ṗ</tspan><tspan x="1097" y="0">ƹ</tspan><tspan x="1131" y="0">ɒ</tspan><tspan x="1168" y="0">ḭ</tspan></text><text transform="translate(3 570)" font-size="22" fill="#454e7e" font-family="CharisSILCompact, Charis SIL Compact"><tspan>ʐ</tspan><tspan x="31" y="0">љ</tspan><tspan x="68" y="0">ҕ</tspan><tspan x="102" y="0">ù</tspan><tspan x="136" y="0">ō</tspan><tspan x="170" y="0">ԏ</tspan><tspan x="205" y="0">ẫ</tspan><tspan x="239" y="0">ḥ</tspan><tspan x="273" y="0">ḳ</tspan><tspan x="308" y="0">ā</tspan><tspan x="342" y="0">ŏɜ</tspan><tspan x="410" y="0">о</tspan><tspan x="447" y="0">ſ</tspan><tspan x="480" y="0">ḙ</tspan><tspan x="516" y="0">į</tspan><tspan x="549" y="0">ș</tspan><tspan x="583" y="0">ȼ</tspan><tspan x="618" y="0">š</tspan><tspan x="651" y="0">ʓ</tspan><tspan x="684" y="0">ǚ</tspan><tspan x="719" y="0">ʉ</tspan><tspan x="753" y="0">ỏ</tspan><tspan x="789" y="0">ʟ</tspan><tspan x="824" y="0">ḭ</tspan><tspan x="855" y="0">ở</tspan><tspan x="890" y="0">ň</tspan><tspan x="924" y="0">ꜯ</tspan><tspan x="960" y="0">ʗ</tspan><tspan x="993" y="0">ԛ</tspan><tspan x="1029" y="0">ṟ</tspan><tspan x="1062" y="0">ạ</tspan><tspan x="1097" y="0">ᵹ</tspan><tspan x="1133" y="0">ƫ</tspan></text><text transform="translate(2 604)" font-size="22" fill="#454e7e" font-family="CharisSILCompact, Charis SIL Compact"><tspan>ẍ</tspan><tspan x="34" y="0">ą</tspan><tspan x="68" y="0">ų</tspan><tspan x="102" y="0">ҏ</tspan><tspan x="137" y="0">ặ</tspan><tspan x="171" y="0">ʒ</tspan><tspan x="208" y="0">ḟ</tspan><tspan x="240" y="0">ẍ</tspan><tspan x="273" y="0">ɴ</tspan><tspan x="311" y="0">ĵ</tspan><tspan x="342" y="0">ɡ</tspan><tspan x="377" y="0">ǒ</tspan><tspan x="408" y="0">m</tspan><tspan x="446" y="0">т</tspan><tspan x="480" y="0">ẓ</tspan><tspan x="517" y="0">ḽ</tspan><tspan x="550" y="0">ṱ</tspan><tspan x="580" y="0">ҧ</tspan><tspan x="617" y="0">ᶍ</tspan><tspan x="651" y="0">ẩ</tspan><tspan x="686" y="0">ԑ</tspan><tspan x="719" y="0">ƌ</tspan><tspan x="756" y="0">ṛ</tspan><tspan x="788" y="0">ö</tspan><tspan x="822" y="0">ǿ</tspan><tspan x="857" y="0">ȯ</tspan><tspan x="891" y="0">a</tspan><tspan x="925" y="0">ᵿ</tspan><tspan x="959" y="0">ƥ</tspan><tspan x="994" y="0">е</tspan><tspan x="1028" y="0">ẏ</tspan><tspan x="1063" y="0">ầ</tspan><tspan x="1096" y="0">ʛ</tspan><tspan x="1131" y="0">ỳ</tspan><tspan x="1163" y="0">ẅ</tspan></text><text transform="translate(1 638)" font-size="22" fill="#454e7e" font-family="CharisSILCompact, Charis SIL Compact">ԓ<tspan x="35" y="0">ɵ</tspan><tspan x="69" y="0">ḇ</tspan><tspan x="105" y="0">ɼ</tspan><tspan x="136" y="0">ự</tspan><tspan x="172" y="0">ẍ</tspan><tspan x="206" y="0">v</tspan><tspan x="240" y="0">ᵰ</tspan><tspan x="277" y="0">ᵼ</tspan><tspan x="307" y="0">æ</tspan><tspan x="343" y="0">ṕ</tspan><tspan x="378" y="0">ž</tspan><tspan x="414" y="0">ɩ</tspan><tspan x="446" y="0">ъ</tspan><tspan x="480" y="0">ṉ</tspan><tspan x="514" y="0">ъ</tspan><tspan x="551" y="0">ṛ</tspan><tspan x="583" y="0">ü</tspan><tspan x="618" y="0">ằ</tspan><tspan x="654" y="0">ᶂ</tspan><tspan x="687" y="0">ẽ</tspan><tspan x="721" y="0">ᶗ</tspan><tspan x="756" y="0">ᶓ</tspan><tspan x="784" y="0">ⱳ</tspan><tspan x="824" y="0">ề</tspan><tspan x="860" y="0">ɪ</tspan><tspan x="894" y="0">ɫ</tspan><tspan x="926" y="0">ɓ</tspan><tspan x="960" y="0">ỷ</tspan><tspan x="994" y="0">ҡ</tspan><tspan x="1029" y="0">қ</tspan><tspan x="1063" y="0">ṉ</tspan><tspan x="1097" y="0">õ</tspan><tspan x="1134" y="0">ʆ</tspan><tspan x="1166" y="0">ú</tspan></text></svg>